<svg width="353" height="115" viewBox="0 0 353 115" fill="none" xmlns="http://www.w3.org/2000/svg">
<rect width="353" height="115" rx="7.79" fill="white"/>
<path d="M17.974 28.112C17.6847 28.112 17.4607 28.0327 17.302 27.874C17.1527 27.706 17.078 27.4773 17.078 27.188V19.04C17.078 18.7413 17.1573 18.5173 17.316 18.368C17.4747 18.2093 17.6987 18.13 17.988 18.13H21.362C22.4447 18.13 23.28 18.3913 23.868 18.914C24.456 19.4273 24.75 20.1507 24.75 21.084C24.75 21.6907 24.6147 22.2133 24.344 22.652C24.0827 23.0907 23.7 23.4267 23.196 23.66C22.692 23.8933 22.0807 24.01 21.362 24.01L21.488 23.8H21.95C22.3327 23.8 22.664 23.8933 22.944 24.08C23.2333 24.2667 23.4853 24.5607 23.7 24.962L24.75 26.908C24.862 27.104 24.9133 27.2953 24.904 27.482C24.8947 27.6687 24.8247 27.8227 24.694 27.944C24.5633 28.056 24.372 28.112 24.12 28.112C23.868 28.112 23.6627 28.0607 23.504 27.958C23.3453 27.846 23.2053 27.678 23.084 27.454L21.67 24.85C21.502 24.5327 21.3013 24.3227 21.068 24.22C20.844 24.108 20.5547 24.052 20.2 24.052H18.87V27.188C18.87 27.4773 18.7953 27.706 18.646 27.874C18.4967 28.0327 18.2727 28.112 17.974 28.112ZM18.87 22.722H21.054C21.698 22.722 22.1833 22.5913 22.51 22.33C22.846 22.0593 23.014 21.658 23.014 21.126C23.014 20.6033 22.846 20.2113 22.51 19.95C22.1833 19.6793 21.698 19.544 21.054 19.544H18.87V22.722ZM30.0039 28.14C29.2293 28.14 28.5619 27.9953 28.0019 27.706C27.4419 27.4167 27.0079 27.006 26.6999 26.474C26.4013 25.942 26.2519 25.312 26.2519 24.584C26.2519 23.8747 26.3966 23.254 26.6859 22.722C26.9846 22.19 27.3906 21.7747 27.9039 21.476C28.4266 21.168 29.0193 21.014 29.6819 21.014C30.1673 21.014 30.6013 21.0933 30.9839 21.252C31.3759 21.4107 31.7073 21.6393 31.9779 21.938C32.2579 22.2367 32.4679 22.6007 32.6079 23.03C32.7573 23.45 32.8319 23.926 32.8319 24.458C32.8319 24.626 32.7713 24.7567 32.6499 24.85C32.5379 24.934 32.3746 24.976 32.1599 24.976H27.6659V23.968H31.5999L31.3759 24.178C31.3759 23.7487 31.3106 23.3893 31.1799 23.1C31.0586 22.8107 30.8766 22.5913 30.6339 22.442C30.4006 22.2833 30.1066 22.204 29.7519 22.204C29.3599 22.204 29.0239 22.2973 28.7439 22.484C28.4733 22.6613 28.2633 22.918 28.1139 23.254C27.9739 23.5807 27.9039 23.9727 27.9039 24.43V24.528C27.9039 25.2933 28.0813 25.8673 28.4359 26.25C28.7999 26.6233 29.3319 26.81 30.0319 26.81C30.2746 26.81 30.5453 26.782 30.8439 26.726C31.1519 26.6607 31.4413 26.5533 31.7119 26.404C31.9079 26.292 32.0806 26.2453 32.2299 26.264C32.3793 26.2733 32.4959 26.3247 32.5799 26.418C32.6733 26.5113 32.7293 26.628 32.7479 26.768C32.7666 26.8987 32.7386 27.034 32.6639 27.174C32.5986 27.314 32.4819 27.4353 32.3139 27.538C31.9873 27.7433 31.6093 27.8973 31.1799 28C30.7599 28.0933 30.3679 28.14 30.0039 28.14ZM37.6818 28.14C36.9631 28.14 36.3378 27.9953 35.8058 27.706C35.2738 27.4073 34.8631 26.9873 34.5738 26.446C34.2845 25.9047 34.1398 25.27 34.1398 24.542C34.1398 23.9913 34.2191 23.5013 34.3778 23.072C34.5458 22.6333 34.7838 22.2647 35.0918 21.966C35.3998 21.658 35.7731 21.4247 36.2118 21.266C36.6505 21.098 37.1405 21.014 37.6818 21.014C37.9898 21.014 38.3211 21.056 38.6758 21.14C39.0398 21.224 39.3805 21.364 39.6978 21.56C39.8471 21.6533 39.9451 21.7653 39.9918 21.896C40.0385 22.0267 40.0478 22.162 40.0198 22.302C39.9918 22.4327 39.9311 22.5493 39.8378 22.652C39.7538 22.7453 39.6465 22.806 39.5158 22.834C39.3851 22.8527 39.2405 22.82 39.0818 22.736C38.8765 22.6147 38.6665 22.526 38.4518 22.47C38.2371 22.4047 38.0318 22.372 37.8358 22.372C37.5278 22.372 37.2571 22.4233 37.0238 22.526C36.7905 22.6193 36.5898 22.7593 36.4218 22.946C36.2631 23.1233 36.1418 23.3473 36.0578 23.618C35.9738 23.8887 35.9318 24.2013 35.9318 24.556C35.9318 25.2467 36.0951 25.7927 36.4218 26.194C36.7578 26.586 37.2291 26.782 37.8358 26.782C38.0318 26.782 38.2325 26.754 38.4378 26.698C38.6525 26.642 38.8671 26.5533 39.0818 26.432C39.2405 26.348 39.3805 26.32 39.5018 26.348C39.6325 26.376 39.7398 26.4413 39.8238 26.544C39.9078 26.6373 39.9591 26.754 39.9778 26.894C39.9965 27.0247 39.9778 27.1553 39.9218 27.286C39.8751 27.4167 39.7818 27.524 39.6418 27.608C39.3338 27.7947 39.0071 27.93 38.6618 28.014C38.3165 28.098 37.9898 28.14 37.6818 28.14ZM44.6586 28.14C43.8839 28.14 43.2166 27.9953 42.6566 27.706C42.0966 27.4167 41.6626 27.006 41.3546 26.474C41.0559 25.942 40.9066 25.312 40.9066 24.584C40.9066 23.8747 41.0513 23.254 41.3406 22.722C41.6393 22.19 42.0453 21.7747 42.5586 21.476C43.0813 21.168 43.6739 21.014 44.3366 21.014C44.8219 21.014 45.2559 21.0933 45.6386 21.252C46.0306 21.4107 46.3619 21.6393 46.6326 21.938C46.9126 22.2367 47.1226 22.6007 47.2626 23.03C47.4119 23.45 47.4866 23.926 47.4866 24.458C47.4866 24.626 47.4259 24.7567 47.3046 24.85C47.1926 24.934 47.0293 24.976 46.8146 24.976H42.3206V23.968H46.2546L46.0306 24.178C46.0306 23.7487 45.9653 23.3893 45.8346 23.1C45.7133 22.8107 45.5313 22.5913 45.2886 22.442C45.0553 22.2833 44.7613 22.204 44.4066 22.204C44.0146 22.204 43.6786 22.2973 43.3986 22.484C43.1279 22.6613 42.9179 22.918 42.7686 23.254C42.6286 23.5807 42.5586 23.9727 42.5586 24.43V24.528C42.5586 25.2933 42.7359 25.8673 43.0906 26.25C43.4546 26.6233 43.9866 26.81 44.6866 26.81C44.9293 26.81 45.1999 26.782 45.4986 26.726C45.8066 26.6607 46.0959 26.5533 46.3666 26.404C46.5626 26.292 46.7353 26.2453 46.8846 26.264C47.0339 26.2733 47.1506 26.3247 47.2346 26.418C47.3279 26.5113 47.3839 26.628 47.4026 26.768C47.4213 26.8987 47.3933 27.034 47.3186 27.174C47.2533 27.314 47.1366 27.4353 46.9686 27.538C46.6419 27.7433 46.2639 27.8973 45.8346 28C45.4146 28.0933 45.0226 28.14 44.6586 28.14ZM50.0405 28.112C49.7605 28.112 49.5458 28.0373 49.3965 27.888C49.2472 27.7293 49.1725 27.5053 49.1725 27.216V21.924C49.1725 21.6347 49.2472 21.4153 49.3965 21.266C49.5458 21.1167 49.7558 21.042 50.0265 21.042C50.2972 21.042 50.5072 21.1167 50.6565 21.266C50.8058 21.4153 50.8805 21.6347 50.8805 21.924V22.876L50.7265 22.526C50.9318 22.0313 51.2492 21.658 51.6785 21.406C52.1172 21.1447 52.6118 21.014 53.1625 21.014C53.7132 21.014 54.1658 21.1167 54.5205 21.322C54.8752 21.5273 55.1412 21.84 55.3185 22.26C55.4958 22.6707 55.5845 23.1933 55.5845 23.828V27.216C55.5845 27.5053 55.5098 27.7293 55.3605 27.888C55.2112 28.0373 54.9965 28.112 54.7165 28.112C54.4365 28.112 54.2172 28.0373 54.0585 27.888C53.9092 27.7293 53.8345 27.5053 53.8345 27.216V23.912C53.8345 23.38 53.7318 22.9927 53.5265 22.75C53.3305 22.5073 53.0225 22.386 52.6025 22.386C52.0892 22.386 51.6785 22.5493 51.3705 22.876C51.0718 23.1933 50.9225 23.618 50.9225 24.15V27.216C50.9225 27.8133 50.6285 28.112 50.0405 28.112ZM60.798 28.14C60.1913 28.14 59.6826 28.0373 59.272 27.832C58.8706 27.6267 58.572 27.328 58.376 26.936C58.18 26.5347 58.082 26.04 58.082 25.452V22.47H57.354C57.13 22.47 56.9573 22.414 56.836 22.302C56.7146 22.1807 56.654 22.0173 56.654 21.812C56.654 21.5973 56.7146 21.434 56.836 21.322C56.9573 21.21 57.13 21.154 57.354 21.154H58.082V19.88C58.082 19.5907 58.1566 19.3713 58.306 19.222C58.4646 19.0727 58.684 18.998 58.964 18.998C59.244 18.998 59.4586 19.0727 59.608 19.222C59.7573 19.3713 59.832 19.5907 59.832 19.88V21.154H61.316C61.54 21.154 61.7126 21.21 61.834 21.322C61.9553 21.434 62.016 21.5973 62.016 21.812C62.016 22.0173 61.9553 22.1807 61.834 22.302C61.7126 22.414 61.54 22.47 61.316 22.47H59.832V25.354C59.832 25.802 59.93 26.138 60.126 26.362C60.322 26.586 60.6393 26.698 61.078 26.698C61.2366 26.698 61.3766 26.684 61.498 26.656C61.6193 26.628 61.7266 26.6093 61.82 26.6C61.932 26.5907 62.0253 26.628 62.1 26.712C62.1746 26.7867 62.212 26.9453 62.212 27.188C62.212 27.3747 62.1793 27.5427 62.114 27.692C62.058 27.832 61.9506 27.93 61.792 27.986C61.6706 28.0233 61.512 28.056 61.316 28.084C61.12 28.1213 60.9473 28.14 60.798 28.14ZM71.0758 28.112C70.8238 28.112 70.6184 28.0513 70.4598 27.93C70.3104 27.8087 70.1891 27.6173 70.0958 27.356L67.1698 19.082C67.0671 18.7833 67.0858 18.5313 67.2258 18.326C67.3751 18.1207 67.6224 18.018 67.9678 18.018C68.2198 18.018 68.4158 18.0787 68.5558 18.2C68.6958 18.312 68.8078 18.494 68.8918 18.746L71.4118 26.222H70.8518L73.4838 18.76C73.5771 18.508 73.6938 18.3213 73.8338 18.2C73.9738 18.0787 74.1558 18.018 74.3798 18.018C74.6038 18.018 74.7811 18.0787 74.9118 18.2C75.0424 18.3213 75.1544 18.5127 75.2478 18.774L77.7958 26.222H77.3058L79.8678 18.746C79.9518 18.5033 80.0638 18.3213 80.2038 18.2C80.3438 18.0787 80.5351 18.018 80.7778 18.018C81.0764 18.018 81.2958 18.1207 81.4358 18.326C81.5758 18.5313 81.5944 18.7833 81.4918 19.082L78.5378 27.37C78.4444 27.622 78.3231 27.8087 78.1738 27.93C78.0244 28.0513 77.8238 28.112 77.5718 28.112C77.3198 28.112 77.1191 28.0513 76.9698 27.93C76.8204 27.8087 76.6991 27.6173 76.6058 27.356L74.1698 20.412H74.4918L72.0278 27.37C71.9344 27.622 71.8131 27.8087 71.6638 27.93C71.5238 28.0513 71.3278 28.112 71.0758 28.112ZM84.887 28.098C84.607 28.098 84.3923 28.014 84.243 27.846C84.0937 27.678 84.019 27.4447 84.019 27.146V22.008C84.019 21.7 84.0937 21.4667 84.243 21.308C84.3923 21.14 84.607 21.056 84.887 21.056C85.167 21.056 85.3817 21.14 85.531 21.308C85.6897 21.4667 85.769 21.7 85.769 22.008V27.146C85.769 27.4447 85.6943 27.678 85.545 27.846C85.3957 28.014 85.1763 28.098 84.887 28.098ZM84.887 19.754C84.5603 19.754 84.3037 19.6747 84.117 19.516C83.9397 19.348 83.851 19.1193 83.851 18.83C83.851 18.5313 83.9397 18.3027 84.117 18.144C84.3037 17.9853 84.5603 17.906 84.887 17.906C85.223 17.906 85.4797 17.9853 85.657 18.144C85.8343 18.3027 85.923 18.5313 85.923 18.83C85.923 19.1193 85.8343 19.348 85.657 19.516C85.4797 19.6747 85.223 19.754 84.887 19.754ZM91.0233 28.14C90.4167 28.14 89.908 28.0373 89.4973 27.832C89.096 27.6267 88.7973 27.328 88.6013 26.936C88.4053 26.5347 88.3073 26.04 88.3073 25.452V22.47H87.5793C87.3553 22.47 87.1827 22.414 87.0613 22.302C86.94 22.1807 86.8793 22.0173 86.8793 21.812C86.8793 21.5973 86.94 21.434 87.0613 21.322C87.1827 21.21 87.3553 21.154 87.5793 21.154H88.3073V19.88C88.3073 19.5907 88.382 19.3713 88.5313 19.222C88.69 19.0727 88.9093 18.998 89.1893 18.998C89.4693 18.998 89.684 19.0727 89.8333 19.222C89.9827 19.3713 90.0573 19.5907 90.0573 19.88V21.154H91.5413C91.7653 21.154 91.938 21.21 92.0593 21.322C92.1807 21.434 92.2413 21.5973 92.2413 21.812C92.2413 22.0173 92.1807 22.1807 92.0593 22.302C91.938 22.414 91.7653 22.47 91.5413 22.47H90.0573V25.354C90.0573 25.802 90.1553 26.138 90.3513 26.362C90.5473 26.586 90.8647 26.698 91.3033 26.698C91.462 26.698 91.602 26.684 91.7233 26.656C91.8447 26.628 91.952 26.6093 92.0453 26.6C92.1573 26.5907 92.2507 26.628 92.3253 26.712C92.4 26.7867 92.4373 26.9453 92.4373 27.188C92.4373 27.3747 92.4047 27.5427 92.3393 27.692C92.2833 27.832 92.176 27.93 92.0173 27.986C91.896 28.0233 91.7373 28.056 91.5413 28.084C91.3453 28.1213 91.1727 28.14 91.0233 28.14ZM94.6061 28.112C94.3261 28.112 94.1115 28.0373 93.9621 27.888C93.8128 27.7293 93.7381 27.5053 93.7381 27.216V18.9C93.7381 18.6107 93.8128 18.3913 93.9621 18.242C94.1115 18.0927 94.3261 18.018 94.6061 18.018C94.8861 18.018 95.1008 18.0927 95.2501 18.242C95.4088 18.3913 95.4881 18.6107 95.4881 18.9V22.526H95.2921C95.4975 22.0313 95.8148 21.658 96.2441 21.406C96.6828 21.1447 97.1775 21.014 97.7281 21.014C98.2788 21.014 98.7315 21.1167 99.0861 21.322C99.4408 21.5273 99.7068 21.84 99.8841 22.26C100.061 22.6707 100.15 23.1933 100.15 23.828V27.216C100.15 27.5053 100.075 27.7293 99.9261 27.888C99.7768 28.0373 99.5621 28.112 99.2821 28.112C99.0021 28.112 98.7828 28.0373 98.6241 27.888C98.4748 27.7293 98.4001 27.5053 98.4001 27.216V23.912C98.4001 23.38 98.2975 22.9927 98.0921 22.75C97.8961 22.5073 97.5881 22.386 97.1681 22.386C96.6548 22.386 96.2441 22.5493 95.9361 22.876C95.6375 23.1933 95.4881 23.618 95.4881 24.15V27.216C95.4881 27.8133 95.1941 28.112 94.6061 28.112ZM104.86 28.14C104.262 28.14 103.735 27.9953 103.278 27.706C102.83 27.4167 102.48 27.006 102.228 26.474C101.976 25.9327 101.85 25.298 101.85 24.57C101.85 23.8327 101.976 23.2027 102.228 22.68C102.48 22.148 102.83 21.7373 103.278 21.448C103.735 21.1587 104.262 21.014 104.86 21.014C105.429 21.014 105.924 21.154 106.344 21.434C106.773 21.714 107.062 22.0827 107.212 22.54H107.058V18.9C107.058 18.6107 107.132 18.3913 107.282 18.242C107.431 18.0927 107.646 18.018 107.926 18.018C108.206 18.018 108.42 18.0927 108.57 18.242C108.728 18.3913 108.808 18.6107 108.808 18.9V27.216C108.808 27.5053 108.733 27.7293 108.584 27.888C108.434 28.0373 108.22 28.112 107.94 28.112C107.66 28.112 107.445 28.0373 107.296 27.888C107.146 27.7293 107.072 27.5053 107.072 27.216V26.124L107.226 26.544C107.086 27.0293 106.801 27.4167 106.372 27.706C105.942 27.9953 105.438 28.14 104.86 28.14ZM105.35 26.81C105.695 26.81 105.998 26.726 106.26 26.558C106.521 26.39 106.722 26.1427 106.862 25.816C107.011 25.48 107.086 25.0647 107.086 24.57C107.086 23.8233 106.927 23.268 106.61 22.904C106.292 22.5307 105.872 22.344 105.35 22.344C105.004 22.344 104.701 22.428 104.44 22.596C104.178 22.7547 103.973 23.002 103.824 23.338C103.684 23.6647 103.614 24.0753 103.614 24.57C103.614 25.3073 103.772 25.8673 104.09 26.25C104.407 26.6233 104.827 26.81 105.35 26.81ZM111.818 28.112C111.529 28.112 111.305 28.0373 111.146 27.888C110.997 27.7293 110.922 27.5053 110.922 27.216V21.924C110.922 21.6347 110.997 21.4153 111.146 21.266C111.295 21.1167 111.505 21.042 111.776 21.042C112.047 21.042 112.257 21.1167 112.406 21.266C112.555 21.4153 112.63 21.6347 112.63 21.924V22.806H112.49C112.621 22.246 112.877 21.8213 113.26 21.532C113.643 21.2427 114.151 21.07 114.786 21.014C114.982 20.9953 115.136 21.0467 115.248 21.168C115.369 21.28 115.439 21.4573 115.458 21.7C115.477 21.9333 115.421 22.1247 115.29 22.274C115.169 22.414 114.982 22.498 114.73 22.526L114.422 22.554C113.853 22.61 113.423 22.7873 113.134 23.086C112.845 23.3753 112.7 23.786 112.7 24.318V27.216C112.7 27.5053 112.625 27.7293 112.476 27.888C112.327 28.0373 112.107 28.112 111.818 28.112ZM118.89 28.14C118.396 28.14 117.952 28.0467 117.56 27.86C117.178 27.664 116.874 27.4027 116.65 27.076C116.436 26.7493 116.328 26.3807 116.328 25.97C116.328 25.466 116.459 25.0693 116.72 24.78C116.982 24.4813 117.406 24.2667 117.994 24.136C118.582 24.0053 119.371 23.94 120.36 23.94H121.06V24.948H120.374C119.796 24.948 119.334 24.976 118.988 25.032C118.643 25.088 118.396 25.186 118.246 25.326C118.106 25.4567 118.036 25.6433 118.036 25.886C118.036 26.194 118.144 26.446 118.358 26.642C118.573 26.838 118.872 26.936 119.254 26.936C119.562 26.936 119.833 26.866 120.066 26.726C120.309 26.5767 120.5 26.376 120.64 26.124C120.78 25.872 120.85 25.5827 120.85 25.256V23.646C120.85 23.1793 120.748 22.8433 120.542 22.638C120.337 22.4327 119.992 22.33 119.506 22.33C119.236 22.33 118.942 22.3627 118.624 22.428C118.316 22.4933 117.99 22.6053 117.644 22.764C117.467 22.848 117.308 22.8713 117.168 22.834C117.038 22.7967 116.935 22.722 116.86 22.61C116.786 22.4887 116.748 22.358 116.748 22.218C116.748 22.078 116.786 21.9427 116.86 21.812C116.935 21.672 117.061 21.5693 117.238 21.504C117.668 21.3267 118.078 21.2007 118.47 21.126C118.872 21.0513 119.236 21.014 119.562 21.014C120.234 21.014 120.785 21.1167 121.214 21.322C121.653 21.5273 121.98 21.84 122.194 22.26C122.409 22.6707 122.516 23.2027 122.516 23.856V27.216C122.516 27.5053 122.446 27.7293 122.306 27.888C122.166 28.0373 121.966 28.112 121.704 28.112C121.443 28.112 121.238 28.0373 121.088 27.888C120.948 27.7293 120.878 27.5053 120.878 27.216V26.544H120.99C120.925 26.8707 120.794 27.1553 120.598 27.398C120.412 27.6313 120.174 27.8133 119.884 27.944C119.595 28.0747 119.264 28.14 118.89 28.14ZM127.17 28.112C126.937 28.112 126.736 28.056 126.568 27.944C126.4 27.8227 126.265 27.636 126.162 27.384L124.132 22.204C124.048 21.98 124.02 21.784 124.048 21.616C124.085 21.4387 124.174 21.2987 124.314 21.196C124.454 21.0933 124.641 21.042 124.874 21.042C125.079 21.042 125.247 21.0933 125.378 21.196C125.509 21.2893 125.621 21.4713 125.714 21.742L127.408 26.404H127.086L128.836 21.63C128.911 21.4247 129.009 21.2753 129.13 21.182C129.261 21.0887 129.429 21.042 129.634 21.042C129.839 21.042 130.007 21.0933 130.138 21.196C130.269 21.2893 130.367 21.434 130.432 21.63L132.154 26.404H131.86L133.568 21.7C133.661 21.448 133.778 21.2753 133.918 21.182C134.067 21.0887 134.231 21.042 134.408 21.042C134.632 21.042 134.805 21.098 134.926 21.21C135.047 21.322 135.117 21.4667 135.136 21.644C135.155 21.812 135.122 21.9987 135.038 22.204L133.022 27.384C132.929 27.6267 132.793 27.8087 132.616 27.93C132.448 28.0513 132.247 28.112 132.014 28.112C131.781 28.112 131.575 28.0513 131.398 27.93C131.23 27.8087 131.099 27.6267 131.006 27.384L129.172 22.526H129.97L128.178 27.37C128.085 27.622 127.954 27.8087 127.786 27.93C127.618 28.0513 127.413 28.112 127.17 28.112ZM138.877 28.14C138.382 28.14 137.939 28.0467 137.547 27.86C137.164 27.664 136.861 27.4027 136.637 27.076C136.422 26.7493 136.315 26.3807 136.315 25.97C136.315 25.466 136.446 25.0693 136.707 24.78C136.968 24.4813 137.393 24.2667 137.981 24.136C138.569 24.0053 139.358 23.94 140.347 23.94H141.047V24.948H140.361C139.782 24.948 139.32 24.976 138.975 25.032C138.63 25.088 138.382 25.186 138.233 25.326C138.093 25.4567 138.023 25.6433 138.023 25.886C138.023 26.194 138.13 26.446 138.345 26.642C138.56 26.838 138.858 26.936 139.241 26.936C139.549 26.936 139.82 26.866 140.053 26.726C140.296 26.5767 140.487 26.376 140.627 26.124C140.767 25.872 140.837 25.5827 140.837 25.256V23.646C140.837 23.1793 140.734 22.8433 140.529 22.638C140.324 22.4327 139.978 22.33 139.493 22.33C139.222 22.33 138.928 22.3627 138.611 22.428C138.303 22.4933 137.976 22.6053 137.631 22.764C137.454 22.848 137.295 22.8713 137.155 22.834C137.024 22.7967 136.922 22.722 136.847 22.61C136.772 22.4887 136.735 22.358 136.735 22.218C136.735 22.078 136.772 21.9427 136.847 21.812C136.922 21.672 137.048 21.5693 137.225 21.504C137.654 21.3267 138.065 21.2007 138.457 21.126C138.858 21.0513 139.222 21.014 139.549 21.014C140.221 21.014 140.772 21.1167 141.201 21.322C141.64 21.5273 141.966 21.84 142.181 22.26C142.396 22.6707 142.503 23.2027 142.503 23.856V27.216C142.503 27.5053 142.433 27.7293 142.293 27.888C142.153 28.0373 141.952 28.112 141.691 28.112C141.43 28.112 141.224 28.0373 141.075 27.888C140.935 27.7293 140.865 27.5053 140.865 27.216V26.544H140.977C140.912 26.8707 140.781 27.1553 140.585 27.398C140.398 27.6313 140.16 27.8133 139.871 27.944C139.582 28.0747 139.25 28.14 138.877 28.14ZM146.917 28.14C146.142 28.14 145.559 27.9207 145.167 27.482C144.775 27.034 144.579 26.3807 144.579 25.522V18.9C144.579 18.6107 144.654 18.3913 144.803 18.242C144.952 18.0927 145.167 18.018 145.447 18.018C145.727 18.018 145.942 18.0927 146.091 18.242C146.25 18.3913 146.329 18.6107 146.329 18.9V25.438C146.329 25.8673 146.418 26.1847 146.595 26.39C146.782 26.5953 147.043 26.698 147.379 26.698C147.454 26.698 147.524 26.698 147.589 26.698C147.654 26.6887 147.72 26.6793 147.785 26.67C147.916 26.6513 148.004 26.6887 148.051 26.782C148.098 26.866 148.121 27.0433 148.121 27.314C148.121 27.5473 148.074 27.7293 147.981 27.86C147.888 27.9907 147.734 28.07 147.519 28.098C147.426 28.1073 147.328 28.1167 147.225 28.126C147.122 28.1353 147.02 28.14 146.917 28.14ZM151.787 28.14C151.386 28.14 150.961 28.098 150.513 28.014C150.065 27.93 149.664 27.7853 149.309 27.58C149.16 27.4867 149.053 27.3793 148.987 27.258C148.931 27.1273 148.908 27.0013 148.917 26.88C148.936 26.7493 148.983 26.6373 149.057 26.544C149.141 26.4507 149.244 26.39 149.365 26.362C149.496 26.334 149.636 26.3573 149.785 26.432C150.159 26.6093 150.509 26.7353 150.835 26.81C151.162 26.8753 151.484 26.908 151.801 26.908C152.249 26.908 152.581 26.8333 152.795 26.684C153.019 26.5253 153.131 26.32 153.131 26.068C153.131 25.8533 153.057 25.69 152.907 25.578C152.767 25.4567 152.553 25.368 152.263 25.312L150.863 25.046C150.285 24.934 149.841 24.724 149.533 24.416C149.235 24.0987 149.085 23.6927 149.085 23.198C149.085 22.75 149.207 22.3627 149.449 22.036C149.701 21.7093 150.047 21.4573 150.485 21.28C150.924 21.1027 151.428 21.014 151.997 21.014C152.408 21.014 152.791 21.0607 153.145 21.154C153.509 21.238 153.859 21.3733 154.195 21.56C154.335 21.6347 154.429 21.7327 154.475 21.854C154.531 21.9753 154.545 22.1013 154.517 22.232C154.489 22.3533 154.433 22.4653 154.349 22.568C154.265 22.6613 154.158 22.722 154.027 22.75C153.906 22.7687 153.766 22.7407 153.607 22.666C153.318 22.5167 153.038 22.4093 152.767 22.344C152.506 22.2787 152.254 22.246 152.011 22.246C151.554 22.246 151.213 22.3253 150.989 22.484C150.775 22.6427 150.667 22.8527 150.667 23.114C150.667 23.31 150.733 23.4733 150.863 23.604C150.994 23.7347 151.195 23.8233 151.465 23.87L152.865 24.136C153.472 24.248 153.929 24.4533 154.237 24.752C154.555 25.0507 154.713 25.452 154.713 25.956C154.713 26.6373 154.447 27.174 153.915 27.566C153.383 27.9487 152.674 28.14 151.787 28.14Z" fill="black"/>
<mask id="path-3-inside-1_60_37089" fill="white">
<path d="M16 47H337V99H16V47Z"/>
</mask>
<path d="M337 99V98.5H16V99V99.5H337V99Z" fill="#F0F0F0" mask="url(#path-3-inside-1_60_37089)"/>
<path d="M17.82 59C17.596 59 17.428 58.9487 17.316 58.846C17.2133 58.734 17.162 58.5847 17.162 58.398C17.162 58.286 17.19 58.174 17.246 58.062C17.302 57.95 17.386 57.838 17.498 57.726L20.564 54.436C21.0307 53.9413 21.3667 53.484 21.572 53.064C21.7773 52.644 21.88 52.2193 21.88 51.79C21.88 51.2487 21.712 50.838 21.376 50.558C21.0493 50.2687 20.5687 50.124 19.934 50.124C19.542 50.124 19.164 50.1893 18.8 50.32C18.4453 50.4413 18.0953 50.6327 17.75 50.894C17.6193 50.9873 17.498 51.0293 17.386 51.02C17.274 51.0107 17.176 50.9687 17.092 50.894C17.0173 50.81 16.9613 50.7167 16.924 50.614C16.896 50.502 16.9007 50.3853 16.938 50.264C16.9753 50.1427 17.0547 50.04 17.176 49.956C17.5587 49.6573 18.002 49.424 18.506 49.256C19.01 49.088 19.528 49.004 20.06 49.004C20.732 49.004 21.2967 49.1113 21.754 49.326C22.2207 49.5313 22.5753 49.8347 22.818 50.236C23.0607 50.628 23.182 51.1087 23.182 51.678C23.182 52.07 23.1167 52.4573 22.986 52.84C22.8553 53.2133 22.6593 53.596 22.398 53.988C22.146 54.38 21.8193 54.786 21.418 55.206L18.506 58.272V57.894H23.098C23.2847 57.894 23.4247 57.9407 23.518 58.034C23.6207 58.1273 23.672 58.2627 23.672 58.44C23.672 58.6173 23.6207 58.7573 23.518 58.86C23.4247 58.9533 23.2847 59 23.098 59H17.82ZM28.8945 59.126C28.1479 59.126 27.5085 59.0187 26.9765 58.804C26.4539 58.5893 26.0479 58.2767 25.7585 57.866C25.4785 57.4553 25.3385 56.956 25.3385 56.368C25.3385 55.9107 25.4319 55.5047 25.6185 55.15C25.8145 54.786 26.0805 54.492 26.4165 54.268C26.7525 54.044 27.1399 53.904 27.5785 53.848V54.072C26.9625 53.9413 26.4725 53.6567 26.1085 53.218C25.7539 52.77 25.5765 52.2427 25.5765 51.636C25.5765 51.0853 25.7119 50.614 25.9825 50.222C26.2625 49.8207 26.6499 49.5173 27.1445 49.312C27.6392 49.1067 28.2225 49.004 28.8945 49.004C29.5759 49.004 30.1639 49.1067 30.6585 49.312C31.1532 49.5173 31.5359 49.8207 31.8065 50.222C32.0772 50.614 32.2125 51.0853 32.2125 51.636C32.2125 52.0373 32.1285 52.4107 31.9605 52.756C31.8019 53.1013 31.5732 53.386 31.2745 53.61C30.9852 53.834 30.6399 53.988 30.2385 54.072V53.848C30.8919 53.9413 31.4239 54.2167 31.8345 54.674C32.2452 55.122 32.4505 55.6867 32.4505 56.368C32.4505 56.956 32.3059 57.4553 32.0165 57.866C31.7365 58.2767 31.3305 58.5893 30.7985 58.804C30.2759 59.0187 29.6412 59.126 28.8945 59.126ZM28.8945 58.076C29.6599 58.076 30.2385 57.9267 30.6305 57.628C31.0225 57.3293 31.2185 56.886 31.2185 56.298C31.2185 55.7007 31.0225 55.2573 30.6305 54.968C30.2385 54.6787 29.6599 54.534 28.8945 54.534C28.1385 54.534 27.5599 54.6787 27.1585 54.968C26.7665 55.2573 26.5705 55.7007 26.5705 56.298C26.5705 56.886 26.7665 57.3293 27.1585 57.628C27.5599 57.9267 28.1385 58.076 28.8945 58.076ZM28.8945 53.47C29.3332 53.47 29.7065 53.4047 30.0145 53.274C30.3225 53.134 30.5605 52.9333 30.7285 52.672C30.8965 52.4107 30.9805 52.1027 30.9805 51.748C30.9805 51.216 30.7939 50.8007 30.4205 50.502C30.0565 50.2033 29.5479 50.054 28.8945 50.054C28.2412 50.054 27.7325 50.2033 27.3685 50.502C27.0045 50.8007 26.8225 51.216 26.8225 51.748C26.8225 52.2893 27.0045 52.714 27.3685 53.022C27.7325 53.3207 28.2412 53.47 28.8945 53.47ZM37.2391 59.126C36.6884 59.126 36.2264 59.028 35.8531 58.832C35.4891 58.636 35.2137 58.3513 35.0271 57.978C34.8497 57.6047 34.7611 57.1473 34.7611 56.606V53.162H33.8651C33.6971 53.162 33.5664 53.12 33.4731 53.036C33.3797 52.9427 33.3331 52.8213 33.3331 52.672C33.3331 52.5133 33.3797 52.392 33.4731 52.308C33.5664 52.224 33.6971 52.182 33.8651 52.182H34.7611V50.656C34.7611 50.4413 34.8171 50.2827 34.9291 50.18C35.0411 50.068 35.1997 50.012 35.4051 50.012C35.6104 50.012 35.7644 50.068 35.8671 50.18C35.9791 50.2827 36.0351 50.4413 36.0351 50.656V52.182H37.7291C37.9064 52.182 38.0417 52.224 38.1351 52.308C38.2284 52.392 38.2751 52.5133 38.2751 52.672C38.2751 52.8213 38.2284 52.9427 38.1351 53.036C38.0417 53.12 37.9064 53.162 37.7291 53.162H36.0351V56.494C36.0351 57.0073 36.1424 57.3947 36.3571 57.656C36.5717 57.9173 36.9264 58.048 37.4211 58.048C37.5984 58.048 37.7477 58.034 37.8691 58.006C37.9904 57.9687 38.0977 57.95 38.1911 57.95C38.2751 57.9407 38.3451 57.9687 38.4011 58.034C38.4664 58.0993 38.4991 58.2207 38.4991 58.398C38.4991 58.5287 38.4757 58.65 38.4291 58.762C38.3917 58.8647 38.3124 58.9347 38.1911 58.972C38.0791 59.0093 37.9297 59.042 37.7431 59.07C37.5564 59.1073 37.3884 59.126 37.2391 59.126ZM40.468 59.098C40.272 59.098 40.118 59.042 40.006 58.93C39.894 58.818 39.838 58.6547 39.838 58.44V49.676C39.838 49.4613 39.894 49.3027 40.006 49.2C40.118 49.088 40.272 49.032 40.468 49.032C40.6733 49.032 40.832 49.088 40.944 49.2C41.056 49.3027 41.112 49.4613 41.112 49.676V53.666H40.93C41.126 53.134 41.4433 52.7327 41.882 52.462C42.33 52.1913 42.8387 52.056 43.408 52.056C43.9587 52.056 44.4113 52.1587 44.766 52.364C45.1207 52.56 45.3867 52.8587 45.564 53.26C45.7413 53.6613 45.83 54.1653 45.83 54.772V58.44C45.83 58.6547 45.774 58.818 45.662 58.93C45.5593 59.042 45.4053 59.098 45.2 59.098C44.9947 59.098 44.836 59.042 44.724 58.93C44.612 58.818 44.556 58.6547 44.556 58.44V54.842C44.556 54.2353 44.4393 53.792 44.206 53.512C43.9727 53.232 43.5993 53.092 43.086 53.092C42.4887 53.092 42.008 53.2787 41.644 53.652C41.2893 54.016 41.112 54.5107 41.112 55.136V58.44C41.112 58.8787 40.8973 59.098 40.468 59.098ZM51.5261 59.084C51.3301 59.0933 51.1761 59.042 51.0641 58.93C50.9521 58.818 50.8961 58.678 50.8961 58.51C50.8961 58.3793 50.9381 58.2673 51.0221 58.174C51.0968 58.0713 51.2181 58.0153 51.3861 58.006L51.8201 57.964C52.2775 57.9267 52.6275 57.768 52.8701 57.488C53.1128 57.208 53.2341 56.8253 53.2341 56.34V49.69C53.2341 49.4753 53.2901 49.312 53.4021 49.2C53.5141 49.088 53.6728 49.032 53.8781 49.032C54.0835 49.032 54.2421 49.088 54.3541 49.2C54.4661 49.312 54.5221 49.4753 54.5221 49.69V56.34C54.5221 56.8907 54.4241 57.362 54.2281 57.754C54.0415 58.1367 53.7615 58.44 53.3881 58.664C53.0148 58.8787 52.5481 59.0093 51.9881 59.056L51.5261 59.084ZM59.4709 59.126C58.9202 59.126 58.4582 59.0233 58.0849 58.818C57.7209 58.6127 57.4502 58.3093 57.2729 57.908C57.0956 57.5067 57.0069 57.0027 57.0069 56.396V52.728C57.0069 52.5133 57.0582 52.3547 57.1609 52.252C57.2729 52.14 57.4316 52.084 57.6369 52.084C57.8422 52.084 58.0009 52.14 58.1129 52.252C58.2249 52.3547 58.2809 52.5133 58.2809 52.728V56.396C58.2809 56.9747 58.3976 57.404 58.6309 57.684C58.8642 57.9547 59.2329 58.09 59.7369 58.09C60.2969 58.09 60.7496 57.9033 61.0949 57.53C61.4496 57.1567 61.6269 56.662 61.6269 56.046V52.728C61.6269 52.5133 61.6782 52.3547 61.7809 52.252C61.8929 52.14 62.0516 52.084 62.2569 52.084C62.4622 52.084 62.6209 52.14 62.7329 52.252C62.8449 52.3547 62.9009 52.5133 62.9009 52.728V58.44C62.9009 58.8787 62.6956 59.098 62.2849 59.098C62.0796 59.098 61.9209 59.042 61.8089 58.93C61.7062 58.818 61.6549 58.6547 61.6549 58.44V57.222L61.8369 57.46C61.6502 58.0013 61.3469 58.4167 60.9269 58.706C60.5162 58.986 60.0309 59.126 59.4709 59.126ZM67.3929 59.126C66.6929 59.126 66.1609 58.9207 65.7969 58.51C65.4329 58.09 65.2509 57.488 65.2509 56.704V49.676C65.2509 49.4613 65.3069 49.3027 65.4189 49.2C65.5309 49.088 65.6849 49.032 65.8809 49.032C66.0862 49.032 66.2449 49.088 66.3569 49.2C66.4689 49.3027 66.5249 49.4613 66.5249 49.676V56.606C66.5249 57.0913 66.6229 57.4553 66.8189 57.698C67.0242 57.9313 67.3136 58.048 67.6869 58.048C67.7709 58.048 67.8456 58.048 67.9109 58.048C67.9762 58.0387 68.0416 58.0293 68.1069 58.02C68.2096 58.0107 68.2842 58.0387 68.3309 58.104C68.3776 58.1693 68.4009 58.3 68.4009 58.496C68.4009 58.6733 68.3589 58.8133 68.2749 58.916C68.2002 59.0093 68.0742 59.07 67.8969 59.098C67.8129 59.1073 67.7289 59.112 67.6449 59.112C67.5609 59.1213 67.4769 59.126 67.3929 59.126ZM71.1658 61.618C71.0164 61.618 70.8904 61.576 70.7878 61.492C70.6944 61.4173 70.6384 61.31 70.6198 61.17C70.6104 61.0393 70.6384 60.8993 70.7038 60.75L71.6558 58.594V59.126L69.0098 52.966C68.9444 52.8073 68.9211 52.6627 68.9398 52.532C68.9584 52.4013 69.0191 52.294 69.1218 52.21C69.2338 52.126 69.3831 52.084 69.5698 52.084C69.7284 52.084 69.8544 52.1213 69.9478 52.196C70.0411 52.2707 70.1298 52.4013 70.2138 52.588L72.4118 58.006H72.0198L74.2598 52.588C74.3344 52.4013 74.4231 52.2707 74.5258 52.196C74.6284 52.1213 74.7684 52.084 74.9458 52.084C75.1044 52.084 75.2258 52.126 75.3098 52.21C75.4031 52.294 75.4591 52.4013 75.4778 52.532C75.4964 52.6627 75.4684 52.8027 75.3938 52.952L71.8658 61.114C71.7724 61.31 71.6744 61.4407 71.5718 61.506C71.4784 61.5807 71.3431 61.618 71.1658 61.618ZM81.8786 59C81.6546 59 81.4866 58.9487 81.3746 58.846C81.2719 58.734 81.2206 58.5847 81.2206 58.398C81.2206 58.286 81.2486 58.174 81.3046 58.062C81.3606 57.95 81.4446 57.838 81.5566 57.726L84.6226 54.436C85.0893 53.9413 85.4253 53.484 85.6306 53.064C85.8359 52.644 85.9386 52.2193 85.9386 51.79C85.9386 51.2487 85.7706 50.838 85.4346 50.558C85.1079 50.2687 84.6273 50.124 83.9926 50.124C83.6006 50.124 83.2226 50.1893 82.8586 50.32C82.5039 50.4413 82.1539 50.6327 81.8086 50.894C81.6779 50.9873 81.5566 51.0293 81.4446 51.02C81.3326 51.0107 81.2346 50.9687 81.1506 50.894C81.0759 50.81 81.0199 50.7167 80.9826 50.614C80.9546 50.502 80.9593 50.3853 80.9966 50.264C81.0339 50.1427 81.1133 50.04 81.2346 49.956C81.6173 49.6573 82.0606 49.424 82.5646 49.256C83.0686 49.088 83.5866 49.004 84.1186 49.004C84.7906 49.004 85.3553 49.1113 85.8126 49.326C86.2793 49.5313 86.6339 49.8347 86.8766 50.236C87.1193 50.628 87.2406 51.1087 87.2406 51.678C87.2406 52.07 87.1753 52.4573 87.0446 52.84C86.9139 53.2133 86.7179 53.596 86.4566 53.988C86.2046 54.38 85.8779 54.786 85.4766 55.206L82.5646 58.272V57.894H87.1566C87.3433 57.894 87.4833 57.9407 87.5766 58.034C87.6793 58.1273 87.7306 58.2627 87.7306 58.44C87.7306 58.6173 87.6793 58.7573 87.5766 58.86C87.4833 58.9533 87.3433 59 87.1566 59H81.8786ZM92.9531 59.126C91.8145 59.126 90.9465 58.692 90.3491 57.824C89.7611 56.9467 89.4671 55.6913 89.4671 54.058C89.4671 52.9473 89.5978 52.0187 89.8591 51.272C90.1298 50.5253 90.5218 49.9607 91.0351 49.578C91.5578 49.1953 92.1971 49.004 92.9531 49.004C94.1011 49.004 94.9691 49.4333 95.5571 50.292C96.1451 51.1413 96.4391 52.392 96.4391 54.044C96.4391 55.136 96.3038 56.06 96.0331 56.816C95.7718 57.572 95.3845 58.146 94.8711 58.538C94.3578 58.93 93.7185 59.126 92.9531 59.126ZM92.9531 58.02C93.6998 58.02 94.2551 57.698 94.6191 57.054C94.9831 56.41 95.1651 55.4067 95.1651 54.044C95.1651 52.6813 94.9831 51.6873 94.6191 51.062C94.2645 50.4273 93.7091 50.11 92.9531 50.11C92.2065 50.11 91.6511 50.4273 91.2871 51.062C90.9231 51.6873 90.7411 52.6813 90.7411 54.044C90.7411 55.4067 90.9231 56.41 91.2871 57.054C91.6511 57.698 92.2065 58.02 92.9531 58.02ZM99.2677 59C99.0437 59 98.8757 58.9487 98.7637 58.846C98.661 58.734 98.6097 58.5847 98.6097 58.398C98.6097 58.286 98.6377 58.174 98.6937 58.062C98.7497 57.95 98.8337 57.838 98.9457 57.726L102.012 54.436C102.478 53.9413 102.814 53.484 103.02 53.064C103.225 52.644 103.328 52.2193 103.328 51.79C103.328 51.2487 103.16 50.838 102.824 50.558C102.497 50.2687 102.016 50.124 101.382 50.124C100.99 50.124 100.612 50.1893 100.248 50.32C99.893 50.4413 99.543 50.6327 99.1977 50.894C99.067 50.9873 98.9457 51.0293 98.8337 51.02C98.7217 51.0107 98.6237 50.9687 98.5397 50.894C98.465 50.81 98.409 50.7167 98.3717 50.614C98.3437 50.502 98.3483 50.3853 98.3857 50.264C98.423 50.1427 98.5023 50.04 98.6237 49.956C99.0063 49.6573 99.4497 49.424 99.9537 49.256C100.458 49.088 100.976 49.004 101.508 49.004C102.18 49.004 102.744 49.1113 103.202 49.326C103.668 49.5313 104.023 49.8347 104.266 50.236C104.508 50.628 104.63 51.1087 104.63 51.678C104.63 52.07 104.564 52.4573 104.434 52.84C104.303 53.2133 104.107 53.596 103.846 53.988C103.594 54.38 103.267 54.786 102.866 55.206L99.9537 58.272V57.894H104.546C104.732 57.894 104.872 57.9407 104.966 58.034C105.068 58.1273 105.12 58.2627 105.12 58.44C105.12 58.6173 105.068 58.7573 104.966 58.86C104.872 58.9533 104.732 59 104.546 59H99.2677ZM111.98 59.098C111.775 59.098 111.616 59.042 111.504 58.93C111.392 58.818 111.336 58.6547 111.336 58.44V56.942H107.444C107.239 56.942 107.071 56.8953 106.94 56.802C106.819 56.7087 106.758 56.564 106.758 56.368C106.758 56.256 106.786 56.1393 106.842 56.018C106.898 55.8967 106.996 55.7333 107.136 55.528L111.294 49.466C111.397 49.326 111.504 49.2187 111.616 49.144C111.738 49.0693 111.873 49.032 112.022 49.032C112.19 49.032 112.33 49.088 112.442 49.2C112.564 49.3027 112.624 49.466 112.624 49.69V55.836H113.576C113.782 55.836 113.936 55.8827 114.038 55.976C114.141 56.0693 114.192 56.2047 114.192 56.382C114.192 56.5687 114.141 56.7087 114.038 56.802C113.936 56.8953 113.782 56.942 113.576 56.942H112.624V58.44C112.624 58.6547 112.568 58.818 112.456 58.93C112.344 59.042 112.186 59.098 111.98 59.098ZM111.336 55.836V50.656H111.686L107.906 56.186V55.836H111.336Z" fill="#101018"/>
<path d="M17.677 82.091C17.5037 82.091 17.3693 82.039 17.274 81.935C17.1787 81.831 17.131 81.6923 17.131 81.519V73.316C17.131 73.134 17.1787 72.9953 17.274 72.9C17.378 72.796 17.5167 72.744 17.69 72.744C17.846 72.744 17.9673 72.7743 18.054 72.835C18.1493 72.8957 18.236 72.9997 18.314 73.147L21.798 79.686H21.395L24.879 73.147C24.957 72.9997 25.0393 72.8957 25.126 72.835C25.2127 72.7743 25.334 72.744 25.49 72.744C25.6633 72.744 25.7977 72.796 25.893 72.9C25.9883 72.9953 26.036 73.134 26.036 73.316V81.519C26.036 81.6923 25.9883 81.831 25.893 81.935C25.8063 82.039 25.672 82.091 25.49 82.091C25.308 82.091 25.1693 82.039 25.074 81.935C24.9873 81.831 24.944 81.6923 24.944 81.519V74.512H25.23L22.11 80.349C22.0407 80.4617 21.967 80.5483 21.889 80.609C21.8197 80.661 21.72 80.687 21.59 80.687C21.4687 80.687 21.3647 80.6567 21.278 80.596C21.2 80.5353 21.1307 80.453 21.07 80.349L17.911 74.499H18.223V81.519C18.223 81.6923 18.1753 81.831 18.08 81.935C17.9933 82.039 17.859 82.091 17.677 82.091ZM31.0992 82.117C30.4752 82.117 29.9335 81.9827 29.4742 81.714C29.0148 81.4453 28.6595 81.064 28.4082 80.57C28.1568 80.076 28.0312 79.4953 28.0312 78.828C28.0312 78.3253 28.1005 77.8747 28.2392 77.476C28.3865 77.0687 28.5945 76.722 28.8632 76.436C29.1318 76.15 29.4525 75.9333 29.8252 75.786C30.2065 75.63 30.6312 75.552 31.0992 75.552C31.7232 75.552 32.2648 75.6863 32.7242 75.955C33.1835 76.2237 33.5388 76.605 33.7902 77.099C34.0415 77.5843 34.1672 78.1607 34.1672 78.828C34.1672 79.3307 34.0935 79.7857 33.9462 80.193C33.8075 80.6003 33.6038 80.947 33.3352 81.233C33.0665 81.519 32.7415 81.74 32.3602 81.896C31.9875 82.0433 31.5672 82.117 31.0992 82.117ZM31.0992 81.181C31.4805 81.181 31.8098 81.09 32.0872 80.908C32.3732 80.726 32.5898 80.4617 32.7372 80.115C32.8932 79.7683 32.9712 79.3393 32.9712 78.828C32.9712 78.0653 32.8022 77.4847 32.4642 77.086C32.1262 76.6873 31.6712 76.488 31.0992 76.488C30.7265 76.488 30.3972 76.579 30.1112 76.761C29.8338 76.9343 29.6172 77.1943 29.4612 77.541C29.3052 77.8877 29.2272 78.3167 29.2272 78.828C29.2272 79.5907 29.3962 80.1757 29.7342 80.583C30.0808 80.9817 30.5358 81.181 31.0992 81.181ZM36.5676 82.091C36.3856 82.091 36.2426 82.039 36.1386 81.935C36.0346 81.831 35.9826 81.6793 35.9826 81.48V76.176C35.9826 75.9767 36.0346 75.8293 36.1386 75.734C36.2426 75.63 36.3856 75.578 36.5676 75.578C36.7496 75.578 36.8883 75.63 36.9836 75.734C37.0876 75.8293 37.1396 75.9767 37.1396 76.176V77.242L36.9966 77.047C37.1786 76.553 37.4733 76.1803 37.8806 75.929C38.2966 75.6777 38.7689 75.552 39.2976 75.552C39.8089 75.552 40.2293 75.643 40.5586 75.825C40.8879 76.007 41.1349 76.2843 41.2996 76.657C41.4643 77.0297 41.5466 77.502 41.5466 78.074V81.48C41.5466 81.6793 41.4946 81.831 41.3906 81.935C41.2953 82.039 41.1523 82.091 40.9616 82.091C40.7709 82.091 40.6236 82.039 40.5196 81.935C40.4156 81.831 40.3636 81.6793 40.3636 81.48V78.139C40.3636 77.5757 40.2553 77.164 40.0386 76.904C39.8219 76.644 39.4753 76.514 38.9986 76.514C38.4439 76.514 37.9976 76.6873 37.6596 77.034C37.3303 77.372 37.1656 77.8313 37.1656 78.412V81.48C37.1656 81.8873 36.9663 82.091 36.5676 82.091ZM46.647 82.117C45.9624 82.117 45.373 81.987 44.879 81.727C44.3937 81.4583 44.0167 81.0813 43.748 80.596C43.4794 80.102 43.345 79.5213 43.345 78.854C43.345 78.1953 43.475 77.619 43.735 77.125C44.0037 76.631 44.3677 76.2453 44.827 75.968C45.295 75.6907 45.828 75.552 46.426 75.552C46.8507 75.552 47.232 75.6257 47.57 75.773C47.9167 75.9117 48.2114 76.1153 48.454 76.384C48.6967 76.6527 48.8787 76.982 49 77.372C49.13 77.7533 49.195 78.1867 49.195 78.672C49.195 78.8107 49.1517 78.919 49.065 78.997C48.987 79.0663 48.87 79.101 48.714 79.101H44.268V78.347H48.415L48.194 78.529C48.194 78.0783 48.1247 77.697 47.986 77.385C47.856 77.0643 47.661 76.8217 47.401 76.657C47.1497 76.4923 46.8334 76.41 46.452 76.41C46.036 76.41 45.6807 76.5097 45.386 76.709C45.0914 76.8997 44.866 77.1727 44.71 77.528C44.554 77.8747 44.476 78.2777 44.476 78.737V78.815C44.476 79.595 44.6624 80.1843 45.035 80.583C45.4077 80.9817 45.945 81.181 46.647 81.181C46.9244 81.181 47.206 81.1463 47.492 81.077C47.7867 81.0077 48.0684 80.882 48.337 80.7C48.467 80.622 48.584 80.5873 48.688 80.596C48.8007 80.596 48.8917 80.6307 48.961 80.7C49.0304 80.7607 49.0737 80.8387 49.091 80.934C49.1084 81.0207 49.0954 81.116 49.052 81.22C49.0087 81.324 48.9264 81.415 48.805 81.493C48.519 81.6923 48.1767 81.8483 47.778 81.961C47.388 82.065 47.011 82.117 46.647 82.117ZM52.3335 84.431C52.1948 84.431 52.0778 84.392 51.9825 84.314C51.8958 84.2447 51.8438 84.145 51.8265 84.015C51.8178 83.8937 51.8438 83.7637 51.9045 83.625L52.7885 81.623V82.117L50.3315 76.397C50.2708 76.2497 50.2492 76.1153 50.2665 75.994C50.2838 75.8727 50.3402 75.773 50.4355 75.695C50.5395 75.617 50.6782 75.578 50.8515 75.578C50.9988 75.578 51.1158 75.6127 51.2025 75.682C51.2892 75.7513 51.3715 75.8727 51.4495 76.046L53.4905 81.077H53.1265L55.2065 76.046C55.2758 75.8727 55.3582 75.7513 55.4535 75.682C55.5488 75.6127 55.6788 75.578 55.8435 75.578C55.9908 75.578 56.1035 75.617 56.1815 75.695C56.2682 75.773 56.3202 75.8727 56.3375 75.994C56.3548 76.1153 56.3288 76.2453 56.2595 76.384L52.9835 83.963C52.8968 84.145 52.8058 84.2663 52.7105 84.327C52.6238 84.3963 52.4982 84.431 52.3335 84.431ZM64.742 82.091C64.5686 82.091 64.43 82.0477 64.326 81.961C64.222 81.8743 64.1353 81.7357 64.066 81.545L61.232 73.459C61.154 73.2597 61.1626 73.0907 61.258 72.952C61.362 72.8133 61.531 72.744 61.765 72.744C61.9296 72.744 62.0596 72.783 62.155 72.861C62.2503 72.939 62.3283 73.069 62.389 73.251L65.002 80.921H64.534L67.212 73.277C67.2813 73.095 67.3636 72.9607 67.459 72.874C67.5543 72.7873 67.68 72.744 67.836 72.744C68.0006 72.744 68.1263 72.7873 68.213 72.874C68.3083 72.9607 68.3863 73.0993 68.447 73.29L71.073 80.921H70.657L73.296 73.251C73.3566 73.0777 73.4346 72.952 73.53 72.874C73.6253 72.7873 73.7596 72.744 73.933 72.744C74.1323 72.744 74.2796 72.8133 74.375 72.952C74.4703 73.0907 74.4833 73.2597 74.414 73.459L71.554 81.558C71.4933 81.74 71.411 81.8743 71.307 81.961C71.203 82.0477 71.0643 82.091 70.891 82.091C70.709 82.091 70.566 82.0477 70.462 81.961C70.358 81.8743 70.2713 81.7357 70.202 81.545L67.667 74.265H67.953L65.405 81.558C65.3356 81.74 65.249 81.8743 65.145 81.961C65.0496 82.0477 64.9153 82.091 64.742 82.091ZM77.1945 82.065C77.0125 82.065 76.8695 82.0087 76.7655 81.896C76.6615 81.7833 76.6095 81.6273 76.6095 81.428V76.241C76.6095 76.033 76.6615 75.877 76.7655 75.773C76.8695 75.6603 77.0125 75.604 77.1945 75.604C77.3852 75.604 77.5325 75.6603 77.6365 75.773C77.7405 75.877 77.7925 76.033 77.7925 76.241V81.428C77.7925 81.6273 77.7405 81.7833 77.6365 81.896C77.5412 82.0087 77.3939 82.065 77.1945 82.065ZM77.1945 74.2C76.9605 74.2 76.7742 74.1393 76.6355 74.018C76.5055 73.888 76.4405 73.719 76.4405 73.511C76.4405 73.2857 76.5055 73.1167 76.6355 73.004C76.7742 72.8827 76.9605 72.822 77.1945 72.822C77.4459 72.822 77.6322 72.8827 77.7535 73.004C77.8835 73.1167 77.9485 73.2857 77.9485 73.511C77.9485 73.719 77.8835 73.888 77.7535 74.018C77.6322 74.1393 77.4459 74.2 77.1945 74.2ZM82.6205 82.117C82.1092 82.117 81.6802 82.026 81.3335 81.844C80.9955 81.662 80.7398 81.3977 80.5665 81.051C80.4018 80.7043 80.3195 80.2797 80.3195 79.777V76.579H79.4875C79.3315 76.579 79.2102 76.54 79.1235 76.462C79.0368 76.3753 78.9935 76.2627 78.9935 76.124C78.9935 75.9767 79.0368 75.864 79.1235 75.786C79.2102 75.708 79.3315 75.669 79.4875 75.669H80.3195V74.252C80.3195 74.0527 80.3715 73.9053 80.4755 73.81C80.5795 73.706 80.7268 73.654 80.9175 73.654C81.1082 73.654 81.2512 73.706 81.3465 73.81C81.4505 73.9053 81.5025 74.0527 81.5025 74.252V75.669H83.0755C83.2402 75.669 83.3658 75.708 83.4525 75.786C83.5392 75.864 83.5825 75.9767 83.5825 76.124C83.5825 76.2627 83.5392 76.3753 83.4525 76.462C83.3658 76.54 83.2402 76.579 83.0755 76.579H81.5025V79.673C81.5025 80.1497 81.6022 80.5093 81.8015 80.752C82.0008 80.9947 82.3302 81.116 82.7895 81.116C82.9542 81.116 83.0928 81.103 83.2055 81.077C83.3182 81.0423 83.4178 81.025 83.5045 81.025C83.5825 81.0163 83.6475 81.0423 83.6995 81.103C83.7602 81.1637 83.7905 81.2763 83.7905 81.441C83.7905 81.5623 83.7688 81.675 83.7255 81.779C83.6908 81.8743 83.6172 81.9393 83.5045 81.974C83.4005 82.0087 83.2618 82.039 83.0885 82.065C82.9152 82.0997 82.7592 82.117 82.6205 82.117ZM85.6402 82.091C85.4582 82.091 85.3152 82.039 85.2112 81.935C85.1072 81.831 85.0552 81.6793 85.0552 81.48V73.342C85.0552 73.1427 85.1072 72.9953 85.2112 72.9C85.3152 72.796 85.4582 72.744 85.6402 72.744C85.8309 72.744 85.9782 72.796 86.0822 72.9C86.1862 72.9953 86.2382 73.1427 86.2382 73.342V77.047H86.0692C86.2512 76.553 86.5459 76.1803 86.9532 75.929C87.3692 75.6777 87.8416 75.552 88.3702 75.552C88.8816 75.552 89.3019 75.6473 89.6312 75.838C89.9606 76.02 90.2076 76.2973 90.3722 76.67C90.5369 77.0427 90.6192 77.5107 90.6192 78.074V81.48C90.6192 81.6793 90.5672 81.831 90.4632 81.935C90.3679 82.039 90.2249 82.091 90.0342 82.091C89.8436 82.091 89.6962 82.039 89.5922 81.935C89.4882 81.831 89.4362 81.6793 89.4362 81.48V78.139C89.4362 77.5757 89.3279 77.164 89.1112 76.904C88.8946 76.644 88.5479 76.514 88.0712 76.514C87.5166 76.514 87.0702 76.6873 86.7322 77.034C86.4029 77.372 86.2382 77.8313 86.2382 78.412V81.48C86.2382 81.8873 86.0389 82.091 85.6402 82.091ZM95.2127 82.117C94.658 82.117 94.1684 81.987 93.7437 81.727C93.3277 81.4583 93.0027 81.077 92.7687 80.583C92.5347 80.0803 92.4177 79.4953 92.4177 78.828C92.4177 78.152 92.5304 77.5713 92.7557 77.086C92.9897 76.592 93.3147 76.215 93.7307 75.955C94.1554 75.6863 94.6494 75.552 95.2127 75.552C95.776 75.552 96.2614 75.695 96.6687 75.981C97.076 76.2583 97.349 76.631 97.4877 77.099H97.3447V73.342C97.3447 73.1427 97.3924 72.9953 97.4877 72.9C97.5917 72.796 97.739 72.744 97.9297 72.744C98.1204 72.744 98.2677 72.796 98.3717 72.9C98.4757 72.9953 98.5277 73.1427 98.5277 73.342V81.48C98.5277 81.6793 98.4757 81.831 98.3717 81.935C98.2677 82.039 98.1204 82.091 97.9297 82.091C97.7477 82.091 97.6047 82.039 97.5007 81.935C97.3967 81.831 97.3447 81.6793 97.3447 81.48V80.297L97.4877 80.531C97.3577 81.0163 97.0847 81.402 96.6687 81.688C96.2614 81.974 95.776 82.117 95.2127 82.117ZM95.4857 81.181C95.867 81.181 96.1964 81.09 96.4737 80.908C96.7597 80.726 96.9764 80.4617 97.1237 80.115C97.2797 79.7683 97.3577 79.3393 97.3577 78.828C97.3577 78.0653 97.1887 77.4847 96.8507 77.086C96.5127 76.6873 96.0577 76.488 95.4857 76.488C95.113 76.488 94.7837 76.579 94.4977 76.761C94.2204 76.9343 94.0037 77.1943 93.8477 77.541C93.6917 77.8877 93.6137 78.3167 93.6137 78.828C93.6137 79.5907 93.7827 80.1757 94.1207 80.583C94.4674 80.9817 94.9224 81.181 95.4857 81.181ZM101.336 82.091C101.136 82.091 100.985 82.039 100.881 81.935C100.777 81.831 100.725 81.6793 100.725 81.48V76.176C100.725 75.9767 100.777 75.8293 100.881 75.734C100.985 75.63 101.128 75.578 101.31 75.578C101.492 75.578 101.63 75.63 101.726 75.734C101.83 75.8293 101.882 75.9767 101.882 76.176V77.177H101.752C101.89 76.657 102.15 76.2627 102.532 75.994C102.913 75.7253 103.394 75.5737 103.975 75.539C104.113 75.5303 104.226 75.565 104.313 75.643C104.399 75.7123 104.447 75.8337 104.456 76.007C104.464 76.1717 104.425 76.306 104.339 76.41C104.252 76.5053 104.118 76.5617 103.936 76.579L103.702 76.592C103.13 76.6527 102.688 76.839 102.376 77.151C102.072 77.463 101.921 77.892 101.921 78.438V81.48C101.921 81.6793 101.869 81.831 101.765 81.935C101.669 82.039 101.526 82.091 101.336 82.091ZM107.724 82.117C107.291 82.117 106.896 82.0303 106.541 81.857C106.194 81.6837 105.921 81.4497 105.722 81.155C105.531 80.8603 105.436 80.531 105.436 80.167C105.436 79.699 105.553 79.3307 105.787 79.062C106.021 78.7933 106.415 78.6027 106.97 78.49C107.525 78.3687 108.27 78.308 109.206 78.308H109.817V79.062H109.232C108.565 79.062 108.036 79.0923 107.646 79.153C107.265 79.2137 106.996 79.322 106.84 79.478C106.684 79.6253 106.606 79.8333 106.606 80.102C106.606 80.44 106.723 80.7173 106.957 80.934C107.2 81.1507 107.529 81.259 107.945 81.259C108.274 81.259 108.565 81.181 108.816 81.025C109.067 80.8603 109.267 80.6437 109.414 80.375C109.561 80.0977 109.635 79.7813 109.635 79.426V77.931C109.635 77.4197 109.531 77.0513 109.323 76.826C109.115 76.592 108.764 76.475 108.27 76.475C107.984 76.475 107.689 76.514 107.386 76.592C107.083 76.67 106.766 76.7913 106.437 76.956C106.307 77.0167 106.194 77.0383 106.099 77.021C106.004 76.995 105.926 76.943 105.865 76.865C105.813 76.7783 105.783 76.6873 105.774 76.592C105.774 76.488 105.796 76.3883 105.839 76.293C105.891 76.1977 105.978 76.1283 106.099 76.085C106.48 75.8943 106.857 75.76 107.23 75.682C107.611 75.5953 107.967 75.552 108.296 75.552C108.859 75.552 109.323 75.643 109.687 75.825C110.051 75.9983 110.324 76.2713 110.506 76.644C110.688 77.008 110.779 77.476 110.779 78.048V81.48C110.779 81.6793 110.731 81.831 110.636 81.935C110.541 82.039 110.402 82.091 110.22 82.091C110.047 82.091 109.908 82.039 109.804 81.935C109.709 81.831 109.661 81.6793 109.661 81.48V80.557H109.778C109.709 80.8777 109.579 81.155 109.388 81.389C109.197 81.623 108.959 81.805 108.673 81.935C108.396 82.0563 108.079 82.117 107.724 82.117ZM115.126 82.091C114.962 82.091 114.819 82.052 114.697 81.974C114.576 81.8873 114.481 81.7487 114.411 81.558L112.474 76.397C112.414 76.2323 112.396 76.0893 112.422 75.968C112.448 75.8467 112.509 75.7513 112.604 75.682C112.7 75.6127 112.825 75.578 112.981 75.578C113.129 75.578 113.246 75.6127 113.332 75.682C113.419 75.7513 113.493 75.877 113.553 76.059L115.321 81.051H115.009L116.829 76.033C116.89 75.877 116.968 75.7643 117.063 75.695C117.167 75.617 117.293 75.578 117.44 75.578C117.596 75.578 117.726 75.617 117.83 75.695C117.934 75.7643 118.008 75.877 118.051 76.033L119.845 81.051H119.546L121.34 76.033C121.401 75.8597 121.479 75.7427 121.574 75.682C121.67 75.6127 121.787 75.578 121.925 75.578C122.081 75.578 122.198 75.617 122.276 75.695C122.354 75.773 122.398 75.877 122.406 76.007C122.424 76.1283 122.406 76.2583 122.354 76.397L120.417 81.558C120.357 81.74 120.261 81.8743 120.131 81.961C120.01 82.0477 119.867 82.091 119.702 82.091C119.538 82.091 119.39 82.0477 119.26 81.961C119.139 81.8743 119.044 81.74 118.974 81.558L117.115 76.462H117.713L115.854 81.558C115.785 81.74 115.69 81.8743 115.568 81.961C115.447 82.0477 115.3 82.091 115.126 82.091ZM126.034 82.117C125.601 82.117 125.206 82.0303 124.851 81.857C124.504 81.6837 124.231 81.4497 124.032 81.155C123.841 80.8603 123.746 80.531 123.746 80.167C123.746 79.699 123.863 79.3307 124.097 79.062C124.331 78.7933 124.725 78.6027 125.28 78.49C125.835 78.3687 126.58 78.308 127.516 78.308H128.127V79.062H127.542C126.875 79.062 126.346 79.0923 125.956 79.153C125.575 79.2137 125.306 79.322 125.15 79.478C124.994 79.6253 124.916 79.8333 124.916 80.102C124.916 80.44 125.033 80.7173 125.267 80.934C125.51 81.1507 125.839 81.259 126.255 81.259C126.584 81.259 126.875 81.181 127.126 81.025C127.377 80.8603 127.577 80.6437 127.724 80.375C127.871 80.0977 127.945 79.7813 127.945 79.426V77.931C127.945 77.4197 127.841 77.0513 127.633 76.826C127.425 76.592 127.074 76.475 126.58 76.475C126.294 76.475 125.999 76.514 125.696 76.592C125.393 76.67 125.076 76.7913 124.747 76.956C124.617 77.0167 124.504 77.0383 124.409 77.021C124.314 76.995 124.236 76.943 124.175 76.865C124.123 76.7783 124.093 76.6873 124.084 76.592C124.084 76.488 124.106 76.3883 124.149 76.293C124.201 76.1977 124.288 76.1283 124.409 76.085C124.79 75.8943 125.167 75.76 125.54 75.682C125.921 75.5953 126.277 75.552 126.606 75.552C127.169 75.552 127.633 75.643 127.997 75.825C128.361 75.9983 128.634 76.2713 128.816 76.644C128.998 77.008 129.089 77.476 129.089 78.048V81.48C129.089 81.6793 129.041 81.831 128.946 81.935C128.851 82.039 128.712 82.091 128.53 82.091C128.357 82.091 128.218 82.039 128.114 81.935C128.019 81.831 127.971 81.6793 127.971 81.48V80.557H128.088C128.019 80.8777 127.889 81.155 127.698 81.389C127.507 81.623 127.269 81.805 126.983 81.935C126.706 82.0563 126.389 82.117 126.034 82.117ZM133.24 82.117C132.59 82.117 132.096 81.9263 131.758 81.545C131.42 81.155 131.251 80.596 131.251 79.868V73.342C131.251 73.1427 131.303 72.9953 131.407 72.9C131.511 72.796 131.654 72.744 131.836 72.744C132.026 72.744 132.174 72.796 132.278 72.9C132.382 72.9953 132.434 73.1427 132.434 73.342V79.777C132.434 80.2277 132.525 80.5657 132.707 80.791C132.897 81.0077 133.166 81.116 133.513 81.116C133.591 81.116 133.66 81.116 133.721 81.116C133.781 81.1073 133.842 81.0987 133.903 81.09C133.998 81.0813 134.067 81.1073 134.111 81.168C134.154 81.2287 134.176 81.35 134.176 81.532C134.176 81.6967 134.137 81.8267 134.059 81.922C133.989 82.0087 133.872 82.065 133.708 82.091C133.63 82.0997 133.552 82.104 133.474 82.104C133.396 82.1127 133.318 82.117 133.24 82.117Z" fill="#A0A0A0"/>
<g clip-path="url(#clip0_60_37089)">
<path d="M253.999 61.3333H247.999C247.599 61.3333 247.332 61 247.332 60.6667C247.332 60.3333 247.599 60 247.999 60H253.999C254.399 60 254.665 60.2667 254.665 60.6667C254.665 61.0667 254.399 61.3333 253.999 61.3333Z" fill="#101018"/>
<path d="M253.999 63.9993H247.999C247.599 63.9993 247.332 63.7327 247.332 63.3327C247.332 62.9327 247.599 62.666 247.999 62.666H253.999C254.399 62.666 254.665 62.9327 254.665 63.3327C254.665 63.7327 254.399 63.9993 253.999 63.9993Z" fill="#101018"/>
<path d="M249.332 66.6667H247.999C247.599 66.6667 247.332 66.4 247.332 66C247.332 65.6 247.599 65.3333 247.999 65.3333H249.332C250.465 65.3333 251.332 64.4667 251.332 63.3333C251.332 62.2 250.465 61.3333 249.332 61.3333H247.999C247.599 61.3333 247.332 61.0667 247.332 60.6667C247.332 60.2667 247.599 60 247.999 60H249.332C251.199 60 252.665 61.4667 252.665 63.3333C252.665 65.2 251.199 66.6667 249.332 66.6667Z" fill="#101018"/>
<path d="M251.999 70.6673C251.799 70.6673 251.665 70.6007 251.532 70.4673L247.532 66.4673C247.265 66.2007 247.265 65.8007 247.532 65.534C247.799 65.2673 248.199 65.2673 248.465 65.534L252.465 69.534C252.732 69.8007 252.732 70.2007 252.465 70.4673C252.332 70.6007 252.199 70.6673 251.999 70.6673Z" fill="#101018"/>
</g>
<path d="M261.955 70.104C261.695 70.104 261.492 70.0347 261.344 69.896C261.197 69.7487 261.123 69.5407 261.123 69.272V68.258H257.912C257.644 68.258 257.427 68.2017 257.262 68.089C257.106 67.9763 257.028 67.7987 257.028 67.556C257.028 67.4173 257.063 67.2657 257.132 67.101C257.21 66.9363 257.345 66.7197 257.535 66.451L261.097 61.29C261.219 61.108 261.353 60.9693 261.5 60.874C261.648 60.7787 261.817 60.731 262.007 60.731C262.233 60.731 262.419 60.8003 262.566 60.939C262.714 61.069 262.787 61.277 262.787 61.563V66.88H263.424C263.676 66.88 263.862 66.9407 263.983 67.062C264.113 67.1747 264.178 67.3437 264.178 67.569C264.178 67.7943 264.113 67.9677 263.983 68.089C263.862 68.2017 263.676 68.258 263.424 68.258H262.787V69.272C262.787 69.5407 262.714 69.7487 262.566 69.896C262.419 70.0347 262.215 70.104 261.955 70.104ZM261.123 66.88V62.824H261.5L258.432 67.322V66.88H261.123ZM270.05 70.104C269.79 70.104 269.587 70.0347 269.439 69.896C269.292 69.7487 269.218 69.5407 269.218 69.272V68.258H266.007C265.739 68.258 265.522 68.2017 265.357 68.089C265.201 67.9763 265.123 67.7987 265.123 67.556C265.123 67.4173 265.158 67.2657 265.227 67.101C265.305 66.9363 265.44 66.7197 265.63 66.451L269.192 61.29C269.314 61.108 269.448 60.9693 269.595 60.874C269.743 60.7787 269.912 60.731 270.102 60.731C270.328 60.731 270.514 60.8003 270.661 60.939C270.809 61.069 270.882 61.277 270.882 61.563V66.88H271.519C271.771 66.88 271.957 66.9407 272.078 67.062C272.208 67.1747 272.273 67.3437 272.273 67.569C272.273 67.7943 272.208 67.9677 272.078 68.089C271.957 68.2017 271.771 68.258 271.519 68.258H270.882V69.272C270.882 69.5407 270.809 69.7487 270.661 69.896C270.514 70.0347 270.31 70.104 270.05 70.104ZM269.218 66.88V62.824H269.595L266.527 67.322V66.88H269.218ZM274.609 71.391C274.497 71.5297 274.375 71.6077 274.245 71.625C274.124 71.651 274.016 71.6293 273.92 71.56C273.825 71.4907 273.773 71.391 273.764 71.261C273.756 71.1397 273.812 71.0053 273.933 70.858C274.107 70.6413 274.224 70.4247 274.284 70.208C274.345 69.9913 274.375 69.7963 274.375 69.623L274.44 70.065C274.137 70.065 273.89 69.9783 273.699 69.805C273.517 69.623 273.426 69.3847 273.426 69.09C273.426 68.8127 273.513 68.5873 273.686 68.414C273.86 68.232 274.094 68.141 274.388 68.141C274.692 68.141 274.93 68.245 275.103 68.453C275.277 68.6523 275.363 68.9427 275.363 69.324C275.363 69.532 275.342 69.7487 275.298 69.974C275.264 70.1907 275.19 70.416 275.077 70.65C274.973 70.8927 274.817 71.1397 274.609 71.391ZM280.201 70.13C279.117 70.13 278.29 69.7227 277.718 68.908C277.146 68.0847 276.86 66.9147 276.86 65.398C276.86 64.3753 276.985 63.5173 277.237 62.824C277.497 62.122 277.874 61.5933 278.368 61.238C278.87 60.8827 279.481 60.705 280.201 60.705C281.293 60.705 282.12 61.1037 282.684 61.901C283.256 62.6983 283.542 63.8597 283.542 65.385C283.542 66.399 283.412 67.2613 283.152 67.972C282.9 68.674 282.528 69.2113 282.034 69.584C281.54 69.948 280.929 70.13 280.201 70.13ZM280.201 68.765C280.79 68.765 281.223 68.492 281.501 67.946C281.787 67.4 281.93 66.5463 281.93 65.385C281.93 64.2237 281.787 63.383 281.501 62.863C281.223 62.3343 280.79 62.07 280.201 62.07C279.62 62.07 279.187 62.3343 278.901 62.863C278.615 63.383 278.472 64.2237 278.472 65.385C278.472 66.5463 278.615 67.4 278.901 67.946C279.187 68.492 279.62 68.765 280.201 68.765ZM288.296 70.13C287.212 70.13 286.385 69.7227 285.813 68.908C285.241 68.0847 284.955 66.9147 284.955 65.398C284.955 64.3753 285.08 63.5173 285.332 62.824C285.592 62.122 285.969 61.5933 286.463 61.238C286.965 60.8827 287.576 60.705 288.296 60.705C289.388 60.705 290.215 61.1037 290.779 61.901C291.351 62.6983 291.637 63.8597 291.637 65.385C291.637 66.399 291.507 67.2613 291.247 67.972C290.995 68.674 290.623 69.2113 290.129 69.584C289.635 69.948 289.024 70.13 288.296 70.13ZM288.296 68.765C288.885 68.765 289.318 68.492 289.596 67.946C289.882 67.4 290.025 66.5463 290.025 65.385C290.025 64.2237 289.882 63.383 289.596 62.863C289.318 62.3343 288.885 62.07 288.296 62.07C287.715 62.07 287.282 62.3343 286.996 62.863C286.71 63.383 286.567 64.2237 286.567 65.385C286.567 66.5463 286.71 67.4 286.996 67.946C287.282 68.492 287.715 68.765 288.296 68.765ZM296.391 70.13C295.307 70.13 294.48 69.7227 293.908 68.908C293.336 68.0847 293.05 66.9147 293.05 65.398C293.05 64.3753 293.175 63.5173 293.427 62.824C293.687 62.122 294.064 61.5933 294.558 61.238C295.06 60.8827 295.671 60.705 296.391 60.705C297.483 60.705 298.31 61.1037 298.874 61.901C299.446 62.6983 299.732 63.8597 299.732 65.385C299.732 66.399 299.602 67.2613 299.342 67.972C299.09 68.674 298.718 69.2113 298.224 69.584C297.73 69.948 297.119 70.13 296.391 70.13ZM296.391 68.765C296.98 68.765 297.413 68.492 297.691 67.946C297.977 67.4 298.12 66.5463 298.12 65.385C298.12 64.2237 297.977 63.383 297.691 62.863C297.413 62.3343 296.98 62.07 296.391 62.07C295.81 62.07 295.377 62.3343 295.091 62.863C294.805 63.383 294.662 64.2237 294.662 65.385C294.662 66.5463 294.805 67.4 295.091 67.946C295.377 68.492 295.81 68.765 296.391 68.765ZM302.211 70.065C301.916 70.065 301.678 69.974 301.496 69.792C301.322 69.61 301.236 69.376 301.236 69.09C301.236 68.8127 301.322 68.5873 301.496 68.414C301.678 68.232 301.916 68.141 302.211 68.141C302.514 68.141 302.748 68.232 302.913 68.414C303.086 68.5873 303.173 68.8127 303.173 69.09C303.173 69.376 303.086 69.61 302.913 69.792C302.748 69.974 302.514 70.065 302.211 70.065ZM308.01 70.13C306.927 70.13 306.099 69.7227 305.527 68.908C304.955 68.0847 304.669 66.9147 304.669 65.398C304.669 64.3753 304.795 63.5173 305.046 62.824C305.306 62.122 305.683 61.5933 306.177 61.238C306.68 60.8827 307.291 60.705 308.01 60.705C309.102 60.705 309.93 61.1037 310.493 61.901C311.065 62.6983 311.351 63.8597 311.351 65.385C311.351 66.399 311.221 67.2613 310.961 67.972C310.71 68.674 310.337 69.2113 309.843 69.584C309.349 69.948 308.738 70.13 308.01 70.13ZM308.01 68.765C308.599 68.765 309.033 68.492 309.31 67.946C309.596 67.4 309.739 66.5463 309.739 65.385C309.739 64.2237 309.596 63.383 309.31 62.863C309.033 62.3343 308.599 62.07 308.01 62.07C307.429 62.07 306.996 62.3343 306.71 62.863C306.424 63.383 306.281 64.2237 306.281 65.385C306.281 66.5463 306.424 67.4 306.71 67.946C306.996 68.492 307.429 68.765 308.01 68.765ZM316.105 70.13C315.022 70.13 314.194 69.7227 313.622 68.908C313.05 68.0847 312.764 66.9147 312.764 65.398C312.764 64.3753 312.89 63.5173 313.141 62.824C313.401 62.122 313.778 61.5933 314.272 61.238C314.775 60.8827 315.386 60.705 316.105 60.705C317.197 60.705 318.025 61.1037 318.588 61.901C319.16 62.6983 319.446 63.8597 319.446 65.385C319.446 66.399 319.316 67.2613 319.056 67.972C318.805 68.674 318.432 69.2113 317.938 69.584C317.444 69.948 316.833 70.13 316.105 70.13ZM316.105 68.765C316.694 68.765 317.128 68.492 317.405 67.946C317.691 67.4 317.834 66.5463 317.834 65.385C317.834 64.2237 317.691 63.383 317.405 62.863C317.128 62.3343 316.694 62.07 316.105 62.07C315.524 62.07 315.091 62.3343 314.805 62.863C314.519 63.383 314.376 64.2237 314.376 65.385C314.376 66.5463 314.519 67.4 314.805 67.946C315.091 68.492 315.524 68.765 316.105 68.765Z" fill="#101018"/>
<path d="M334 70L338 66L334 62" stroke="#101018" stroke-width="0.8" stroke-linejoin="round"/>
<defs>
<clipPath id="clip0_60_37089">
<rect width="10" height="16" fill="white" transform="translate(246 58)"/>
</clipPath>
</defs>
</svg>
