<svg width="271" height="157" viewBox="0 0 271 157" fill="none" xmlns="http://www.w3.org/2000/svg">
<rect width="271" height="156.155" rx="6.43625" fill="white"/>
<path d="M20.8592 32.9226C20.683 32.9226 20.542 32.883 20.4362 32.8036C20.3305 32.7243 20.2688 32.6186 20.2511 32.4864C20.2335 32.3542 20.26 32.2044 20.3305 32.0369L23.913 23.9994C24.0011 23.7879 24.1112 23.6381 24.2434 23.55C24.3845 23.4619 24.5387 23.4178 24.7061 23.4178C24.8648 23.4178 25.0102 23.4619 25.1424 23.55C25.2834 23.6381 25.3979 23.7879 25.4861 23.9994L29.0686 32.0369C29.1479 32.2044 29.1787 32.3586 29.1611 32.4996C29.1435 32.6318 29.0862 32.7375 28.9892 32.8169C28.8923 32.8874 28.7557 32.9226 28.5794 32.9226C28.3856 32.9226 28.2313 32.8741 28.1168 32.7772C28.0022 32.6803 27.9008 32.5304 27.8127 32.3277L26.8873 30.1862L27.5087 30.5563H21.8771L22.4852 30.1862L21.5731 32.3277C21.485 32.5392 21.388 32.6935 21.2823 32.7904C21.1765 32.8785 21.0355 32.9226 20.8592 32.9226ZM24.6797 25.0306L22.6835 29.7632L22.3531 29.4459H27.0195L26.7155 29.7632L24.7061 25.0306H24.6797ZM30.9752 32.9226C30.7637 32.9226 30.6006 32.8653 30.4861 32.7508C30.3715 32.6274 30.3142 32.4599 30.3142 32.2484V26.9606C30.3142 26.7403 30.3715 26.5728 30.4861 26.4583C30.6006 26.3437 30.7593 26.2864 30.962 26.2864C31.1735 26.2864 31.3321 26.3437 31.4379 26.4583C31.5524 26.5728 31.6097 26.7403 31.6097 26.9606V28.0446L31.4643 27.7538C31.6406 27.2867 31.9138 26.921 32.2839 26.6566C32.6541 26.3922 33.0991 26.26 33.6191 26.26C34.1567 26.26 34.5929 26.3878 34.9278 26.6433C35.2627 26.8989 35.4919 27.2911 35.6152 27.8199H35.4302C35.5976 27.3352 35.884 26.9562 36.2894 26.683C36.6948 26.401 37.1663 26.26 37.7039 26.26C38.1974 26.26 38.6028 26.3569 38.9201 26.5508C39.2374 26.7359 39.4753 27.0223 39.634 27.4101C39.7926 27.789 39.8719 28.2693 39.8719 28.851V32.2484C39.8719 32.4599 39.8102 32.6274 39.6868 32.7508C39.5723 32.8653 39.4092 32.9226 39.1977 32.9226C38.9862 32.9226 38.8232 32.8653 38.7086 32.7508C38.594 32.6274 38.5368 32.4599 38.5368 32.2484V28.9171C38.5368 28.3707 38.4398 27.9697 38.2459 27.7141C38.0608 27.4585 37.7524 27.3308 37.3206 27.3308C36.8358 27.3308 36.4525 27.4982 36.1705 27.8331C35.8884 28.168 35.7474 28.6307 35.7474 29.2212V32.2484C35.7474 32.4599 35.6901 32.6274 35.5756 32.7508C35.461 32.8653 35.298 32.9226 35.0865 32.9226C34.8749 32.9226 34.7075 32.8653 34.5841 32.7508C34.4695 32.6274 34.4123 32.4599 34.4123 32.2484V28.9171C34.4123 28.3707 34.3197 27.9697 34.1347 27.7141C33.9496 27.4585 33.6411 27.3308 33.2093 27.3308C32.7246 27.3308 32.3412 27.4982 32.0592 27.8331C31.786 28.168 31.6494 28.6307 31.6494 29.2212V32.2484C31.6494 32.6979 31.4247 32.9226 30.9752 32.9226ZM42.2 32.9226C41.9797 32.9226 41.8122 32.8653 41.6977 32.7508C41.5831 32.6274 41.5258 32.4599 41.5258 32.2484V26.9606C41.5258 26.7403 41.5831 26.5728 41.6977 26.4583C41.8122 26.3437 41.9709 26.2864 42.1736 26.2864C42.3851 26.2864 42.5437 26.3437 42.6495 26.4583C42.7641 26.5728 42.8213 26.7403 42.8213 26.9606V27.9256H42.6891C42.8302 27.3969 43.0901 26.9959 43.4691 26.7227C43.8481 26.4495 44.3328 26.2908 44.9232 26.2468C45.0819 26.2379 45.2053 26.2776 45.2934 26.3657C45.3903 26.4539 45.4432 26.5905 45.452 26.7755C45.4696 26.9606 45.43 27.1104 45.333 27.225C45.2361 27.3308 45.0863 27.3925 44.8836 27.4101L44.6324 27.4365C44.0596 27.4894 43.6233 27.6701 43.3237 27.9785C43.024 28.287 42.8742 28.71 42.8742 29.2476V32.2484C42.8742 32.4599 42.8169 32.6274 42.7024 32.7508C42.5966 32.8653 42.4292 32.9226 42.2 32.9226ZM48.5447 32.9491C48.0247 32.9491 47.5885 32.8521 47.236 32.6582C46.8922 32.4643 46.6323 32.1779 46.456 31.799C46.2886 31.4112 46.2048 30.9265 46.2048 30.3448V26.9606C46.2048 26.7315 46.2621 26.564 46.3767 26.4583C46.4913 26.3437 46.6543 26.2864 46.8658 26.2864C47.0773 26.2864 47.2404 26.3437 47.3549 26.4583C47.4783 26.564 47.54 26.7315 47.54 26.9606V30.358C47.54 30.878 47.6458 31.2614 47.8573 31.5081C48.0688 31.7549 48.4037 31.8783 48.862 31.8783C49.3643 31.8783 49.7697 31.7108 50.0781 31.3759C50.3954 31.0322 50.5541 30.5828 50.5541 30.0275V26.9606C50.5541 26.7315 50.6113 26.564 50.7259 26.4583C50.8405 26.3437 51.0079 26.2864 51.2282 26.2864C51.4398 26.2864 51.6028 26.3437 51.7174 26.4583C51.8319 26.564 51.8892 26.7315 51.8892 26.9606V32.2484C51.8892 32.6979 51.6733 32.9226 51.2415 32.9226C51.0388 32.9226 50.8801 32.8653 50.7656 32.7508C50.651 32.6274 50.5937 32.4599 50.5937 32.2484V31.1248L50.7656 31.4156C50.5893 31.9091 50.3073 32.2881 49.9195 32.5525C49.5317 32.8169 49.0735 32.9491 48.5447 32.9491ZM56.3077 32.9491C55.7789 32.9491 55.3338 32.8565 54.9725 32.6714C54.6112 32.4864 54.3424 32.2132 54.1661 31.8518C53.9898 31.4905 53.9017 31.0499 53.9017 30.5299V27.4101H53.1085C52.9323 27.4101 52.7957 27.366 52.6987 27.2779C52.6018 27.1809 52.5533 27.0532 52.5533 26.8945C52.5533 26.7271 52.6018 26.5993 52.6987 26.5112C52.7957 26.423 52.9323 26.379 53.1085 26.379H53.9017V25.0173C53.9017 24.797 53.959 24.6296 54.0736 24.515C54.1969 24.4004 54.3644 24.3432 54.5759 24.3432C54.7874 24.3432 54.9505 24.4004 55.065 24.515C55.1796 24.6296 55.2369 24.797 55.2369 25.0173V26.379H56.7836C56.9598 26.379 57.0964 26.423 57.1934 26.5112C57.2903 26.5993 57.3388 26.7271 57.3388 26.8945C57.3388 27.0532 57.2903 27.1809 57.1934 27.2779C57.0964 27.366 56.9598 27.4101 56.7836 27.4101H55.2369V30.4241C55.2369 30.8912 55.3338 31.2437 55.5277 31.4817C55.7304 31.7196 56.0565 31.8386 56.5059 31.8386C56.6646 31.8386 56.8012 31.8254 56.9158 31.799C57.0391 31.7637 57.1405 31.7417 57.2198 31.7329C57.3167 31.7329 57.3961 31.7681 57.4578 31.8386C57.5194 31.9003 57.5503 32.0237 57.5503 32.2088C57.5503 32.341 57.5239 32.4643 57.471 32.5789C57.4269 32.6935 57.3432 32.7684 57.2198 32.8036C57.114 32.8389 56.9686 32.8697 56.7836 32.8962C56.6073 32.9314 56.4487 32.9491 56.3077 32.9491ZM60.2356 32.9491C59.7862 32.9491 59.3808 32.8609 59.0194 32.6847C58.6669 32.5084 58.3893 32.2705 58.1866 31.9708C57.9839 31.6712 57.8826 31.3319 57.8826 30.9529C57.8826 30.477 58.0015 30.1025 58.2395 29.8292C58.4862 29.5472 58.8872 29.3489 59.4425 29.2344C60.0065 29.111 60.7644 29.0493 61.7162 29.0493H62.3375V29.8689H61.7294C61.0949 29.8689 60.5926 29.8998 60.2224 29.9614C59.8523 30.0231 59.5879 30.1289 59.4292 30.2787C59.2794 30.4197 59.2045 30.618 59.2045 30.8736C59.2045 31.2085 59.3191 31.4817 59.5482 31.6932C59.7774 31.8959 60.0946 31.9972 60.5 31.9972C60.8261 31.9972 61.1125 31.9223 61.3593 31.7725C61.6061 31.6139 61.7999 31.4024 61.9409 31.138C62.0908 30.8736 62.1657 30.5695 62.1657 30.2258V28.7056C62.1657 28.2032 62.0599 27.8419 61.8484 27.6216C61.6369 27.4013 61.2888 27.2911 60.8041 27.2911C60.5221 27.2911 60.2268 27.3264 59.9184 27.3969C59.6187 27.4674 59.3059 27.5863 58.9798 27.7538C58.83 27.8243 58.7022 27.8463 58.5964 27.8199C58.4907 27.7934 58.4069 27.7362 58.3452 27.648C58.2835 27.5511 58.2483 27.4497 58.2395 27.344C58.2395 27.2294 58.2659 27.1192 58.3188 27.0135C58.3805 26.9077 58.4818 26.8284 58.6228 26.7755C59.0106 26.5905 59.394 26.4583 59.7729 26.379C60.1519 26.2996 60.5088 26.26 60.8437 26.26C61.4342 26.26 61.9189 26.3525 62.2979 26.5376C62.6856 26.7227 62.9721 27.0047 63.1571 27.3836C63.3422 27.7626 63.4347 28.2517 63.4347 28.851V32.2484C63.4347 32.4599 63.3819 32.6274 63.2761 32.7508C63.1704 32.8653 63.0161 32.9226 62.8134 32.9226C62.6195 32.9226 62.4653 32.8653 62.3507 32.7508C62.2362 32.6274 62.1789 32.4599 62.1789 32.2484V31.3892H62.2979C62.2274 31.7152 62.0952 31.9972 61.9013 32.2352C61.7162 32.4643 61.4827 32.6406 61.2007 32.764C60.9186 32.8874 60.597 32.9491 60.2356 32.9491ZM65.7483 32.9226C65.5368 32.9226 65.3737 32.8653 65.2592 32.7508C65.1446 32.6274 65.0873 32.4599 65.0873 32.2484V26.9606C65.0873 26.7403 65.1446 26.5728 65.2592 26.4583C65.3737 26.3437 65.5324 26.2864 65.7351 26.2864C65.9466 26.2864 66.1052 26.3437 66.211 26.4583C66.3255 26.5728 66.3828 26.7403 66.3828 26.9606V28.0446L66.2374 27.7538C66.4137 27.2867 66.6869 26.921 67.057 26.6566C67.4272 26.3922 67.8722 26.26 68.3922 26.26C68.9298 26.26 69.366 26.3878 69.7009 26.6433C70.0358 26.8989 70.265 27.2911 70.3883 27.8199H70.2033C70.3707 27.3352 70.6571 26.9562 71.0625 26.683C71.4679 26.401 71.9394 26.26 72.477 26.26C72.9705 26.26 73.3759 26.3569 73.6932 26.5508C74.0105 26.7359 74.2484 27.0223 74.4071 27.4101C74.5657 27.789 74.645 28.2693 74.645 28.851V32.2484C74.645 32.4599 74.5833 32.6274 74.4599 32.7508C74.3454 32.8653 74.1823 32.9226 73.9708 32.9226C73.7593 32.9226 73.5963 32.8653 73.4817 32.7508C73.3671 32.6274 73.3098 32.4599 73.3098 32.2484V28.9171C73.3098 28.3707 73.2129 27.9697 73.019 27.7141C72.8339 27.4585 72.5255 27.3308 72.0937 27.3308C71.6089 27.3308 71.2256 27.4982 70.9436 27.8331C70.6615 28.168 70.5205 28.6307 70.5205 29.2212V32.2484C70.5205 32.4599 70.4632 32.6274 70.3487 32.7508C70.2341 32.8653 70.0711 32.9226 69.8596 32.9226C69.648 32.9226 69.4806 32.8653 69.3572 32.7508C69.2426 32.6274 69.1854 32.4599 69.1854 32.2484V28.9171C69.1854 28.3707 69.0928 27.9697 68.9078 27.7141C68.7227 27.4585 68.4142 27.3308 67.9824 27.3308C67.4977 27.3308 67.1143 27.4982 66.8323 27.8331C66.5591 28.168 66.4225 28.6307 66.4225 29.2212V32.2484C66.4225 32.6979 66.1978 32.9226 65.7483 32.9226ZM79.6642 32.9226C79.488 32.9226 79.347 32.883 79.2412 32.8036C79.1355 32.7243 79.0738 32.6186 79.0561 32.4864C79.0385 32.3542 79.065 32.2044 79.1355 32.0369L82.718 23.9994C82.8061 23.7879 82.9162 23.6381 83.0484 23.55C83.1894 23.4619 83.3437 23.4178 83.5111 23.4178C83.6698 23.4178 83.8152 23.4619 83.9474 23.55C84.0884 23.6381 84.2029 23.7879 84.2911 23.9994L87.8736 32.0369C87.9529 32.2044 87.9837 32.3586 87.9661 32.4996C87.9485 32.6318 87.8912 32.7375 87.7942 32.8169C87.6973 32.8874 87.5607 32.9226 87.3844 32.9226C87.1906 32.9226 87.0363 32.8741 86.9218 32.7772C86.8072 32.6803 86.7058 32.5304 86.6177 32.3277L85.6923 30.1862L86.3137 30.5563H80.6821L81.2902 30.1862L80.3781 32.3277C80.29 32.5392 80.193 32.6935 80.0873 32.7904C79.9815 32.8785 79.8405 32.9226 79.6642 32.9226ZM83.4847 25.0306L81.4885 29.7632L81.158 29.4459H85.8245L85.5205 29.7632L83.5111 25.0306H83.4847ZM91.8704 32.9491C91.2094 32.9491 90.6366 32.8125 90.1519 32.5392C89.676 32.2572 89.3058 31.8651 89.0414 31.3627C88.7771 30.8516 88.6449 30.2523 88.6449 29.5649C88.6449 29.0537 88.7198 28.5954 88.8696 28.19C89.0194 27.7758 89.2309 27.4277 89.5041 27.1457C89.7861 26.8637 90.1254 26.6478 90.522 26.4979C90.9274 26.3393 91.3769 26.26 91.8704 26.26C92.1789 26.26 92.5005 26.3085 92.8354 26.4054C93.1792 26.4935 93.4964 26.6433 93.7872 26.8549C93.9018 26.9254 93.9723 27.0135 93.9988 27.1192C94.034 27.2162 94.0384 27.3175 94.012 27.4233C93.9944 27.5291 93.9459 27.6216 93.8666 27.7009C93.7961 27.7714 93.7079 27.8155 93.6022 27.8331C93.4964 27.8419 93.3818 27.8111 93.2585 27.7406C93.047 27.5907 92.831 27.485 92.6107 27.4233C92.3904 27.3528 92.1789 27.3175 91.9762 27.3175C91.6589 27.3175 91.3769 27.3704 91.1301 27.4762C90.8922 27.5731 90.6895 27.7185 90.522 27.9124C90.3546 28.0975 90.2268 28.331 90.1387 28.6131C90.0593 28.8951 90.0197 29.2167 90.0197 29.5781C90.0197 30.3007 90.1871 30.8692 90.522 31.2834C90.8657 31.6888 91.3505 31.8915 91.9762 31.8915C92.1789 31.8915 92.3904 31.8606 92.6107 31.799C92.831 31.7373 93.047 31.6315 93.2585 31.4817C93.3818 31.4112 93.4964 31.3847 93.6022 31.4024C93.7079 31.42 93.7917 31.4685 93.8533 31.5478C93.9238 31.6183 93.9679 31.7064 93.9855 31.8122C94.012 31.9091 94.0076 32.0105 93.9723 32.1162C93.9371 32.222 93.8622 32.3101 93.7476 32.3806C93.4656 32.5833 93.1571 32.7287 92.8222 32.8169C92.4961 32.905 92.1789 32.9491 91.8704 32.9491ZM97.6993 32.9491C97.0383 32.9491 96.4655 32.8125 95.9808 32.5392C95.5049 32.2572 95.1347 31.8651 94.8703 31.3627C94.6059 30.8516 94.4738 30.2523 94.4738 29.5649C94.4738 29.0537 94.5487 28.5954 94.6985 28.19C94.8483 27.7758 95.0598 27.4277 95.333 27.1457C95.615 26.8637 95.9543 26.6478 96.3509 26.4979C96.7563 26.3393 97.2058 26.26 97.6993 26.26C98.0078 26.26 98.3294 26.3085 98.6643 26.4054C99.008 26.4935 99.3253 26.6433 99.6161 26.8549C99.7307 26.9254 99.8012 27.0135 99.8277 27.1192C99.8629 27.2162 99.8673 27.3175 99.8409 27.4233C99.8232 27.5291 99.7748 27.6216 99.6955 27.7009C99.625 27.7714 99.5368 27.8155 99.4311 27.8331C99.3253 27.8419 99.2107 27.8111 99.0874 27.7406C98.8759 27.5907 98.6599 27.485 98.4396 27.4233C98.2193 27.3528 98.0078 27.3175 97.8051 27.3175C97.4878 27.3175 97.2058 27.3704 96.959 27.4762C96.7211 27.5731 96.5184 27.7185 96.3509 27.9124C96.1835 28.0975 96.0557 28.331 95.9676 28.6131C95.8882 28.8951 95.8486 29.2167 95.8486 29.5781C95.8486 30.3007 96.016 30.8692 96.3509 31.2834C96.6946 31.6888 97.1793 31.8915 97.8051 31.8915C98.0078 31.8915 98.2193 31.8606 98.4396 31.799C98.6599 31.7373 98.8759 31.6315 99.0874 31.4817C99.2107 31.4112 99.3253 31.3847 99.4311 31.4024C99.5368 31.42 99.6205 31.4685 99.6822 31.5478C99.7527 31.6183 99.7968 31.7064 99.8144 31.8122C99.8409 31.9091 99.8365 32.0105 99.8012 32.1162C99.766 32.222 99.6911 32.3101 99.5765 32.3806C99.2945 32.5833 98.986 32.7287 98.6511 32.8169C98.325 32.905 98.0078 32.9491 97.6993 32.9491ZM103.489 32.9491C102.836 32.9491 102.272 32.8125 101.796 32.5392C101.329 32.266 100.964 31.8783 100.699 31.3759C100.435 30.8736 100.303 30.2831 100.303 29.6045C100.303 29.0845 100.378 28.6219 100.527 28.2165C100.677 27.8111 100.889 27.463 101.162 27.1721C101.444 26.8725 101.779 26.6478 102.167 26.4979C102.563 26.3393 103.004 26.26 103.489 26.26C104.132 26.26 104.687 26.3966 105.154 26.6698C105.63 26.943 106 27.3308 106.265 27.8331C106.529 28.3266 106.661 28.9171 106.661 29.6045C106.661 30.1157 106.586 30.5784 106.437 30.9926C106.287 31.4068 106.071 31.7593 105.789 32.0501C105.516 32.341 105.181 32.5657 104.784 32.7243C104.396 32.8741 103.964 32.9491 103.489 32.9491ZM103.489 31.9179C103.85 31.9179 104.167 31.8298 104.44 31.6535C104.714 31.4773 104.925 31.2173 105.075 30.8736C105.234 30.5299 105.313 30.1069 105.313 29.6045C105.313 28.8466 105.145 28.2738 104.811 27.886C104.476 27.4982 104.035 27.3043 103.489 27.3043C103.118 27.3043 102.797 27.3925 102.524 27.5687C102.25 27.7362 102.034 27.9917 101.876 28.3354C101.726 28.6792 101.651 29.1022 101.651 29.6045C101.651 30.3536 101.818 30.9265 102.153 31.3231C102.488 31.7196 102.933 31.9179 103.489 31.9179ZM110.248 32.9491C109.728 32.9491 109.292 32.8521 108.939 32.6582C108.596 32.4643 108.336 32.1779 108.159 31.799C107.992 31.4112 107.908 30.9265 107.908 30.3448V26.9606C107.908 26.7315 107.966 26.564 108.08 26.4583C108.195 26.3437 108.358 26.2864 108.569 26.2864C108.781 26.2864 108.944 26.3437 109.058 26.4583C109.182 26.564 109.243 26.7315 109.243 26.9606V30.358C109.243 30.878 109.349 31.2614 109.561 31.5081C109.772 31.7549 110.107 31.8783 110.565 31.8783C111.068 31.8783 111.473 31.7108 111.782 31.3759C112.099 31.0322 112.257 30.5828 112.257 30.0275V26.9606C112.257 26.7315 112.315 26.564 112.429 26.4583C112.544 26.3437 112.711 26.2864 112.932 26.2864C113.143 26.2864 113.306 26.3437 113.421 26.4583C113.535 26.564 113.593 26.7315 113.593 26.9606V32.2484C113.593 32.6979 113.377 32.9226 112.945 32.9226C112.742 32.9226 112.584 32.8653 112.469 32.7508C112.354 32.6274 112.297 32.4599 112.297 32.2484V31.1248L112.469 31.4156C112.293 31.9091 112.011 32.2881 111.623 32.5525C111.235 32.8169 110.777 32.9491 110.248 32.9491ZM115.922 32.9226C115.711 32.9226 115.548 32.8653 115.433 32.7508C115.319 32.6274 115.261 32.4599 115.261 32.2484V26.9606C115.261 26.7403 115.319 26.5728 115.433 26.4583C115.548 26.3437 115.706 26.2864 115.909 26.2864C116.121 26.2864 116.279 26.3437 116.385 26.4583C116.5 26.5728 116.557 26.7403 116.557 26.9606V27.9917L116.411 27.7538C116.605 27.2603 116.909 26.8901 117.324 26.6433C117.738 26.3878 118.214 26.26 118.751 26.26C119.262 26.26 119.686 26.3569 120.02 26.5508C120.364 26.7359 120.62 27.0223 120.787 27.4101C120.955 27.789 121.038 28.2693 121.038 28.851V32.2484C121.038 32.4599 120.981 32.6274 120.866 32.7508C120.752 32.8653 120.589 32.9226 120.377 32.9226C120.157 32.9226 119.99 32.8653 119.875 32.7508C119.76 32.6274 119.703 32.4599 119.703 32.2484V28.9303C119.703 28.3751 119.593 27.9697 119.373 27.7141C119.161 27.4585 118.826 27.3308 118.368 27.3308C117.83 27.3308 117.399 27.4982 117.072 27.8331C116.755 28.168 116.597 28.6175 116.597 29.1815V32.2484C116.597 32.6979 116.372 32.9226 115.922 32.9226ZM125.415 32.9491C124.886 32.9491 124.441 32.8565 124.08 32.6714C123.718 32.4864 123.45 32.2132 123.273 31.8518C123.097 31.4905 123.009 31.0499 123.009 30.5299V27.4101H122.216C122.04 27.4101 121.903 27.366 121.806 27.2779C121.709 27.1809 121.661 27.0532 121.661 26.8945C121.661 26.7271 121.709 26.5993 121.806 26.5112C121.903 26.423 122.04 26.379 122.216 26.379H123.009V25.0173C123.009 24.797 123.066 24.6296 123.181 24.515C123.304 24.4004 123.472 24.3432 123.683 24.3432C123.895 24.3432 124.058 24.4004 124.172 24.515C124.287 24.6296 124.344 24.797 124.344 25.0173V26.379H125.891C126.067 26.379 126.204 26.423 126.301 26.5112C126.398 26.5993 126.446 26.7271 126.446 26.8945C126.446 27.0532 126.398 27.1809 126.301 27.2779C126.204 27.366 126.067 27.4101 125.891 27.4101H124.344V30.4241C124.344 30.8912 124.441 31.2437 124.635 31.4817C124.838 31.7196 125.164 31.8386 125.613 31.8386C125.772 31.8386 125.908 31.8254 126.023 31.799C126.146 31.7637 126.248 31.7417 126.327 31.7329C126.424 31.7329 126.503 31.7681 126.565 31.8386C126.627 31.9003 126.658 32.0237 126.658 32.2088C126.658 32.341 126.631 32.4643 126.578 32.5789C126.534 32.6935 126.45 32.7684 126.327 32.8036C126.221 32.8389 126.076 32.8697 125.891 32.8962C125.715 32.9314 125.556 32.9491 125.415 32.9491Z" fill="#3A643B"/>
<g clip-path="url(#clip0_60_37074)">
<path d="M29.7427 49.0274H22.3067C21.811 49.0274 21.4805 48.6143 21.4805 48.2012C21.4805 47.7881 21.811 47.375 22.3067 47.375H29.7427C30.2384 47.375 30.5689 47.7055 30.5689 48.2012C30.5689 48.697 30.2384 49.0274 29.7427 49.0274Z" fill="#3A643B"/>
<path d="M29.7427 52.3321H22.3067C21.811 52.3321 21.4805 52.0016 21.4805 51.5059C21.4805 51.0102 21.811 50.6797 22.3067 50.6797H29.7427C30.2384 50.6797 30.5689 51.0102 30.5689 51.5059C30.5689 52.0016 30.2384 52.3321 29.7427 52.3321Z" fill="#3A643B"/>
<path d="M23.9591 55.6372H22.3067C21.811 55.6372 21.4805 55.3067 21.4805 54.811C21.4805 54.3152 21.811 53.9848 22.3067 53.9848H23.9591C25.3637 53.9848 26.4378 52.9107 26.4378 51.5061C26.4378 50.1015 25.3637 49.0274 23.9591 49.0274H22.3067C21.811 49.0274 21.4805 48.697 21.4805 48.2012C21.4805 47.7055 21.811 47.375 22.3067 47.375H23.9591C26.2725 47.375 28.0902 49.1927 28.0902 51.5061C28.0902 53.8195 26.2725 55.6372 23.9591 55.6372Z" fill="#3A643B"/>
<path d="M27.264 60.5941C27.0161 60.5941 26.8509 60.5115 26.6857 60.3463L21.7283 55.3889C21.3978 55.0585 21.3978 54.5627 21.7283 54.2322C22.0588 53.9018 22.5546 53.9018 22.885 54.2322L27.8424 59.1896C28.1728 59.52 28.1728 60.0158 27.8424 60.3463C27.6771 60.5115 27.5119 60.5941 27.264 60.5941Z" fill="#3A643B"/>
</g>
<path d="M35.316 61.3105C34.9723 61.3105 34.7013 61.218 34.503 61.0329C34.3179 60.8346 34.2254 60.5703 34.2254 60.2398C34.2254 59.8961 34.3179 59.6383 34.503 59.4664C34.7013 59.2946 34.9723 59.2086 35.316 59.2086H37.5369V49.4725H38.7663L35.8514 51.2373C35.6002 51.3827 35.3623 51.4422 35.1376 51.4157C34.926 51.3761 34.741 51.2835 34.5823 51.1381C34.4369 50.9795 34.3378 50.7944 34.2849 50.5829C34.232 50.3714 34.2452 50.1599 34.3246 49.9484C34.4171 49.7236 34.5889 49.5386 34.8401 49.3932L37.5766 47.7473C37.8409 47.5887 38.1053 47.4565 38.3697 47.3507C38.6341 47.2318 38.8787 47.1723 39.1034 47.1723C39.381 47.1723 39.6124 47.2516 39.7974 47.4102C39.9825 47.5556 40.075 47.8002 40.075 48.1439V59.2086H42.0976C42.4413 59.2086 42.7057 59.2946 42.8908 59.4664C43.0891 59.6383 43.1882 59.8961 43.1882 60.2398C43.1882 60.5835 43.0891 60.8479 42.8908 61.0329C42.7057 61.218 42.4413 61.3105 42.0976 61.3105H35.316ZM46.4305 61.3105C46.0075 61.3105 45.6968 61.218 45.4985 61.0329C45.3135 60.8346 45.2209 60.5504 45.2209 60.1803C45.2209 59.9555 45.2804 59.7374 45.3994 59.5259C45.5184 59.3144 45.6902 59.0897 45.915 58.8517L49.9006 54.6083C50.5087 53.9737 50.945 53.3987 51.2094 52.8831C51.4738 52.3543 51.606 51.8255 51.606 51.2968C51.606 50.6358 51.3944 50.1334 50.9714 49.7897C50.5616 49.446 49.9601 49.2742 49.167 49.2742C48.7175 49.2742 48.268 49.3403 47.8186 49.4725C47.3691 49.5914 46.913 49.803 46.4503 50.107C46.2124 50.2656 45.9877 50.3317 45.7761 50.3053C45.5779 50.2789 45.3994 50.1929 45.2408 50.0475C45.0953 49.9021 44.9962 49.7236 44.9433 49.5121C44.8904 49.3006 44.897 49.0891 44.9631 48.8776C45.0425 48.6529 45.2011 48.4612 45.439 48.3025C46.0075 47.9192 46.642 47.6284 47.3427 47.4301C48.0565 47.2318 48.7704 47.1326 49.4842 47.1326C50.4889 47.1326 51.335 47.2846 52.0224 47.5887C52.7098 47.8927 53.232 48.3356 53.5889 48.9173C53.9458 49.4989 54.1243 50.2062 54.1243 51.039C54.1243 51.5942 54.0317 52.1362 53.8467 52.665C53.6748 53.1938 53.4038 53.7292 53.0337 54.2712C52.6767 54.8132 52.2074 55.3882 51.6258 55.9963L47.8979 59.8828V59.2086H53.7277C54.0846 59.2086 54.3556 59.2946 54.5407 59.4664C54.7258 59.6383 54.8183 59.8961 54.8183 60.2398C54.8183 60.5835 54.7258 60.8479 54.5407 61.0329C54.3556 61.218 54.0846 61.3105 53.7277 61.3105H46.4305ZM58.1597 63.4323C57.9879 63.6438 57.8028 63.7628 57.6045 63.7892C57.4194 63.8289 57.2542 63.7958 57.1088 63.6901C56.9633 63.5843 56.884 63.4323 56.8708 63.234C56.8576 63.0489 56.9435 62.844 57.1286 62.6193C57.393 62.2888 57.5714 61.9583 57.664 61.6278C57.7565 61.2973 57.8028 60.9999 57.8028 60.7355L57.9019 61.4097C57.4392 61.4097 57.0625 61.2775 56.7717 61.0131C56.4941 60.7355 56.3552 60.372 56.3552 59.9225C56.3552 59.4995 56.4874 59.1558 56.7518 58.8914C57.0162 58.6138 57.3731 58.475 57.8226 58.475C58.2853 58.475 58.6488 58.6336 58.9132 58.9509C59.1776 59.2549 59.3098 59.6978 59.3098 60.2794C59.3098 60.5967 59.2768 60.9272 59.2107 61.2709C59.1578 61.6014 59.0454 61.9451 58.8736 62.302C58.7149 62.6722 58.477 63.0489 58.1597 63.4323ZM65.9119 61.5088C64.2595 61.5088 62.997 60.8875 62.1245 59.6449C61.252 58.389 60.8158 56.6044 60.8158 54.291C60.8158 52.7311 61.0075 51.4224 61.3908 50.3648C61.7874 49.294 62.3625 48.4876 63.116 47.9456C63.8827 47.4036 64.8147 47.1326 65.9119 47.1326C67.5776 47.1326 68.84 47.7407 69.6993 48.9569C70.5718 50.1731 71.008 51.9445 71.008 54.2712C71.008 55.8178 70.8097 57.1332 70.4131 58.2172C70.0298 59.288 69.4613 60.1076 68.7078 60.676C67.9543 61.2312 67.0223 61.5088 65.9119 61.5088ZM65.9119 59.4268C66.8108 59.4268 67.4718 59.0104 67.8948 58.1775C68.3311 57.3447 68.5492 56.0426 68.5492 54.2712C68.5492 52.4997 68.3311 51.2174 67.8948 50.4243C67.4718 49.6179 66.8108 49.2147 65.9119 49.2147C65.0262 49.2147 64.3652 49.6179 63.929 50.4243C63.4927 51.2174 63.2746 52.4997 63.2746 54.2712C63.2746 56.0426 63.4927 57.3447 63.929 58.1775C64.3652 59.0104 65.0262 59.4268 65.9119 59.4268ZM77.4825 61.5088C75.83 61.5088 74.5676 60.8875 73.6951 59.6449C72.8226 58.389 72.3863 56.6044 72.3863 54.291C72.3863 52.7311 72.578 51.4224 72.9614 50.3648C73.358 49.294 73.933 48.4876 74.6865 47.9456C75.4533 47.4036 76.3852 47.1326 77.4825 47.1326C79.1481 47.1326 80.4106 47.7407 81.2699 48.9569C82.1423 50.1731 82.5786 51.9445 82.5786 54.2712C82.5786 55.8178 82.3803 57.1332 81.9837 58.2172C81.6003 59.288 81.0319 60.1076 80.2784 60.676C79.5249 61.2312 78.5929 61.5088 77.4825 61.5088ZM77.4825 59.4268C78.3814 59.4268 79.0424 59.0104 79.4654 58.1775C79.9016 57.3447 80.1198 56.0426 80.1198 54.2712C80.1198 52.4997 79.9016 51.2174 79.4654 50.4243C79.0424 49.6179 78.3814 49.2147 77.4825 49.2147C76.5968 49.2147 75.9358 49.6179 75.4995 50.4243C75.0633 51.2174 74.8452 52.4997 74.8452 54.2712C74.8452 56.0426 75.0633 57.3447 75.4995 58.1775C75.9358 59.0104 76.5968 59.4268 77.4825 59.4268ZM89.053 61.5088C87.4006 61.5088 86.1381 60.8875 85.2656 59.6449C84.3931 58.389 83.9569 56.6044 83.9569 54.291C83.9569 52.7311 84.1486 51.4224 84.532 50.3648C84.9285 49.294 85.5036 48.4876 86.2571 47.9456C87.0238 47.4036 87.9558 47.1326 89.053 47.1326C90.7187 47.1326 91.9811 47.7407 92.8404 48.9569C93.7129 50.1731 94.1491 51.9445 94.1491 54.2712C94.1491 55.8178 93.9509 57.1332 93.5543 58.2172C93.1709 59.288 92.6025 60.1076 91.849 60.676C91.0954 61.2312 90.1635 61.5088 89.053 61.5088ZM89.053 59.4268C89.952 59.4268 90.6129 59.0104 91.036 58.1775C91.4722 57.3447 91.6903 56.0426 91.6903 54.2712C91.6903 52.4997 91.4722 51.2174 91.036 50.4243C90.6129 49.6179 89.952 49.2147 89.053 49.2147C88.1673 49.2147 87.5063 49.6179 87.0701 50.4243C86.6339 51.2174 86.4157 52.4997 86.4157 54.2712C86.4157 56.0426 86.6339 57.3447 87.0701 58.1775C87.5063 59.0104 88.1673 59.4268 89.053 59.4268ZM97.1535 61.4097C96.704 61.4097 96.3405 61.2709 96.0629 60.9933C95.7985 60.7157 95.6663 60.3587 95.6663 59.9225C95.6663 59.4995 95.7985 59.1558 96.0629 58.8914C96.3405 58.6138 96.704 58.475 97.1535 58.475C97.6161 58.475 97.9731 58.6138 98.2242 58.8914C98.4886 59.1558 98.6208 59.4995 98.6208 59.9225C98.6208 60.3587 98.4886 60.7157 98.2242 60.9933C97.9731 61.2709 97.6161 61.4097 97.1535 61.4097ZM105.223 61.5088C103.57 61.5088 102.308 60.8875 101.436 59.6449C100.563 58.389 100.127 56.6044 100.127 54.291C100.127 52.7311 100.318 51.4224 100.702 50.3648C101.098 49.294 101.673 48.4876 102.427 47.9456C103.194 47.4036 104.126 47.1326 105.223 47.1326C106.889 47.1326 108.151 47.7407 109.01 48.9569C109.883 50.1731 110.319 51.9445 110.319 54.2712C110.319 55.8178 110.121 57.1332 109.724 58.2172C109.341 59.288 108.772 60.1076 108.019 60.676C107.265 61.2312 106.333 61.5088 105.223 61.5088ZM105.223 59.4268C106.122 59.4268 106.783 59.0104 107.206 58.1775C107.642 57.3447 107.86 56.0426 107.86 54.2712C107.86 52.4997 107.642 51.2174 107.206 50.4243C106.783 49.6179 106.122 49.2147 105.223 49.2147C104.337 49.2147 103.676 49.6179 103.24 50.4243C102.804 51.2174 102.586 52.4997 102.586 54.2712C102.586 56.0426 102.804 57.3447 103.24 58.1775C103.676 59.0104 104.337 59.4268 105.223 59.4268ZM116.793 61.5088C115.141 61.5088 113.879 60.8875 113.006 59.6449C112.134 58.389 111.697 56.6044 111.697 54.291C111.697 52.7311 111.889 51.4224 112.272 50.3648C112.669 49.294 113.244 48.4876 113.998 47.9456C114.764 47.4036 115.696 47.1326 116.793 47.1326C118.459 47.1326 119.722 47.7407 120.581 48.9569C121.453 50.1731 121.89 51.9445 121.89 54.2712C121.89 55.8178 121.691 57.1332 121.295 58.2172C120.911 59.288 120.343 60.1076 119.589 60.676C118.836 61.2312 117.904 61.5088 116.793 61.5088ZM116.793 59.4268C117.692 59.4268 118.353 59.0104 118.776 58.1775C119.213 57.3447 119.431 56.0426 119.431 54.2712C119.431 52.4997 119.213 51.2174 118.776 50.4243C118.353 49.6179 117.692 49.2147 116.793 49.2147C115.908 49.2147 115.247 49.6179 114.811 50.4243C114.374 51.2174 114.156 52.4997 114.156 54.2712C114.156 56.0426 114.374 57.3447 114.811 58.1775C115.247 59.0104 115.908 59.4268 116.793 59.4268Z" fill="#3A643B"/>
<rect x="20.2412" y="97.0811" width="150.372" height="37.0031" rx="9.50152" fill="#3A643B"/>
<rect x="20.2412" y="97.0811" width="150.372" height="37.0031" rx="9.50152" stroke="#3A643B" stroke-width="0.826219"/>
<path d="M34.1972 119.675C33.9769 119.675 33.805 119.613 33.6816 119.489C33.5671 119.366 33.5098 119.194 33.5098 118.974V110.963C33.5098 110.734 33.5715 110.562 33.6949 110.447C33.8182 110.324 33.9901 110.262 34.2104 110.262H37.3699C38.3746 110.262 39.1501 110.5 39.6965 110.976C40.2429 111.452 40.5161 112.126 40.5161 112.999C40.5161 113.563 40.3927 114.047 40.146 114.453C39.8992 114.858 39.5379 115.167 39.062 115.378C38.5949 115.59 38.0309 115.695 37.3699 115.695L37.4889 115.51H37.8326C38.1851 115.51 38.4891 115.599 38.7447 115.775C39.0091 115.951 39.247 116.233 39.4586 116.621L40.5954 118.736C40.6836 118.895 40.7232 119.049 40.7144 119.199C40.7144 119.34 40.6615 119.454 40.5558 119.542C40.4588 119.631 40.3178 119.675 40.1328 119.675C39.9389 119.675 39.7802 119.635 39.6569 119.556C39.5423 119.467 39.4365 119.34 39.3396 119.172L37.9515 116.608C37.7665 116.264 37.555 116.035 37.317 115.92C37.079 115.797 36.7662 115.735 36.3784 115.735H34.8846V118.974C34.8846 119.194 34.8273 119.366 34.7128 119.489C34.5982 119.613 34.4263 119.675 34.1972 119.675ZM34.8846 114.704H37.1451C37.8149 114.704 38.3217 114.563 38.6654 114.281C39.0091 113.999 39.181 113.58 39.181 113.025C39.181 112.479 39.0091 112.065 38.6654 111.783C38.3217 111.501 37.8149 111.359 37.1451 111.359H34.8846V114.704ZM45.1831 119.701C44.4781 119.701 43.87 119.569 43.3588 119.304C42.8565 119.031 42.4643 118.648 42.1823 118.154C41.9091 117.652 41.7725 117.057 41.7725 116.37C41.7725 115.7 41.9091 115.114 42.1823 114.611C42.4555 114.109 42.8301 113.717 43.306 113.435C43.7819 113.153 44.3239 113.012 44.932 113.012C45.3814 113.012 45.7824 113.087 46.1349 113.237C46.4875 113.378 46.7871 113.589 47.0339 113.871C47.2894 114.144 47.4789 114.479 47.6023 114.876C47.7345 115.272 47.8006 115.718 47.8006 116.211C47.8006 116.361 47.7565 116.475 47.6684 116.555C47.5803 116.625 47.4481 116.661 47.2718 116.661H42.8301V115.841H46.9017L46.6769 116.026C46.6769 115.585 46.6108 115.211 46.4786 114.902C46.3553 114.594 46.1658 114.36 45.9102 114.202C45.6634 114.034 45.355 113.951 44.9848 113.951C44.5706 113.951 44.2181 114.047 43.9273 114.241C43.6453 114.435 43.4293 114.704 43.2795 115.048C43.1297 115.391 43.0548 115.792 43.0548 116.251V116.33C43.0548 117.106 43.2355 117.692 43.5968 118.088C43.9669 118.476 44.5001 118.67 45.1963 118.67C45.4607 118.67 45.7383 118.635 46.0292 118.564C46.3288 118.494 46.6108 118.375 46.8752 118.207C47.025 118.119 47.1572 118.079 47.2718 118.088C47.3952 118.097 47.4921 118.137 47.5626 118.207C47.642 118.278 47.6904 118.366 47.7081 118.472C47.7257 118.577 47.7081 118.688 47.6552 118.802C47.6023 118.908 47.5098 119.005 47.3776 119.093C47.0779 119.296 46.7298 119.45 46.3332 119.556C45.9366 119.653 45.5533 119.701 45.1831 119.701ZM54.5175 122.054C54.306 122.054 54.143 121.997 54.0284 121.882C53.9139 121.768 53.8566 121.6 53.8566 121.38V118.154H54.002C53.861 118.621 53.5834 118.996 53.1692 119.278C52.7638 119.56 52.279 119.701 51.715 119.701C51.151 119.701 50.653 119.569 50.2212 119.304C49.7982 119.031 49.4677 118.643 49.2297 118.141C48.9918 117.63 48.8728 117.035 48.8728 116.356C48.8728 115.66 48.9918 115.065 49.2297 114.572C49.4677 114.078 49.7982 113.695 50.2212 113.422C50.653 113.149 51.151 113.012 51.715 113.012C52.2879 113.012 52.777 113.157 53.1824 113.448C53.5966 113.73 53.8742 114.109 54.0152 114.585L53.8698 114.863V113.713C53.8698 113.492 53.9271 113.325 54.0416 113.21C54.1562 113.096 54.3193 113.038 54.5308 113.038C54.7423 113.038 54.9053 113.096 55.0199 113.21C55.1345 113.325 55.1917 113.492 55.1917 113.713V121.38C55.1917 121.6 55.1301 121.768 55.0067 121.882C54.8921 121.997 54.7291 122.054 54.5175 122.054ZM52.0587 118.67C52.4201 118.67 52.7373 118.582 53.0105 118.405C53.2837 118.229 53.4952 117.969 53.6451 117.626C53.8037 117.282 53.883 116.859 53.883 116.356C53.883 115.599 53.7156 115.026 53.3807 114.638C53.0458 114.25 52.6051 114.056 52.0587 114.056C51.6886 114.056 51.3669 114.144 51.0937 114.321C50.8205 114.488 50.6046 114.744 50.4459 115.087C50.2961 115.431 50.2212 115.854 50.2212 116.356C50.2212 117.106 50.3887 117.678 50.7235 118.075C51.0584 118.472 51.5035 118.67 52.0587 118.67ZM59.3667 119.701C58.8468 119.701 58.4105 119.604 58.058 119.41C57.7143 119.216 57.4543 118.93 57.2781 118.551C57.1106 118.163 57.0269 117.678 57.0269 117.097V113.713C57.0269 113.483 57.0842 113.316 57.1987 113.21C57.3133 113.096 57.4763 113.038 57.6879 113.038C57.8994 113.038 58.0624 113.096 58.177 113.21C58.3004 113.316 58.3621 113.483 58.3621 113.713V117.11C58.3621 117.63 58.4678 118.013 58.6793 118.26C58.8908 118.507 59.2257 118.63 59.684 118.63C60.1863 118.63 60.5917 118.463 60.9002 118.128C61.2175 117.784 61.3761 117.335 61.3761 116.779V113.713C61.3761 113.483 61.4334 113.316 61.548 113.21C61.6625 113.096 61.83 113.038 62.0503 113.038C62.2618 113.038 62.4248 113.096 62.5394 113.21C62.654 113.316 62.7113 113.483 62.7113 113.713V119C62.7113 119.45 62.4954 119.675 62.0635 119.675C61.8608 119.675 61.7022 119.617 61.5876 119.503C61.473 119.379 61.4158 119.212 61.4158 119V117.877L61.5876 118.168C61.4114 118.661 61.1293 119.04 60.7416 119.304C60.3538 119.569 59.8955 119.701 59.3667 119.701ZM67.6202 119.701C66.9151 119.701 66.307 119.569 65.7959 119.304C65.2935 119.031 64.9013 118.648 64.6193 118.154C64.3461 117.652 64.2095 117.057 64.2095 116.37C64.2095 115.7 64.3461 115.114 64.6193 114.611C64.8925 114.109 65.2671 113.717 65.743 113.435C66.2189 113.153 66.7609 113.012 67.369 113.012C67.8184 113.012 68.2194 113.087 68.572 113.237C68.9245 113.378 69.2241 113.589 69.4709 113.871C69.7265 114.144 69.9159 114.479 70.0393 114.876C70.1715 115.272 70.2376 115.718 70.2376 116.211C70.2376 116.361 70.1935 116.475 70.1054 116.555C70.0173 116.625 69.8851 116.661 69.7088 116.661H65.2671V115.841H69.3387L69.114 116.026C69.114 115.585 69.0479 115.211 68.9157 114.902C68.7923 114.594 68.6028 114.36 68.3472 114.202C68.1005 114.034 67.792 113.951 67.4219 113.951C67.0076 113.951 66.6551 114.047 66.3643 114.241C66.0823 114.435 65.8664 114.704 65.7165 115.048C65.5667 115.391 65.4918 115.792 65.4918 116.251V116.33C65.4918 117.106 65.6725 117.692 66.0338 118.088C66.404 118.476 66.9371 118.67 67.6334 118.67C67.8978 118.67 68.1754 118.635 68.4662 118.564C68.7658 118.494 69.0479 118.375 69.3122 118.207C69.4621 118.119 69.5943 118.079 69.7088 118.088C69.8322 118.097 69.9292 118.137 69.9997 118.207C70.079 118.278 70.1275 118.366 70.1451 118.472C70.1627 118.577 70.1451 118.688 70.0922 118.802C70.0393 118.908 69.9468 119.005 69.8146 119.093C69.5149 119.296 69.1668 119.45 68.7702 119.556C68.3737 119.653 67.9903 119.701 67.6202 119.701ZM73.9537 119.701C73.566 119.701 73.165 119.657 72.7508 119.569C72.3454 119.481 71.9708 119.331 71.6271 119.119C71.5125 119.04 71.4332 118.952 71.3892 118.855C71.3451 118.758 71.3275 118.661 71.3363 118.564C71.3539 118.458 71.3936 118.37 71.4553 118.3C71.5258 118.22 71.6095 118.172 71.7064 118.154C71.8122 118.137 71.9223 118.159 72.0369 118.22C72.3806 118.414 72.7111 118.551 73.0284 118.63C73.3456 118.701 73.6585 118.736 73.967 118.736C74.4341 118.736 74.7866 118.652 75.0245 118.485C75.2625 118.317 75.3814 118.093 75.3814 117.811C75.3814 117.581 75.3021 117.405 75.1435 117.282C74.9849 117.15 74.7469 117.048 74.4296 116.978L73.1738 116.727C72.6274 116.612 72.2132 116.409 71.9312 116.119C71.6491 115.828 71.5081 115.458 71.5081 115.008C71.5081 114.603 71.6183 114.25 71.8386 113.951C72.0589 113.651 72.3674 113.422 72.764 113.263C73.1606 113.096 73.6188 113.012 74.1388 113.012C74.5266 113.012 74.8923 113.06 75.236 113.157C75.5797 113.254 75.897 113.4 76.1878 113.594C76.3024 113.655 76.3773 113.739 76.4126 113.845C76.4478 113.942 76.4522 114.039 76.4258 114.136C76.4082 114.233 76.3641 114.321 76.2936 114.4C76.2231 114.47 76.135 114.515 76.0292 114.532C75.9323 114.541 75.8221 114.515 75.6987 114.453C75.4343 114.285 75.1699 114.166 74.9055 114.096C74.65 114.025 74.3944 113.99 74.1388 113.99C73.6717 113.99 73.3192 114.078 73.0813 114.255C72.8521 114.422 72.7375 114.651 72.7375 114.942C72.7375 115.162 72.8081 115.343 72.9491 115.484C73.0901 115.625 73.3104 115.726 73.61 115.788L74.8659 116.039C75.4387 116.154 75.8706 116.348 76.1614 116.621C76.461 116.894 76.6109 117.264 76.6109 117.731C76.6109 118.339 76.3685 118.82 75.8838 119.172C75.3991 119.525 74.7557 119.701 73.9537 119.701ZM80.7815 119.701C80.2527 119.701 79.8077 119.608 79.4463 119.423C79.085 119.238 78.8162 118.965 78.64 118.604C78.4637 118.242 78.3756 117.802 78.3756 117.282V114.162H77.5824C77.4061 114.162 77.2695 114.118 77.1726 114.03C77.0756 113.933 77.0272 113.805 77.0272 113.646C77.0272 113.479 77.0756 113.351 77.1726 113.263C77.2695 113.175 77.4061 113.131 77.5824 113.131H78.3756V111.769C78.3756 111.549 78.4329 111.382 78.5474 111.267C78.6708 111.152 78.8382 111.095 79.0498 111.095C79.2613 111.095 79.4243 111.152 79.5389 111.267C79.6535 111.382 79.7107 111.549 79.7107 111.769V113.131H81.2574C81.4337 113.131 81.5703 113.175 81.6672 113.263C81.7642 113.351 81.8126 113.479 81.8126 113.646C81.8126 113.805 81.7642 113.933 81.6672 114.03C81.5703 114.118 81.4337 114.162 81.2574 114.162H79.7107V117.176C79.7107 117.643 79.8077 117.996 80.0016 118.234C80.2043 118.472 80.5303 118.591 80.9798 118.591C81.1384 118.591 81.275 118.577 81.3896 118.551C81.513 118.516 81.6143 118.494 81.6937 118.485C81.7906 118.485 81.8699 118.52 81.9316 118.591C81.9933 118.652 82.0242 118.776 82.0242 118.961C82.0242 119.093 81.9977 119.216 81.9448 119.331C81.9008 119.445 81.817 119.52 81.6937 119.556C81.5879 119.591 81.4425 119.622 81.2574 119.648C81.0812 119.683 80.9225 119.701 80.7815 119.701ZM89.6241 119.675C89.4302 119.675 89.2716 119.626 89.1482 119.529C89.0337 119.432 88.9367 119.282 88.8574 119.08L86.0152 110.976C85.9359 110.747 85.9491 110.558 86.0549 110.408C86.1694 110.249 86.3545 110.17 86.6101 110.17C86.804 110.17 86.9538 110.214 87.0595 110.302C87.1741 110.39 87.2622 110.531 87.3239 110.725L89.9017 118.313H89.4126L92.0565 110.751C92.1358 110.558 92.2284 110.412 92.3341 110.315C92.4399 110.218 92.5809 110.17 92.7572 110.17C92.9334 110.17 93.07 110.218 93.167 110.315C93.2727 110.412 93.3653 110.562 93.4446 110.765L96.0356 118.313H95.5993L98.2036 110.725C98.2653 110.54 98.349 110.403 98.4548 110.315C98.5693 110.218 98.7192 110.17 98.9042 110.17C99.1334 110.17 99.3008 110.249 99.4066 110.408C99.5211 110.558 99.5344 110.747 99.4462 110.976L96.5908 119.093C96.5115 119.287 96.4146 119.432 96.3 119.529C96.1854 119.626 96.0312 119.675 95.8373 119.675C95.6346 119.675 95.476 119.626 95.3614 119.529C95.2468 119.432 95.1543 119.282 95.0838 119.08L92.5853 111.928H92.8761L90.3512 119.093C90.2807 119.287 90.1882 119.432 90.0736 119.529C89.9678 119.626 89.818 119.675 89.6241 119.675ZM102.111 119.661C101.899 119.661 101.736 119.6 101.622 119.476C101.507 119.344 101.45 119.163 101.45 118.934V113.779C101.45 113.55 101.507 113.373 101.622 113.25C101.736 113.127 101.899 113.065 102.111 113.065C102.323 113.065 102.486 113.127 102.6 113.25C102.723 113.373 102.785 113.55 102.785 113.779V118.934C102.785 119.163 102.728 119.344 102.613 119.476C102.499 119.6 102.331 119.661 102.111 119.661ZM102.111 111.69C101.847 111.69 101.639 111.624 101.49 111.492C101.349 111.359 101.278 111.174 101.278 110.936C101.278 110.69 101.349 110.505 101.49 110.381C101.639 110.249 101.847 110.183 102.111 110.183C102.375 110.183 102.578 110.249 102.719 110.381C102.869 110.505 102.944 110.69 102.944 110.936C102.944 111.174 102.869 111.359 102.719 111.492C102.578 111.624 102.375 111.69 102.111 111.69ZM107.414 119.701C106.885 119.701 106.44 119.608 106.079 119.423C105.718 119.238 105.449 118.965 105.273 118.604C105.096 118.242 105.008 117.802 105.008 117.282V114.162H104.215C104.039 114.162 103.902 114.118 103.805 114.03C103.708 113.933 103.66 113.805 103.66 113.646C103.66 113.479 103.708 113.351 103.805 113.263C103.902 113.175 104.039 113.131 104.215 113.131H105.008V111.769C105.008 111.549 105.066 111.382 105.18 111.267C105.303 111.152 105.471 111.095 105.682 111.095C105.894 111.095 106.057 111.152 106.172 111.267C106.286 111.382 106.343 111.549 106.343 111.769V113.131H107.89C108.066 113.131 108.203 113.175 108.3 113.263C108.397 113.351 108.445 113.479 108.445 113.646C108.445 113.805 108.397 113.933 108.3 114.03C108.203 114.118 108.066 114.162 107.89 114.162H106.343V117.176C106.343 117.643 106.44 117.996 106.634 118.234C106.837 118.472 107.163 118.591 107.612 118.591C107.771 118.591 107.908 118.577 108.022 118.551C108.146 118.516 108.247 118.494 108.326 118.485C108.423 118.485 108.503 118.52 108.564 118.591C108.626 118.652 108.657 118.776 108.657 118.961C108.657 119.093 108.63 119.216 108.578 119.331C108.533 119.445 108.45 119.52 108.326 119.556C108.221 119.591 108.075 119.622 107.89 119.648C107.714 119.683 107.555 119.701 107.414 119.701ZM110.27 119.675C110.058 119.675 109.895 119.617 109.781 119.503C109.666 119.379 109.609 119.212 109.609 119V110.844C109.609 110.624 109.666 110.456 109.781 110.342C109.895 110.227 110.058 110.17 110.27 110.17C110.481 110.17 110.644 110.227 110.759 110.342C110.882 110.456 110.944 110.624 110.944 110.844V114.506H110.759C110.953 114.012 111.257 113.642 111.671 113.395C112.085 113.14 112.561 113.012 113.099 113.012C113.61 113.012 114.033 113.109 114.368 113.303C114.712 113.488 114.967 113.774 115.135 114.162C115.302 114.541 115.386 115.021 115.386 115.603V119C115.386 119.212 115.329 119.379 115.214 119.503C115.099 119.617 114.936 119.675 114.725 119.675C114.505 119.675 114.337 119.617 114.223 119.503C114.108 119.379 114.051 119.212 114.051 119V115.682C114.051 115.127 113.941 114.722 113.72 114.466C113.509 114.211 113.174 114.083 112.716 114.083C112.178 114.083 111.746 114.25 111.42 114.585C111.103 114.92 110.944 115.369 110.944 115.933V119C110.944 119.45 110.719 119.675 110.27 119.675ZM119.684 119.701C119.12 119.701 118.623 119.569 118.191 119.304C117.768 119.031 117.437 118.643 117.199 118.141C116.961 117.63 116.842 117.035 116.842 116.356C116.842 115.66 116.961 115.065 117.199 114.572C117.437 114.078 117.768 113.695 118.191 113.422C118.623 113.149 119.12 113.012 119.684 113.012C120.249 113.012 120.733 113.153 121.139 113.435C121.553 113.708 121.83 114.078 121.971 114.545H121.826V110.844C121.826 110.624 121.883 110.456 121.998 110.342C122.112 110.227 122.276 110.17 122.487 110.17C122.699 110.17 122.862 110.227 122.976 110.342C123.1 110.456 123.161 110.624 123.161 110.844V119C123.161 119.212 123.104 119.379 122.989 119.503C122.875 119.617 122.712 119.675 122.5 119.675C122.289 119.675 122.126 119.617 122.011 119.503C121.897 119.379 121.839 119.212 121.839 119V117.837L121.985 118.128C121.844 118.604 121.566 118.987 121.152 119.278C120.746 119.56 120.257 119.701 119.684 119.701ZM120.028 118.67C120.39 118.67 120.707 118.582 120.98 118.405C121.253 118.229 121.465 117.969 121.615 117.626C121.773 117.282 121.852 116.859 121.852 116.356C121.852 115.599 121.685 115.026 121.35 114.638C121.015 114.25 120.575 114.056 120.028 114.056C119.658 114.056 119.336 114.144 119.063 114.321C118.79 114.488 118.574 114.744 118.415 115.087C118.266 115.431 118.191 115.854 118.191 116.356C118.191 117.106 118.358 117.678 118.693 118.075C119.028 118.472 119.473 118.67 120.028 118.67ZM125.71 119.675C125.49 119.675 125.322 119.617 125.208 119.503C125.093 119.379 125.036 119.212 125.036 119V113.713C125.036 113.492 125.093 113.325 125.208 113.21C125.322 113.096 125.481 113.038 125.684 113.038C125.895 113.038 126.054 113.096 126.16 113.21C126.274 113.325 126.332 113.492 126.332 113.713V114.678H126.199C126.34 114.149 126.6 113.748 126.979 113.475C127.358 113.201 127.843 113.043 128.433 112.999C128.592 112.99 128.715 113.03 128.804 113.118C128.901 113.206 128.953 113.342 128.962 113.527C128.98 113.713 128.94 113.862 128.843 113.977C128.746 114.083 128.596 114.144 128.394 114.162L128.143 114.188C127.57 114.241 127.134 114.422 126.834 114.73C126.534 115.039 126.384 115.462 126.384 116V119C126.384 119.212 126.327 119.379 126.213 119.503C126.107 119.617 125.939 119.675 125.71 119.675ZM131.965 119.701C131.516 119.701 131.11 119.613 130.749 119.437C130.396 119.26 130.119 119.022 129.916 118.723C129.713 118.423 129.612 118.084 129.612 117.705C129.612 117.229 129.731 116.854 129.969 116.581C130.216 116.299 130.617 116.101 131.172 115.986C131.736 115.863 132.494 115.801 133.446 115.801H134.067V116.621H133.459C132.824 116.621 132.322 116.652 131.952 116.713C131.582 116.775 131.317 116.881 131.159 117.031C131.009 117.172 130.934 117.37 130.934 117.626C130.934 117.96 131.049 118.234 131.278 118.445C131.507 118.648 131.824 118.749 132.23 118.749C132.556 118.749 132.842 118.674 133.089 118.524C133.336 118.366 133.53 118.154 133.671 117.89C133.82 117.626 133.895 117.321 133.895 116.978V115.458C133.895 114.955 133.789 114.594 133.578 114.374C133.366 114.153 133.018 114.043 132.534 114.043C132.252 114.043 131.956 114.078 131.648 114.149C131.348 114.219 131.035 114.338 130.709 114.506C130.56 114.576 130.432 114.598 130.326 114.572C130.22 114.545 130.136 114.488 130.075 114.4C130.013 114.303 129.978 114.202 129.969 114.096C129.969 113.981 129.995 113.871 130.048 113.765C130.11 113.66 130.211 113.58 130.352 113.527C130.74 113.342 131.124 113.21 131.503 113.131C131.881 113.052 132.238 113.012 132.573 113.012C133.164 113.012 133.648 113.104 134.027 113.29C134.415 113.475 134.702 113.757 134.887 114.136C135.072 114.515 135.164 115.004 135.164 115.603V119C135.164 119.212 135.111 119.379 135.006 119.503C134.9 119.617 134.746 119.675 134.543 119.675C134.349 119.675 134.195 119.617 134.08 119.503C133.966 119.379 133.908 119.212 133.908 119V118.141H134.027C133.957 118.467 133.825 118.749 133.631 118.987C133.446 119.216 133.212 119.393 132.93 119.516C132.648 119.639 132.327 119.701 131.965 119.701ZM139.292 119.675C139.107 119.675 138.944 119.631 138.803 119.542C138.67 119.445 138.565 119.296 138.485 119.093L136.542 113.951C136.472 113.774 136.45 113.62 136.476 113.488C136.502 113.347 136.569 113.237 136.674 113.157C136.789 113.078 136.934 113.038 137.111 113.038C137.269 113.038 137.397 113.078 137.494 113.157C137.6 113.228 137.688 113.369 137.758 113.58L139.49 118.458H139.173L140.971 113.527C141.032 113.36 141.116 113.237 141.222 113.157C141.328 113.078 141.464 113.038 141.632 113.038C141.799 113.038 141.936 113.078 142.041 113.157C142.156 113.237 142.24 113.36 142.293 113.527L144.051 118.458H143.76L145.518 113.554C145.589 113.351 145.677 113.215 145.783 113.144C145.897 113.074 146.025 113.038 146.166 113.038C146.342 113.038 146.474 113.082 146.563 113.171C146.659 113.259 146.712 113.373 146.721 113.514C146.739 113.646 146.717 113.792 146.655 113.951L144.712 119.093C144.632 119.287 144.522 119.432 144.381 119.529C144.249 119.626 144.095 119.675 143.919 119.675C143.734 119.675 143.571 119.626 143.43 119.529C143.297 119.432 143.192 119.287 143.112 119.093L141.262 114.083H141.922L140.085 119.093C140.014 119.287 139.909 119.432 139.768 119.529C139.636 119.626 139.477 119.675 139.292 119.675ZM150.052 119.701C149.602 119.701 149.197 119.613 148.835 119.437C148.483 119.26 148.205 119.022 148.003 118.723C147.8 118.423 147.699 118.084 147.699 117.705C147.699 117.229 147.818 116.854 148.056 116.581C148.302 116.299 148.703 116.101 149.258 115.986C149.823 115.863 150.58 115.801 151.532 115.801H152.154V116.621H151.545C150.911 116.621 150.409 116.652 150.038 116.713C149.668 116.775 149.404 116.881 149.245 117.031C149.095 117.172 149.021 117.37 149.021 117.626C149.021 117.96 149.135 118.234 149.364 118.445C149.593 118.648 149.911 118.749 150.316 118.749C150.642 118.749 150.929 118.674 151.175 118.524C151.422 118.366 151.616 118.154 151.757 117.89C151.907 117.626 151.982 117.321 151.982 116.978V115.458C151.982 114.955 151.876 114.594 151.664 114.374C151.453 114.153 151.105 114.043 150.62 114.043C150.338 114.043 150.043 114.078 149.734 114.149C149.435 114.219 149.122 114.338 148.796 114.506C148.646 114.576 148.518 114.598 148.412 114.572C148.307 114.545 148.223 114.488 148.161 114.4C148.1 114.303 148.064 114.202 148.056 114.096C148.056 113.981 148.082 113.871 148.135 113.765C148.197 113.66 148.298 113.58 148.439 113.527C148.827 113.342 149.21 113.21 149.589 113.131C149.968 113.052 150.325 113.012 150.66 113.012C151.25 113.012 151.735 113.104 152.114 113.29C152.502 113.475 152.788 113.757 152.973 114.136C153.158 114.515 153.251 115.004 153.251 115.603V119C153.251 119.212 153.198 119.379 153.092 119.503C152.986 119.617 152.832 119.675 152.629 119.675C152.436 119.675 152.281 119.617 152.167 119.503C152.052 119.379 151.995 119.212 151.995 119V118.141H152.114C152.043 118.467 151.911 118.749 151.717 118.987C151.532 119.216 151.299 119.393 151.017 119.516C150.735 119.639 150.413 119.701 150.052 119.701ZM157.165 119.701C156.478 119.701 155.958 119.503 155.605 119.106C155.262 118.701 155.09 118.119 155.09 117.361V110.844C155.09 110.624 155.147 110.456 155.262 110.342C155.376 110.227 155.539 110.17 155.751 110.17C155.962 110.17 156.125 110.227 156.24 110.342C156.363 110.456 156.425 110.624 156.425 110.844V117.282C156.425 117.722 156.513 118.053 156.689 118.273C156.874 118.485 157.139 118.591 157.482 118.591C157.562 118.591 157.632 118.591 157.694 118.591C157.756 118.582 157.817 118.573 157.879 118.564C157.985 118.555 158.06 118.586 158.104 118.657C158.148 118.718 158.17 118.851 158.17 119.053C158.17 119.238 158.13 119.384 158.051 119.489C157.972 119.586 157.844 119.648 157.668 119.675C157.588 119.683 157.505 119.688 157.416 119.688C157.328 119.697 157.245 119.701 157.165 119.701Z" fill="white"/>
<mask id="path-10-inside-1_60_37074" fill="white">
<path d="M239.426 78.4902L244.737 72.161L251.066 77.4719L245.755 83.8011L239.426 78.4902Z"/>
</mask>
<path d="M251.066 77.4719L251.699 78.0029L252.23 77.37L251.597 76.8389L251.066 77.4719ZM244.737 72.161L244.206 72.7939L250.535 78.1048L251.066 77.4719L251.597 76.8389L245.268 71.5281L244.737 72.161ZM251.066 77.4719L250.433 76.9408L245.122 83.27L245.755 83.8011L246.388 84.3322L251.699 78.0029L251.066 77.4719Z" fill="#171717" mask="url(#path-10-inside-1_60_37074)"/>
<defs>
<clipPath id="clip0_60_37074">
<rect width="12.3933" height="19.8293" fill="white" transform="translate(19.8281 44.8965)"/>
</clipPath>
</defs>
</svg>
