<svg width="288" height="110" viewBox="0 0 288 110" fill="none" xmlns="http://www.w3.org/2000/svg">
<rect width="288" height="109.973" rx="14.3014" fill="white"/>
<path d="M14.2456 28.8389C13.9563 28.8389 13.667 28.8159 13.3777 28.7698C13.0884 28.7304 12.8155 28.6679 12.5591 28.5824C12.3026 28.4904 12.0725 28.3786 11.8686 28.2471C11.7503 28.1682 11.6681 28.0728 11.6221 27.9611C11.576 27.8493 11.5596 27.7408 11.5728 27.6356C11.5925 27.5238 11.6352 27.4285 11.701 27.3495C11.7733 27.2641 11.8621 27.2115 11.9673 27.1917C12.0725 27.172 12.1876 27.2016 12.3125 27.2805C12.6018 27.4515 12.9076 27.5764 13.2297 27.6553C13.5519 27.7342 13.8906 27.7737 14.2456 27.7737C14.7651 27.7737 15.1432 27.6882 15.3799 27.5172C15.6166 27.3397 15.7349 27.1128 15.7349 26.8367C15.7349 26.6065 15.6495 26.4257 15.4785 26.2942C15.3141 26.1627 15.0281 26.0542 14.6204 25.9687L13.5355 25.7419C12.9108 25.6104 12.444 25.3901 12.1349 25.0811C11.8325 24.7654 11.6813 24.3512 11.6813 23.8383C11.6813 23.5161 11.747 23.2235 11.8785 22.9605C12.01 22.6975 12.1941 22.4706 12.4308 22.28C12.6741 22.0893 12.9602 21.9446 13.2889 21.846C13.6243 21.7408 13.9925 21.6882 14.3936 21.6882C14.7881 21.6882 15.1629 21.7375 15.518 21.8361C15.873 21.9348 16.1919 22.0794 16.4747 22.2701C16.5799 22.3424 16.6489 22.4312 16.6818 22.5364C16.7213 22.6416 16.7311 22.7468 16.7114 22.852C16.6917 22.9506 16.6456 23.0361 16.5733 23.1085C16.501 23.1808 16.4089 23.2235 16.2971 23.2367C16.1919 23.2498 16.0703 23.2169 15.9322 23.138C15.6889 23 15.4423 22.9013 15.1925 22.8422C14.9426 22.783 14.673 22.7534 14.3837 22.7534C14.0813 22.7534 13.8215 22.7961 13.6045 22.8816C13.3876 22.9671 13.2199 23.0887 13.1015 23.2465C12.9897 23.3978 12.9339 23.5786 12.9339 23.789C12.9339 24.0257 13.0128 24.2164 13.1706 24.3611C13.3284 24.4991 13.598 24.6076 13.9793 24.6865L15.0544 24.9134C15.7054 25.0515 16.1886 25.2685 16.5043 25.5643C16.8265 25.8602 16.9876 26.2548 16.9876 26.7479C16.9876 27.0635 16.9218 27.3495 16.7903 27.606C16.6654 27.8624 16.4813 28.0827 16.238 28.2668C16.0013 28.4509 15.7152 28.5923 15.3799 28.6909C15.0445 28.7895 14.6665 28.8389 14.2456 28.8389ZM20.5763 28.8389C20.0305 28.8389 19.5604 28.7369 19.1659 28.5331C18.7714 28.3293 18.4656 28.04 18.2486 27.6652C18.0382 27.2904 17.933 26.8465 17.933 26.3337C17.933 25.8339 18.0349 25.3967 18.2388 25.0219C18.4492 24.6471 18.7352 24.3545 19.0969 24.1441C19.4651 23.9271 19.8826 23.8186 20.3495 23.8186C20.6914 23.8186 20.9971 23.8745 21.2667 23.9863C21.5429 24.098 21.7763 24.2591 21.967 24.4695C22.1642 24.68 22.3122 24.9364 22.4108 25.2389C22.516 25.5348 22.5686 25.8701 22.5686 26.2449C22.5686 26.3632 22.5259 26.4553 22.4404 26.5211C22.3615 26.5802 22.2464 26.6098 22.0952 26.6098H18.9292V25.8997H21.7007L21.5429 26.0476C21.5429 25.7452 21.4969 25.492 21.4048 25.2882C21.3193 25.0843 21.1911 24.9298 21.0201 24.8246C20.8558 24.7128 20.6486 24.6569 20.3988 24.6569C20.1226 24.6569 19.8859 24.7227 19.6886 24.8542C19.4979 24.9791 19.35 25.16 19.2448 25.3967C19.1462 25.6268 19.0969 25.903 19.0969 26.2252V26.2942C19.0969 26.8334 19.2218 27.2378 19.4716 27.5074C19.7281 27.7704 20.1029 27.9019 20.596 27.9019C20.767 27.9019 20.9577 27.8822 21.1681 27.8427C21.3851 27.7967 21.5889 27.7211 21.7796 27.6159C21.9177 27.5369 22.0393 27.5041 22.1445 27.5172C22.2497 27.5238 22.3319 27.56 22.3911 27.6257C22.4569 27.6915 22.4963 27.7737 22.5095 27.8723C22.5226 27.9643 22.5029 28.0597 22.4503 28.1583C22.4042 28.2569 22.3221 28.3424 22.2037 28.4148C21.9736 28.5594 21.7073 28.6679 21.4048 28.7402C21.1089 28.806 20.8327 28.8389 20.5763 28.8389ZM25.4387 28.8389C24.8929 28.8389 24.482 28.6843 24.2058 28.3753C23.9296 28.0597 23.7916 27.5994 23.7916 26.9945V22.3293C23.7916 22.1254 23.8442 21.9709 23.9494 21.8657C24.0546 21.7605 24.2058 21.7079 24.4031 21.7079C24.6003 21.7079 24.7516 21.7605 24.8568 21.8657C24.9686 21.9709 25.0244 22.1254 25.0244 22.3293V26.9353C25.0244 27.2378 25.0869 27.4613 25.2118 27.606C25.3433 27.7506 25.5275 27.823 25.7642 27.823C25.8168 27.823 25.8661 27.823 25.9121 27.823C25.9581 27.8164 26.0042 27.8098 26.0502 27.8032C26.1423 27.7901 26.2047 27.8164 26.2376 27.8822C26.2705 27.9413 26.2869 28.0663 26.2869 28.2569C26.2869 28.4213 26.254 28.5495 26.1883 28.6416C26.1225 28.7337 26.014 28.7895 25.8628 28.8093C25.797 28.8159 25.728 28.8224 25.6557 28.829C25.5833 28.8356 25.511 28.8389 25.4387 28.8389ZM29.5166 28.8389C28.9708 28.8389 28.5007 28.7369 28.1062 28.5331C27.7117 28.3293 27.4059 28.04 27.1889 27.6652C26.9785 27.2904 26.8733 26.8465 26.8733 26.3337C26.8733 25.8339 26.9752 25.3967 27.1791 25.0219C27.3895 24.6471 27.6755 24.3545 28.0371 24.1441C28.4054 23.9271 28.8229 23.8186 29.2897 23.8186C29.6317 23.8186 29.9374 23.8745 30.207 23.9863C30.4832 24.098 30.7166 24.2591 30.9073 24.4695C31.1045 24.68 31.2525 24.9364 31.3511 25.2389C31.4563 25.5348 31.5089 25.8701 31.5089 26.2449C31.5089 26.3632 31.4662 26.4553 31.3807 26.5211C31.3018 26.5802 31.1867 26.6098 31.0355 26.6098H27.8695V25.8997H30.641L30.4832 26.0476C30.4832 25.7452 30.4371 25.492 30.3451 25.2882C30.2596 25.0843 30.1314 24.9298 29.9604 24.8246C29.796 24.7128 29.5889 24.6569 29.3391 24.6569C29.0629 24.6569 28.8262 24.7227 28.6289 24.8542C28.4382 24.9791 28.2903 25.16 28.1851 25.3967C28.0864 25.6268 28.0371 25.903 28.0371 26.2252V26.2942C28.0371 26.8334 28.1621 27.2378 28.4119 27.5074C28.6684 27.7704 29.0432 27.9019 29.5363 27.9019C29.7073 27.9019 29.898 27.8822 30.1084 27.8427C30.3254 27.7967 30.5292 27.7211 30.7199 27.6159C30.858 27.5369 30.9796 27.5041 31.0848 27.5172C31.19 27.5238 31.2722 27.56 31.3314 27.6257C31.3971 27.6915 31.4366 27.7737 31.4497 27.8723C31.4629 27.9643 31.4432 28.0597 31.3906 28.1583C31.3445 28.2569 31.2623 28.3424 31.144 28.4148C30.9138 28.5594 30.6475 28.6679 30.3451 28.7402C30.0492 28.806 29.773 28.8389 29.5166 28.8389ZM34.9609 28.8389C34.4546 28.8389 34.014 28.7369 33.6392 28.5331C33.2645 28.3227 32.9751 28.0268 32.7713 27.6454C32.5675 27.2641 32.4656 26.8169 32.4656 26.3041C32.4656 25.9161 32.5214 25.5709 32.6332 25.2685C32.7516 24.9594 32.9192 24.6997 33.1362 24.4893C33.3532 24.2723 33.6162 24.1079 33.9253 23.9961C34.2343 23.8778 34.5795 23.8186 34.9609 23.8186C35.1779 23.8186 35.4113 23.8482 35.6612 23.9074C35.9176 23.9665 36.1576 24.0652 36.3812 24.2032C36.4864 24.269 36.5554 24.3479 36.5883 24.44C36.6212 24.532 36.6277 24.6274 36.608 24.726C36.5883 24.818 36.5456 24.9002 36.4798 24.9726C36.4206 25.0383 36.345 25.0811 36.2529 25.1008C36.1609 25.1139 36.059 25.0909 35.9472 25.0317C35.8025 24.9463 35.6546 24.8838 35.5034 24.8443C35.3521 24.7983 35.2075 24.7753 35.0694 24.7753C34.8524 24.7753 34.6617 24.8115 34.4973 24.8838C34.3329 24.9495 34.1916 25.0482 34.0732 25.1797C33.9614 25.3046 33.876 25.4624 33.8168 25.6531C33.7576 25.8438 33.728 26.0641 33.728 26.3139C33.728 26.8005 33.8431 27.1852 34.0732 27.4679C34.3099 27.7441 34.642 27.8822 35.0694 27.8822C35.2075 27.8822 35.3488 27.8624 35.4935 27.823C35.6447 27.7835 35.796 27.7211 35.9472 27.6356C36.059 27.5764 36.1576 27.5567 36.2431 27.5764C36.3351 27.5961 36.4108 27.6422 36.4699 27.7145C36.5291 27.7802 36.5653 27.8624 36.5784 27.9611C36.5916 28.0531 36.5784 28.1452 36.539 28.2372C36.5061 28.3293 36.4403 28.4049 36.3417 28.4641C36.1247 28.5956 35.8946 28.6909 35.6513 28.7501C35.408 28.8093 35.1779 28.8389 34.9609 28.8389ZM39.8592 28.8389C39.4318 28.8389 39.0734 28.7665 38.7841 28.6219C38.5014 28.4772 38.291 28.2668 38.1529 27.9906C38.0148 27.7079 37.9458 27.3594 37.9458 26.9452V24.8443H37.4329C37.2751 24.8443 37.1534 24.8049 37.068 24.726C36.9825 24.6405 36.9397 24.5254 36.9397 24.3808C36.9397 24.2295 36.9825 24.1145 37.068 24.0356C37.1534 23.9567 37.2751 23.9172 37.4329 23.9172H37.9458V23.0197C37.9458 22.8159 37.9984 22.6613 38.1036 22.5561C38.2154 22.4509 38.3699 22.3983 38.5671 22.3983C38.7644 22.3983 38.9156 22.4509 39.0208 22.5561C39.126 22.6613 39.1786 22.8159 39.1786 23.0197V23.9172H40.2241C40.3819 23.9172 40.5036 23.9567 40.5891 24.0356C40.6745 24.1145 40.7173 24.2295 40.7173 24.3808C40.7173 24.5254 40.6745 24.6405 40.5891 24.726C40.5036 24.8049 40.3819 24.8443 40.2241 24.8443H39.1786V26.8761C39.1786 27.1917 39.2477 27.4285 39.3858 27.5863C39.5238 27.7441 39.7474 27.823 40.0564 27.823C40.1682 27.823 40.2669 27.8131 40.3523 27.7934C40.4378 27.7737 40.5134 27.7605 40.5792 27.7539C40.6581 27.7474 40.7238 27.7737 40.7764 27.8328C40.8291 27.8854 40.8554 27.9972 40.8554 28.1682C40.8554 28.2997 40.8323 28.418 40.7863 28.5232C40.7469 28.6219 40.6712 28.6909 40.5595 28.7304C40.474 28.7567 40.3622 28.7797 40.2241 28.7994C40.086 28.8257 39.9644 28.8389 39.8592 28.8389ZM45.829 30.5945C45.6844 30.5945 45.566 30.555 45.4739 30.4761C45.3819 30.4038 45.326 30.3052 45.3063 30.1802C45.2931 30.0553 45.3161 29.9238 45.3753 29.7857L46.046 28.2964V28.8093L44.2509 24.6569C44.1918 24.5123 44.172 24.3775 44.1918 24.2526C44.2115 24.1276 44.2707 24.029 44.3693 23.9567C44.4745 23.8778 44.6159 23.8383 44.7934 23.8383C44.9446 23.8383 45.0663 23.8745 45.1583 23.9468C45.2504 24.0126 45.3326 24.1408 45.4049 24.3315L46.7364 27.6553H46.4405L47.8016 24.3216C47.8739 24.1375 47.9594 24.0126 48.0581 23.9468C48.1567 23.8745 48.2882 23.8383 48.4526 23.8383C48.5972 23.8383 48.7123 23.8778 48.7978 23.9567C48.8833 24.029 48.9359 24.1276 48.9556 24.2526C48.9753 24.3709 48.9523 24.5024 48.8865 24.6471L46.4898 30.1211C46.4044 30.3052 46.3123 30.4301 46.2137 30.4959C46.115 30.5616 45.9868 30.5945 45.829 30.5945ZM52.1473 28.8389C51.6475 28.8389 51.2136 28.7369 50.8454 28.5331C50.4771 28.3293 50.1911 28.04 49.9873 27.6652C49.7834 27.2838 49.6815 26.8367 49.6815 26.3238C49.6815 25.9359 49.7374 25.5906 49.8492 25.2882C49.9675 24.9791 50.1352 24.7161 50.3522 24.4991C50.5692 24.2756 50.8289 24.1079 51.1314 23.9961C51.4338 23.8778 51.7725 23.8186 52.1473 23.8186C52.647 23.8186 53.081 23.9205 53.4492 24.1243C53.8174 24.3282 54.1034 24.6175 54.3073 24.9923C54.5111 25.3671 54.613 25.8109 54.613 26.3238C54.613 26.7117 54.5538 27.0602 54.4355 27.3693C54.3237 27.6783 54.1593 27.9446 53.9423 28.1682C53.7254 28.3852 53.4656 28.5528 53.1632 28.6712C52.8607 28.783 52.5221 28.8389 52.1473 28.8389ZM52.1473 27.9019C52.3906 27.9019 52.6043 27.8427 52.7884 27.7243C52.9725 27.606 53.1138 27.4317 53.2125 27.2016C53.3177 26.9649 53.3703 26.6723 53.3703 26.3238C53.3703 25.7978 53.2585 25.4065 53.0349 25.1501C52.8114 24.8871 52.5155 24.7556 52.1473 24.7556C51.904 24.7556 51.6903 24.8148 51.5062 24.9331C51.3221 25.0449 51.1774 25.2191 51.0722 25.4559C50.9736 25.686 50.9243 25.9753 50.9243 26.3238C50.9243 26.8432 51.036 27.2378 51.2596 27.5074C51.4832 27.7704 51.7791 27.9019 52.1473 27.9019ZM57.6229 28.8389C57.2218 28.8389 56.8898 28.7665 56.6268 28.6219C56.3638 28.4706 56.1665 28.2471 56.035 27.9512C55.9101 27.6553 55.8476 27.2871 55.8476 26.8465V24.4597C55.8476 24.2493 55.9002 24.0948 56.0054 23.9961C56.1106 23.8909 56.2618 23.8383 56.4591 23.8383C56.6564 23.8383 56.8076 23.8909 56.9128 23.9961C57.0246 24.0948 57.0805 24.2493 57.0805 24.4597V26.8663C57.0805 27.2082 57.1495 27.4613 57.2876 27.6257C57.4257 27.7901 57.646 27.8723 57.9484 27.8723C58.2772 27.8723 58.5468 27.7605 58.7572 27.5369C58.9676 27.3068 59.0728 27.0043 59.0728 26.6295V24.4597C59.0728 24.2493 59.1254 24.0948 59.2306 23.9961C59.3358 23.8909 59.4871 23.8383 59.6843 23.8383C59.8816 23.8383 60.0328 23.8909 60.138 23.9961C60.2498 24.0948 60.3057 24.2493 60.3057 24.4597V28.1879C60.3057 28.6087 60.1051 28.8191 59.704 28.8191C59.5134 28.8191 59.3654 28.7665 59.2602 28.6613C59.155 28.5495 59.1024 28.3917 59.1024 28.1879V27.4383L59.2405 27.7342C59.1024 28.0893 58.892 28.3622 58.6092 28.5528C58.3331 28.7435 58.0043 28.8389 57.6229 28.8389ZM62.4667 28.8191C62.2628 28.8191 62.105 28.7665 61.9933 28.6613C61.888 28.5495 61.8354 28.3917 61.8354 28.1879V24.4597C61.8354 24.2559 61.888 24.1013 61.9933 23.9961C62.0985 23.8909 62.2464 23.8383 62.4371 23.8383C62.6278 23.8383 62.7757 23.8909 62.8809 23.9961C62.9861 24.1013 63.0387 24.2559 63.0387 24.4597V25.0811H62.9401C63.0322 24.6865 63.213 24.3874 63.4826 24.1835C63.7522 23.9797 64.1105 23.858 64.5576 23.8186C64.6957 23.8054 64.8042 23.8416 64.8831 23.9271C64.9686 24.006 65.0179 24.1309 65.0311 24.3019C65.0442 24.4663 65.0048 24.6011 64.9127 24.7063C64.8272 24.8049 64.6957 24.8641 64.5182 24.8838L64.3012 24.9035C63.9001 24.943 63.5976 25.0679 63.3938 25.2783C63.19 25.4822 63.088 25.7715 63.088 26.1463V28.1879C63.088 28.3917 63.0354 28.5495 62.9302 28.6613C62.825 28.7665 62.6705 28.8191 62.4667 28.8191ZM69.4999 28.8191C69.3026 28.8191 69.1514 28.7665 69.0462 28.6613C68.941 28.5495 68.8883 28.3917 68.8883 28.1879V24.4597C68.8883 24.2559 68.941 24.1013 69.0462 23.9961C69.1514 23.8909 69.2993 23.8383 69.49 23.8383C69.6807 23.8383 69.8286 23.8909 69.9338 23.9961C70.039 24.1013 70.0916 24.2559 70.0916 24.4597V25.1797L69.9831 24.8838C70.1147 24.555 70.3185 24.2953 70.5947 24.1046C70.8708 23.9139 71.1996 23.8186 71.581 23.8186C71.9689 23.8186 72.2878 23.9106 72.5377 24.0948C72.7875 24.2789 72.9618 24.5616 73.0604 24.943H72.9223C73.0538 24.5945 73.2708 24.3216 73.5733 24.1243C73.8757 23.9205 74.2242 23.8186 74.6188 23.8186C74.987 23.8186 75.2894 23.8909 75.5262 24.0356C75.7694 24.1802 75.9503 24.4005 76.0686 24.6964C76.187 24.9857 76.2462 25.3539 76.2462 25.8011V28.1879C76.2462 28.3917 76.1903 28.5495 76.0785 28.6613C75.9733 28.7665 75.822 28.8191 75.6248 28.8191C75.4275 28.8191 75.2763 28.7665 75.1711 28.6613C75.0659 28.5495 75.0133 28.3917 75.0133 28.1879V25.8504C75.0133 25.4822 74.9508 25.2126 74.8259 25.0416C74.7075 24.8706 74.5037 24.7852 74.2144 24.7852C73.8922 24.7852 73.639 24.9002 73.4549 25.1304C73.2708 25.3539 73.1788 25.6663 73.1788 26.0674V28.1879C73.1788 28.3917 73.1262 28.5495 73.021 28.6613C72.9157 28.7665 72.7645 28.8191 72.5673 28.8191C72.37 28.8191 72.2155 28.7665 72.1037 28.6613C71.9985 28.5495 71.9459 28.3917 71.9459 28.1879V25.8504C71.9459 25.4822 71.8834 25.2126 71.7585 25.0416C71.6401 24.8706 71.4396 24.7852 71.1568 24.7852C70.8347 24.7852 70.5815 24.9002 70.3974 25.1304C70.2133 25.3539 70.1212 25.6663 70.1212 26.0674V28.1879C70.1212 28.6087 69.9141 28.8191 69.4999 28.8191ZM79.9641 28.8389C79.4643 28.8389 79.0304 28.7369 78.6621 28.5331C78.2939 28.3293 78.0079 28.04 77.8041 27.6652C77.6002 27.2838 77.4983 26.8367 77.4983 26.3238C77.4983 25.9359 77.5542 25.5906 77.666 25.2882C77.7843 24.9791 77.952 24.7161 78.169 24.4991C78.386 24.2756 78.6457 24.1079 78.9482 23.9961C79.2506 23.8778 79.5893 23.8186 79.9641 23.8186C80.4638 23.8186 80.8978 23.9205 81.266 24.1243C81.6342 24.3282 81.9202 24.6175 82.1241 24.9923C82.3279 25.3671 82.4298 25.8109 82.4298 26.3238C82.4298 26.7117 82.3706 27.0602 82.2523 27.3693C82.1405 27.6783 81.9761 27.9446 81.7591 28.1682C81.5421 28.3852 81.2824 28.5528 80.9799 28.6712C80.6775 28.783 80.3388 28.8389 79.9641 28.8389ZM79.9641 27.9019C80.2073 27.9019 80.421 27.8427 80.6051 27.7243C80.7893 27.606 80.9306 27.4317 81.0293 27.2016C81.1345 26.9649 81.1871 26.6723 81.1871 26.3238C81.1871 25.7978 81.0753 25.4065 80.8517 25.1501C80.6282 24.8871 80.3323 24.7556 79.9641 24.7556C79.7208 24.7556 79.5071 24.8148 79.323 24.9331C79.1388 25.0449 78.9942 25.2191 78.889 25.4559C78.7904 25.686 78.741 25.9753 78.741 26.3238C78.741 26.8432 78.8528 27.2378 79.0764 27.5074C79.2999 27.7704 79.5958 27.9019 79.9641 27.9019ZM85.5482 28.8389C85.1274 28.8389 84.7559 28.7369 84.4337 28.5331C84.1181 28.3293 83.8715 28.04 83.694 27.6652C83.5164 27.2838 83.4277 26.8367 83.4277 26.3238C83.4277 25.8043 83.5164 25.3605 83.694 24.9923C83.8715 24.6175 84.1181 24.3282 84.4337 24.1243C84.7559 23.9205 85.1274 23.8186 85.5482 23.8186C85.9493 23.8186 86.2978 23.9172 86.5937 24.1145C86.8962 24.3117 87.1 24.5715 87.2052 24.8937H87.0967V22.3293C87.0967 22.1254 87.1493 21.9709 87.2545 21.8657C87.3597 21.7605 87.511 21.7079 87.7082 21.7079C87.9055 21.7079 88.0567 21.7605 88.1619 21.8657C88.2737 21.9709 88.3296 22.1254 88.3296 22.3293V28.1879C88.3296 28.3917 88.277 28.5495 88.1718 28.6613C88.0666 28.7665 87.9153 28.8191 87.7181 28.8191C87.5208 28.8191 87.3696 28.7665 87.2644 28.6613C87.1592 28.5495 87.1066 28.3917 87.1066 28.1879V27.4186L87.2151 27.7145C87.1164 28.0564 86.9159 28.3293 86.6134 28.5331C86.311 28.7369 85.9559 28.8389 85.5482 28.8389ZM85.8934 27.9019C86.1367 27.9019 86.3504 27.8427 86.5345 27.7243C86.7186 27.606 86.86 27.4317 86.9586 27.2016C87.0638 26.9649 87.1164 26.6723 87.1164 26.3238C87.1164 25.7978 87.0047 25.4065 86.7811 25.1501C86.5575 24.8871 86.2616 24.7556 85.8934 24.7556C85.6501 24.7556 85.4364 24.8148 85.2523 24.9331C85.0682 25.0449 84.9236 25.2191 84.8184 25.4559C84.7197 25.686 84.6704 25.9753 84.6704 26.3238C84.6704 26.8432 84.7822 27.2378 85.0057 27.5074C85.2293 27.7704 85.5252 27.9019 85.8934 27.9019ZM92.2315 28.8389C91.6857 28.8389 91.2156 28.7369 90.8211 28.5331C90.4266 28.3293 90.1208 28.04 89.9038 27.6652C89.6934 27.2904 89.5882 26.8465 89.5882 26.3337C89.5882 25.8339 89.6901 25.3967 89.8939 25.0219C90.1044 24.6471 90.3904 24.3545 90.752 24.1441C91.1203 23.9271 91.5378 23.8186 92.0046 23.8186C92.3466 23.8186 92.6523 23.8745 92.9219 23.9863C93.1981 24.098 93.4315 24.2591 93.6222 24.4695C93.8194 24.68 93.9674 24.9364 94.066 25.2389C94.1712 25.5348 94.2238 25.8701 94.2238 26.2449C94.2238 26.3632 94.1811 26.4553 94.0956 26.5211C94.0167 26.5802 93.9016 26.6098 93.7504 26.6098H90.5844V25.8997H93.3559L93.1981 26.0476C93.1981 25.7452 93.152 25.492 93.06 25.2882C92.9745 25.0843 92.8463 24.9298 92.6753 24.8246C92.5109 24.7128 92.3038 24.6569 92.054 24.6569C91.7778 24.6569 91.5411 24.7227 91.3438 24.8542C91.1531 24.9791 91.0052 25.16 90.9 25.3967C90.8013 25.6268 90.752 25.903 90.752 26.2252V26.2942C90.752 26.8334 90.877 27.2378 91.1268 27.5074C91.3833 27.7704 91.7581 27.9019 92.2512 27.9019C92.4222 27.9019 92.6129 27.8822 92.8233 27.8427C93.0403 27.7967 93.2441 27.7211 93.4348 27.6159C93.5729 27.5369 93.6945 27.5041 93.7997 27.5172C93.9049 27.5238 93.9871 27.56 94.0463 27.6257C94.112 27.6915 94.1515 27.7737 94.1646 27.8723C94.1778 27.9643 94.1581 28.0597 94.1055 28.1583C94.0594 28.2569 93.9772 28.3424 93.8589 28.4148C93.6287 28.5594 93.3624 28.6679 93.06 28.7402C92.7641 28.806 92.4879 28.8389 92.2315 28.8389ZM100.57 28.8389C100.071 28.8389 99.6367 28.7369 99.2685 28.5331C98.9003 28.3293 98.6143 28.04 98.4104 27.6652C98.2066 27.2838 98.1047 26.8367 98.1047 26.3238C98.1047 25.9359 98.1606 25.5906 98.2723 25.2882C98.3907 24.9791 98.5584 24.7161 98.7754 24.4991C98.9923 24.2756 99.2521 24.1079 99.5545 23.9961C99.857 23.8778 100.196 23.8186 100.57 23.8186C101.07 23.8186 101.504 23.9205 101.872 24.1243C102.241 24.3282 102.527 24.6175 102.73 24.9923C102.934 25.3671 103.036 25.8109 103.036 26.3238C103.036 26.7117 102.977 27.0602 102.859 27.3693C102.747 27.6783 102.582 27.9446 102.365 28.1682C102.149 28.3852 101.889 28.5528 101.586 28.6712C101.284 28.783 100.945 28.8389 100.57 28.8389ZM100.57 27.9019C100.814 27.9019 101.027 27.8427 101.212 27.7243C101.396 27.606 101.537 27.4317 101.636 27.2016C101.741 26.9649 101.793 26.6723 101.793 26.3238C101.793 25.7978 101.682 25.4065 101.458 25.1501C101.235 24.8871 100.939 24.7556 100.57 24.7556C100.327 24.7556 100.113 24.8148 99.9293 24.9331C99.7452 25.0449 99.6006 25.2191 99.4954 25.4559C99.3967 25.686 99.3474 25.9753 99.3474 26.3238C99.3474 26.8432 99.4592 27.2378 99.6828 27.5074C99.9063 27.7704 100.202 27.9019 100.57 27.9019ZM105.199 28.8191C105.002 28.8191 104.847 28.7665 104.735 28.6613C104.63 28.5495 104.578 28.3917 104.578 28.1879V24.8443H104.124C103.966 24.8443 103.845 24.8049 103.759 24.726C103.674 24.6405 103.631 24.5254 103.631 24.3808C103.631 24.2295 103.674 24.1145 103.759 24.0356C103.845 23.9567 103.966 23.9172 104.124 23.9172H104.933L104.578 24.2427V23.9074C104.578 23.2301 104.749 22.7238 105.091 22.3885C105.432 22.0465 105.926 21.846 106.57 21.7868L106.905 21.7572C107.037 21.7441 107.142 21.7671 107.221 21.8263C107.3 21.8789 107.352 21.9512 107.379 22.0432C107.405 22.1287 107.408 22.2175 107.389 22.3095C107.369 22.4016 107.326 22.4838 107.26 22.5561C107.201 22.6219 107.122 22.658 107.024 22.6646L106.886 22.6745C106.511 22.7008 106.238 22.7961 106.067 22.9605C105.896 23.1249 105.811 23.3748 105.811 23.7101V24.075L105.653 23.9172H106.649C106.807 23.9172 106.928 23.9567 107.014 24.0356C107.099 24.1145 107.142 24.2295 107.142 24.3808C107.142 24.5254 107.099 24.6405 107.014 24.726C106.928 24.8049 106.807 24.8443 106.649 24.8443H105.811V28.1879C105.811 28.6087 105.607 28.8191 105.199 28.8191ZM112.781 28.8389C112.498 28.8389 112.199 28.8093 111.884 28.7501C111.568 28.6909 111.285 28.589 111.035 28.4443C110.93 28.3786 110.855 28.303 110.809 28.2175C110.769 28.1254 110.753 28.0367 110.759 27.9512C110.772 27.8591 110.805 27.7802 110.858 27.7145C110.917 27.6487 110.989 27.606 111.075 27.5863C111.167 27.5665 111.266 27.583 111.371 27.6356C111.634 27.7605 111.88 27.8493 112.11 27.9019C112.341 27.9479 112.567 27.9709 112.791 27.9709C113.107 27.9709 113.34 27.9183 113.491 27.8131C113.649 27.7013 113.728 27.5567 113.728 27.3791C113.728 27.2279 113.675 27.1128 113.57 27.0339C113.472 26.9485 113.32 26.886 113.116 26.8465L112.13 26.6591C111.723 26.5802 111.41 26.4323 111.193 26.2153C110.983 25.9917 110.878 25.7057 110.878 25.3572C110.878 25.0416 110.963 24.7687 111.134 24.5386C111.312 24.3085 111.555 24.1309 111.864 24.006C112.173 23.8811 112.528 23.8186 112.929 23.8186C113.218 23.8186 113.488 23.8515 113.738 23.9172C113.994 23.9764 114.241 24.0717 114.478 24.2032C114.576 24.2559 114.642 24.3249 114.675 24.4104C114.714 24.4959 114.724 24.5846 114.704 24.6767C114.685 24.7622 114.645 24.8411 114.586 24.9134C114.527 24.9791 114.451 25.0219 114.359 25.0416C114.274 25.0548 114.175 25.035 114.063 24.9824C113.86 24.8772 113.662 24.8016 113.472 24.7556C113.287 24.7095 113.11 24.6865 112.939 24.6865C112.617 24.6865 112.377 24.7424 112.219 24.8542C112.068 24.966 111.992 25.1139 111.992 25.298C111.992 25.4361 112.038 25.5512 112.13 25.6432C112.222 25.7353 112.364 25.7978 112.554 25.8306L113.541 26.018C113.968 26.0969 114.29 26.2416 114.507 26.452C114.731 26.6624 114.843 26.9452 114.843 27.3002C114.843 27.7802 114.655 28.1583 114.28 28.4345C113.906 28.7041 113.406 28.8389 112.781 28.8389ZM118.455 28.8389C117.909 28.8389 117.439 28.7369 117.045 28.5331C116.65 28.3293 116.344 28.04 116.127 27.6652C115.917 27.2904 115.812 26.8465 115.812 26.3337C115.812 25.8339 115.914 25.3967 116.118 25.0219C116.328 24.6471 116.614 24.3545 116.976 24.1441C117.344 23.9271 117.761 23.8186 118.228 23.8186C118.57 23.8186 118.876 23.8745 119.146 23.9863C119.422 24.098 119.655 24.2591 119.846 24.4695C120.043 24.68 120.191 24.9364 120.29 25.2389C120.395 25.5348 120.447 25.8701 120.447 26.2449C120.447 26.3632 120.405 26.4553 120.319 26.5211C120.24 26.5802 120.125 26.6098 119.974 26.6098H116.808V25.8997H119.58L119.422 26.0476C119.422 25.7452 119.376 25.492 119.284 25.2882C119.198 25.0843 119.07 24.9298 118.899 24.8246C118.735 24.7128 118.527 24.6569 118.278 24.6569C118.001 24.6569 117.765 24.7227 117.567 24.8542C117.377 24.9791 117.229 25.16 117.124 25.3967C117.025 25.6268 116.976 25.903 116.976 26.2252V26.2942C116.976 26.8334 117.101 27.2378 117.351 27.5074C117.607 27.7704 117.982 27.9019 118.475 27.9019C118.646 27.9019 118.837 27.8822 119.047 27.8427C119.264 27.7967 119.468 27.7211 119.658 27.6159C119.797 27.5369 119.918 27.5041 120.023 27.5172C120.129 27.5238 120.211 27.56 120.27 27.6257C120.336 27.6915 120.375 27.7737 120.388 27.8723C120.401 27.9643 120.382 28.0597 120.329 28.1583C120.283 28.2569 120.201 28.3424 120.083 28.4148C119.852 28.5594 119.586 28.6679 119.284 28.7402C118.988 28.806 118.712 28.8389 118.455 28.8389ZM123.436 28.8389C123.153 28.8389 122.854 28.8093 122.538 28.7501C122.223 28.6909 121.94 28.589 121.69 28.4443C121.585 28.3786 121.509 28.303 121.463 28.2175C121.424 28.1254 121.407 28.0367 121.414 27.9512C121.427 27.8591 121.46 27.7802 121.513 27.7145C121.572 27.6487 121.644 27.606 121.73 27.5863C121.822 27.5665 121.92 27.583 122.025 27.6356C122.289 27.7605 122.535 27.8493 122.765 27.9019C122.995 27.9479 123.222 27.9709 123.446 27.9709C123.761 27.9709 123.995 27.9183 124.146 27.8131C124.304 27.7013 124.383 27.5567 124.383 27.3791C124.383 27.2279 124.33 27.1128 124.225 27.0339C124.126 26.9485 123.975 26.886 123.771 26.8465L122.785 26.6591C122.377 26.5802 122.065 26.4323 121.848 26.2153C121.638 25.9917 121.532 25.7057 121.532 25.3572C121.532 25.0416 121.618 24.7687 121.789 24.5386C121.966 24.3085 122.21 24.1309 122.519 24.006C122.828 23.8811 123.183 23.8186 123.584 23.8186C123.873 23.8186 124.143 23.8515 124.393 23.9172C124.649 23.9764 124.896 24.0717 125.132 24.2032C125.231 24.2559 125.297 24.3249 125.33 24.4104C125.369 24.4959 125.379 24.5846 125.359 24.6767C125.339 24.7622 125.3 24.8411 125.241 24.9134C125.182 24.9791 125.106 25.0219 125.014 25.0416C124.929 25.0548 124.83 25.035 124.718 24.9824C124.514 24.8772 124.317 24.8016 124.126 24.7556C123.942 24.7095 123.765 24.6865 123.594 24.6865C123.272 24.6865 123.032 24.7424 122.874 24.8542C122.722 24.966 122.647 25.1139 122.647 25.298C122.647 25.4361 122.693 25.5512 122.785 25.6432C122.877 25.7353 123.018 25.7978 123.209 25.8306L124.195 26.018C124.623 26.0969 124.945 26.2416 125.162 26.452C125.385 26.6624 125.497 26.9452 125.497 27.3002C125.497 27.7802 125.31 28.1583 124.935 28.4345C124.56 28.7041 124.061 28.8389 123.436 28.8389ZM128.498 28.8389C128.216 28.8389 127.916 28.8093 127.601 28.7501C127.285 28.6909 127.003 28.589 126.753 28.4443C126.647 28.3786 126.572 28.303 126.526 28.2175C126.486 28.1254 126.47 28.0367 126.476 27.9512C126.49 27.8591 126.523 27.7802 126.575 27.7145C126.634 27.6487 126.707 27.606 126.792 27.5863C126.884 27.5665 126.983 27.583 127.088 27.6356C127.351 27.7605 127.598 27.8493 127.828 27.9019C128.058 27.9479 128.285 27.9709 128.508 27.9709C128.824 27.9709 129.057 27.9183 129.209 27.8131C129.366 27.7013 129.445 27.5567 129.445 27.3791C129.445 27.2279 129.393 27.1128 129.287 27.0339C129.189 26.9485 129.038 26.886 128.834 26.8465L127.847 26.6591C127.44 26.5802 127.127 26.4323 126.91 26.2153C126.7 25.9917 126.595 25.7057 126.595 25.3572C126.595 25.0416 126.68 24.7687 126.851 24.5386C127.029 24.3085 127.272 24.1309 127.581 24.006C127.89 23.8811 128.245 23.8186 128.646 23.8186C128.936 23.8186 129.205 23.8515 129.455 23.9172C129.712 23.9764 129.958 24.0717 130.195 24.2032C130.293 24.2559 130.359 24.3249 130.392 24.4104C130.432 24.4959 130.441 24.5846 130.422 24.6767C130.402 24.7622 130.363 24.8411 130.303 24.9134C130.244 24.9791 130.169 25.0219 130.076 25.0416C129.991 25.0548 129.892 25.035 129.781 24.9824C129.577 24.8772 129.379 24.8016 129.189 24.7556C129.005 24.7095 128.827 24.6865 128.656 24.6865C128.334 24.6865 128.094 24.7424 127.936 24.8542C127.785 24.966 127.709 25.1139 127.709 25.298C127.709 25.4361 127.755 25.5512 127.847 25.6432C127.939 25.7353 128.081 25.7978 128.272 25.8306L129.258 26.018C129.685 26.0969 130.007 26.2416 130.224 26.452C130.448 26.6624 130.56 26.9452 130.56 27.3002C130.56 27.7802 130.372 28.1583 129.998 28.4345C129.623 28.7041 129.123 28.8389 128.498 28.8389ZM132.407 28.8093C132.21 28.8093 132.058 28.7501 131.953 28.6317C131.848 28.5134 131.795 28.349 131.795 28.1386V24.5189C131.795 24.3019 131.848 24.1375 131.953 24.0257C132.058 23.9074 132.21 23.8482 132.407 23.8482C132.604 23.8482 132.755 23.9074 132.861 24.0257C132.972 24.1375 133.028 24.3019 133.028 24.5189V28.1386C133.028 28.349 132.976 28.5134 132.87 28.6317C132.765 28.7501 132.611 28.8093 132.407 28.8093ZM132.407 22.9309C132.177 22.9309 131.996 22.875 131.864 22.7632C131.74 22.6449 131.677 22.4838 131.677 22.28C131.677 22.0695 131.74 21.9085 131.864 21.7967C131.996 21.6849 132.177 21.629 132.407 21.629C132.644 21.629 132.824 21.6849 132.949 21.7967C133.074 21.9085 133.137 22.0695 133.137 22.28C133.137 22.4838 133.074 22.6449 132.949 22.7632C132.824 22.875 132.644 22.9309 132.407 22.9309ZM136.755 28.8389C136.256 28.8389 135.822 28.7369 135.453 28.5331C135.085 28.3293 134.799 28.04 134.595 27.6652C134.392 27.2838 134.29 26.8367 134.29 26.3238C134.29 25.9359 134.346 25.5906 134.457 25.2882C134.576 24.9791 134.743 24.7161 134.96 24.4991C135.177 24.2756 135.437 24.1079 135.739 23.9961C136.042 23.8778 136.381 23.8186 136.755 23.8186C137.255 23.8186 137.689 23.9205 138.057 24.1243C138.426 24.3282 138.712 24.6175 138.915 24.9923C139.119 25.3671 139.221 25.8109 139.221 26.3238C139.221 26.7117 139.162 27.0602 139.044 27.3693C138.932 27.6783 138.767 27.9446 138.55 28.1682C138.333 28.3852 138.074 28.5528 137.771 28.6712C137.469 28.783 137.13 28.8389 136.755 28.8389ZM136.755 27.9019C136.999 27.9019 137.212 27.8427 137.396 27.7243C137.581 27.606 137.722 27.4317 137.821 27.2016C137.926 26.9649 137.978 26.6723 137.978 26.3238C137.978 25.7978 137.867 25.4065 137.643 25.1501C137.419 24.8871 137.124 24.7556 136.755 24.7556C136.512 24.7556 136.298 24.8148 136.114 24.9331C135.93 25.0449 135.786 25.2191 135.68 25.4559C135.582 25.686 135.532 25.9753 135.532 26.3238C135.532 26.8432 135.644 27.2378 135.868 27.5074C136.091 27.7704 136.387 27.9019 136.755 27.9019ZM141.097 28.8191C140.9 28.8191 140.748 28.7665 140.643 28.6613C140.538 28.5495 140.485 28.3917 140.485 28.1879V24.4597C140.485 24.2559 140.538 24.1013 140.643 23.9961C140.748 23.8909 140.896 23.8383 141.087 23.8383C141.278 23.8383 141.426 23.8909 141.531 23.9961C141.636 24.1013 141.689 24.2559 141.689 24.4597V25.1304L141.58 24.8838C141.725 24.5353 141.948 24.2723 142.251 24.0948C142.56 23.9106 142.908 23.8186 143.296 23.8186C143.684 23.8186 144.003 23.8909 144.253 24.0356C144.503 24.1802 144.69 24.4005 144.815 24.6964C144.94 24.9857 145.003 25.3539 145.003 25.8011V28.1879C145.003 28.3917 144.95 28.5495 144.845 28.6613C144.74 28.7665 144.588 28.8191 144.391 28.8191C144.194 28.8191 144.039 28.7665 143.927 28.6613C143.822 28.5495 143.77 28.3917 143.77 28.1879V25.8602C143.77 25.4854 143.697 25.2126 143.553 25.0416C143.415 24.8706 143.198 24.7852 142.902 24.7852C142.54 24.7852 142.251 24.9002 142.034 25.1304C141.823 25.3539 141.718 25.6531 141.718 26.0279V28.1879C141.718 28.6087 141.511 28.8191 141.097 28.8191Z" fill="black"/>
<path d="M161.258 25.6445H275.669" stroke="#D4D4D4" stroke-width="0.493151"/>
<path d="M15.7832 53.0137H83.8379C86.4253 53.0137 88.5225 55.1118 88.5225 57.6992V86.3018C88.5225 88.8892 86.4253 90.9863 83.8379 90.9863H15.7832C13.1958 90.9863 11.0977 88.8892 11.0977 86.3018V57.6992C11.0977 55.1118 13.1958 53.0137 15.7832 53.0137Z" fill="white"/>
<path d="M15.7832 53.0137H83.8379C86.4253 53.0137 88.5225 55.1118 88.5225 57.6992V86.3018C88.5225 88.8892 86.4253 90.9863 83.8379 90.9863H15.7832C13.1958 90.9863 11.0977 88.8892 11.0977 86.3018V57.6992C11.0977 55.1118 13.1958 53.0137 15.7832 53.0137Z" stroke="#E5E5E5" stroke-width="0.493151"/>
<path d="M33.4364 70.6309V65.1076H36.8687V65.7546H34.2255V67.5457H36.4427V68.1769H34.2255V70.6309H33.4364ZM37.9507 70.6309V66.4805H38.6608L38.724 67.2301C38.8239 67.0407 38.9502 66.8855 39.1027 66.7646C39.2553 66.6383 39.4394 66.5436 39.655 66.4805C39.8707 66.4174 40.1127 66.3858 40.381 66.3858V67.2143H39.9154C39.7629 67.2143 39.6156 67.2354 39.4736 67.2774C39.3368 67.3143 39.2132 67.3774 39.1027 67.4668C38.9922 67.5562 38.9028 67.6772 38.8344 67.8298C38.7713 67.9823 38.7398 68.1769 38.7398 68.4137V70.6309H37.9507ZM43.0315 70.7255C42.658 70.7255 42.3266 70.6361 42.0373 70.4573C41.748 70.2784 41.5218 70.0286 41.3588 69.7077C41.1957 69.3815 41.1142 69.0002 41.1142 68.5636C41.1142 68.1322 41.1931 67.7535 41.3509 67.4274C41.5139 67.096 41.7401 66.8408 42.0294 66.662C42.324 66.4779 42.6633 66.3858 43.0473 66.3858C43.4471 66.3858 43.7837 66.4752 44.0573 66.6541C44.3361 66.8329 44.5465 67.0749 44.6885 67.38C44.8305 67.6798 44.9015 68.0139 44.9015 68.3821C44.9015 68.4347 44.9015 68.4899 44.9015 68.5478C44.9015 68.6057 44.8963 68.6688 44.8858 68.7372H41.6902V68.1848H44.1204C44.1099 67.8166 44.002 67.5352 43.7969 67.3406C43.5917 67.1407 43.3392 67.0407 43.0394 67.0407C42.829 67.0407 42.637 67.0933 42.4634 67.1985C42.2898 67.2985 42.1504 67.4484 42.0452 67.6483C41.94 67.8482 41.8874 68.1007 41.8874 68.4058V68.6267C41.8874 68.9423 41.9374 69.208 42.0373 69.4236C42.1425 69.634 42.2793 69.7945 42.4476 69.9049C42.6212 70.0154 42.8159 70.0706 43.0315 70.0706C43.2998 70.0706 43.5102 70.0207 43.6628 69.9207C43.8153 69.8208 43.9284 69.6787 44.002 69.4946H44.7911C44.7227 69.7261 44.607 69.9365 44.4439 70.1259C44.2861 70.31 44.0888 70.4573 43.8521 70.5677C43.6154 70.6729 43.3419 70.7255 43.0315 70.7255ZM47.832 70.7255C47.4586 70.7255 47.1272 70.6361 46.8378 70.4573C46.5485 70.2784 46.3223 70.0286 46.1593 69.7077C45.9962 69.3815 45.9147 69.0002 45.9147 68.5636C45.9147 68.1322 45.9936 67.7535 46.1514 67.4274C46.3144 67.096 46.5406 66.8408 46.83 66.662C47.1245 66.4779 47.4638 66.3858 47.8478 66.3858C48.2476 66.3858 48.5843 66.4752 48.8578 66.6541C49.1366 66.8329 49.347 67.0749 49.489 67.38C49.631 67.6798 49.7021 68.0139 49.7021 68.3821C49.7021 68.4347 49.7021 68.4899 49.7021 68.5478C49.7021 68.6057 49.6968 68.6688 49.6863 68.7372H46.4907V68.1848H48.9209C48.9104 67.8166 48.8026 67.5352 48.5974 67.3406C48.3923 67.1407 48.1398 67.0407 47.8399 67.0407C47.6295 67.0407 47.4375 67.0933 47.2639 67.1985C47.0903 67.2985 46.9509 67.4484 46.8457 67.6483C46.7405 67.8482 46.6879 68.1007 46.6879 68.4058V68.6267C46.6879 68.9423 46.7379 69.208 46.8378 69.4236C46.943 69.634 47.0798 69.7945 47.2481 69.9049C47.4217 70.0154 47.6164 70.0706 47.832 70.0706C48.1003 70.0706 48.3107 70.0207 48.4633 69.9207C48.6158 69.8208 48.7289 69.6787 48.8026 69.4946H49.5916C49.5232 69.7261 49.4075 69.9365 49.2444 70.1259C49.0866 70.31 48.8893 70.4573 48.6526 70.5677C48.4159 70.6729 48.1424 70.7255 47.832 70.7255ZM55.56 70.7255C55.034 70.7255 54.579 70.6072 54.195 70.3705C53.811 70.1285 53.5138 69.7945 53.3034 69.3684C53.0982 68.9371 52.9956 68.4373 52.9956 67.8692C52.9956 67.3064 53.0982 66.8093 53.3034 66.3779C53.5138 65.9466 53.811 65.6126 54.195 65.3758C54.579 65.1339 55.034 65.0129 55.56 65.0129C56.1965 65.0129 56.7146 65.1681 57.1144 65.4784C57.5142 65.7888 57.7667 66.2254 57.8719 66.7882H57.0197C56.9356 66.4621 56.7725 66.2017 56.5305 66.0071C56.2886 65.8124 55.9624 65.7151 55.5521 65.7151C55.1944 65.7151 54.8841 65.8019 54.6211 65.9755C54.358 66.1491 54.1555 66.3963 54.0135 66.7172C53.8715 67.0381 53.8005 67.4221 53.8005 67.8692C53.8005 68.3163 53.8715 68.703 54.0135 69.0291C54.1555 69.35 54.358 69.5972 54.6211 69.7708C54.8841 69.9391 55.1944 70.0233 55.5521 70.0233C55.9624 70.0233 56.2886 69.9312 56.5305 69.7471C56.7725 69.5578 56.9356 69.3026 57.0197 68.9818H57.8719C57.7667 69.5288 57.5142 69.9575 57.1144 70.2679C56.7146 70.573 56.1965 70.7255 55.56 70.7255ZM60.3658 70.7255C60.045 70.7255 59.7793 70.6677 59.5689 70.552C59.3585 70.4362 59.2007 70.2811 59.0955 70.0864C58.9903 69.8865 58.9377 69.6735 58.9377 69.4473C58.9377 69.1843 59.006 68.9581 59.1428 68.7687C59.2796 68.5741 59.4716 68.4268 59.7188 68.3269C59.9713 68.2217 60.2711 68.1691 60.6183 68.1691H61.6283C61.6283 67.9166 61.5994 67.7088 61.5415 67.5457C61.4889 67.3774 61.3968 67.2511 61.2653 67.167C61.1338 67.0828 60.955 67.0407 60.7288 67.0407C60.5079 67.0407 60.3211 67.0933 60.1686 67.1985C60.016 67.3037 59.9187 67.4615 59.8766 67.672H59.0876C59.1191 67.3984 59.2112 67.167 59.3637 66.9776C59.5163 66.783 59.7109 66.6357 59.9476 66.5357C60.1896 66.4358 60.45 66.3858 60.7288 66.3858C61.1075 66.3858 61.4205 66.4516 61.6677 66.5831C61.9202 66.7146 62.107 66.9013 62.228 67.1433C62.3542 67.38 62.4173 67.6641 62.4173 67.9955V70.6309H61.7309L61.6677 69.9523C61.6151 70.0575 61.5468 70.1574 61.4626 70.2521C61.3837 70.3468 61.289 70.431 61.1785 70.5046C61.0733 70.573 60.9524 70.6256 60.8156 70.6624C60.6788 70.7045 60.5289 70.7255 60.3658 70.7255ZM60.5079 70.0864C60.6657 70.0864 60.8103 70.0522 60.9418 69.9838C61.0786 69.9102 61.197 69.8129 61.2969 69.6919C61.3968 69.5709 61.4731 69.4341 61.5257 69.2816C61.5836 69.1238 61.6151 68.9607 61.6204 68.7924V68.7293H60.6972C60.4763 68.7293 60.2974 68.7582 60.1607 68.8161C60.0239 68.8687 59.924 68.9476 59.8608 69.0528C59.7977 69.1527 59.7662 69.2684 59.7662 69.4C59.7662 69.5367 59.7951 69.6577 59.853 69.7629C59.9108 69.8629 59.995 69.9418 60.1054 69.9996C60.2212 70.0575 60.3553 70.0864 60.5079 70.0864ZM63.7641 70.6309V64.9498H64.5531V70.6309H63.7641ZM65.9139 70.6309V64.9498H66.7029V70.6309H65.9139Z" fill="#1F1F1F"/>
<path d="M36.6296 82.522C36.5612 82.522 36.5007 82.5115 36.4481 82.4905C36.4007 82.4694 36.3613 82.4405 36.3297 82.4037C36.2982 82.3669 36.2692 82.3248 36.2429 82.2774L35.1935 80.6915C35.1041 80.5494 35.012 80.4363 34.9173 80.3522C34.8227 80.2627 34.7148 80.1996 34.5938 80.1628C34.4781 80.126 34.3361 80.1076 34.1678 80.1076H33.2682C33.1788 80.1076 33.1078 80.0839 33.0552 80.0366C33.0079 79.9892 32.9842 79.9208 32.9842 79.8314C32.9842 79.7472 33.0079 79.6841 33.0552 79.642C33.1078 79.5947 33.1788 79.571 33.2682 79.571H34.6412C35.1041 79.571 35.4486 79.479 35.6748 79.2949C35.901 79.1055 36.0167 78.8267 36.022 78.4585L36.1246 78.5926H33.2525C33.1683 78.5926 33.1025 78.5716 33.0552 78.5295C33.0079 78.4874 32.9842 78.4295 32.9842 78.3559C32.9842 78.2822 33.0079 78.2244 33.0552 78.1823C33.1025 78.1402 33.1683 78.1192 33.2525 78.1192H36.1246L36.0062 78.2612C35.9641 77.9719 35.8326 77.7536 35.6117 77.6063C35.396 77.4538 35.0936 77.3775 34.7043 77.3775H33.2525C33.1683 77.3775 33.1025 77.3564 33.0552 77.3144C33.0079 77.2723 32.9842 77.2144 32.9842 77.1408C32.9842 77.0671 33.0079 77.0093 33.0552 76.9672C33.1025 76.9251 33.1683 76.9041 33.2525 76.9041H37.2292C37.3134 76.9041 37.3792 76.9251 37.4265 76.9672C37.4738 77.0093 37.4975 77.0671 37.4975 77.1408C37.4975 77.2144 37.4738 77.2723 37.4265 77.3144C37.3792 77.3564 37.3134 77.3775 37.2292 77.3775H35.8011L35.9352 77.2355C36.1404 77.3354 36.3008 77.4722 36.4165 77.6458C36.5375 77.8141 36.6112 78.0113 36.6375 78.2375L36.5033 78.1192H37.2292C37.3134 78.1192 37.3792 78.1402 37.4265 78.1823C37.4738 78.2244 37.4975 78.2822 37.4975 78.3559C37.4975 78.4295 37.4738 78.4874 37.4265 78.5295C37.3792 78.5716 37.3134 78.5926 37.2292 78.5926H36.527L36.6532 78.4269C36.669 78.7636 36.6033 79.0555 36.456 79.3027C36.3139 79.55 36.1009 79.742 35.8168 79.8787C35.5381 80.0102 35.1961 80.076 34.7911 80.076V80.005H34.9173C35.1172 80.005 35.2961 80.0523 35.4539 80.147C35.617 80.2417 35.7748 80.4074 35.9273 80.6441L36.8584 82.0486C36.9057 82.1222 36.9268 82.1959 36.9215 82.2695C36.9162 82.3432 36.8873 82.4037 36.8347 82.451C36.7874 82.4984 36.719 82.522 36.6296 82.522ZM38.9265 82.4668C38.8318 82.4668 38.7582 82.4431 38.7056 82.3958C38.653 82.3432 38.6267 82.2722 38.6267 82.1827C38.6267 82.0933 38.653 82.0276 38.7056 81.9855C38.7582 81.9381 38.8318 81.9145 38.9265 81.9145H39.9523V77.4406H40.2916L39.1475 78.1981C39.0791 78.2349 39.0133 78.2507 38.9502 78.2454C38.8923 78.2402 38.8424 78.2191 38.8003 78.1823C38.7635 78.1402 38.7372 78.0929 38.7214 78.0403C38.7056 77.9824 38.7082 77.9246 38.7293 77.8667C38.7503 77.8036 38.795 77.751 38.8634 77.7089L39.9523 76.9909C40.0207 76.9488 40.0864 76.9146 40.1495 76.8883C40.2127 76.862 40.2758 76.8488 40.3389 76.8488C40.4126 76.8488 40.4731 76.8725 40.5204 76.9198C40.573 76.9619 40.5993 77.0303 40.5993 77.125V81.9145H41.5462C41.6408 81.9145 41.7145 81.9381 41.7671 81.9855C41.8197 82.0276 41.846 82.0933 41.846 82.1827C41.846 82.2774 41.8197 82.3484 41.7671 82.3958C41.7145 82.4431 41.6408 82.4668 41.5462 82.4668H38.9265ZM45.0188 82.5378C44.719 82.5378 44.4191 82.4931 44.1193 82.4037C43.8247 82.3142 43.5564 82.1749 43.3145 81.9855C43.2513 81.9434 43.2093 81.8934 43.1882 81.8356C43.1672 81.7777 43.1645 81.7198 43.1803 81.662C43.1961 81.6041 43.225 81.5568 43.2671 81.5199C43.3092 81.4779 43.3592 81.4542 43.417 81.4489C43.4802 81.4437 43.5459 81.4647 43.6143 81.5121C43.83 81.6646 44.0535 81.7777 44.285 81.8513C44.5164 81.925 44.7584 81.9618 45.0109 81.9618C45.2687 81.9618 45.4896 81.9145 45.6737 81.8198C45.8631 81.7198 46.0051 81.5831 46.0998 81.4095C46.1997 81.2306 46.2497 81.0229 46.2497 80.7861C46.2497 80.4232 46.1445 80.126 45.9341 79.8945C45.7237 79.6631 45.4344 79.5473 45.0661 79.5473C44.8399 79.5473 44.6322 79.5894 44.4428 79.6736C44.2534 79.7578 44.0798 79.8919 43.922 80.076C43.8852 80.1181 43.8405 80.1549 43.7879 80.1865C43.7405 80.2128 43.6853 80.2259 43.6222 80.2259C43.5328 80.2259 43.4618 80.2022 43.4092 80.1549C43.3618 80.1023 43.3381 80.0339 43.3381 79.9498V77.2039C43.3381 77.1039 43.3644 77.0303 43.417 76.983C43.4696 76.9304 43.5433 76.9041 43.638 76.9041H46.3207C46.4207 76.9041 46.4943 76.9277 46.5416 76.9751C46.5942 77.0224 46.6205 77.0908 46.6205 77.1802C46.6205 77.2696 46.5942 77.338 46.5416 77.3854C46.4943 77.4327 46.4207 77.4564 46.3207 77.4564H43.9773V79.6736H43.8037C43.9404 79.4527 44.1298 79.2843 44.3718 79.1686C44.6138 79.0476 44.8847 78.9871 45.1845 78.9871C45.5369 78.9871 45.8394 79.0608 46.0919 79.2081C46.3496 79.3553 46.5469 79.5631 46.6837 79.8314C46.8257 80.0944 46.8967 80.4021 46.8967 80.7546C46.8967 81.1018 46.8204 81.4095 46.6679 81.6778C46.5153 81.946 46.2997 82.1564 46.0209 82.309C45.7421 82.4615 45.4081 82.5378 45.0188 82.5378ZM49.93 82.7351C49.9037 82.8035 49.8668 82.8534 49.8195 82.885C49.7774 82.9166 49.7274 82.9323 49.6696 82.9323C49.6117 82.9323 49.5591 82.9166 49.5118 82.885C49.4697 82.8587 49.4381 82.8192 49.4171 82.7666C49.396 82.714 49.396 82.6535 49.4171 82.5852L51.295 76.762C51.3213 76.6936 51.3581 76.6437 51.4055 76.6121C51.4528 76.5806 51.5028 76.5648 51.5554 76.5648C51.6132 76.5648 51.6632 76.5806 51.7053 76.6121C51.7526 76.6384 51.7842 76.6779 51.8 76.7305C51.821 76.7831 51.821 76.8436 51.8 76.9119L49.93 82.7351ZM54.9642 82.522C54.8695 82.522 54.7958 82.4957 54.7432 82.4431C54.6906 82.3853 54.6643 82.3064 54.6643 82.2064V77.1644C54.6643 77.0592 54.6906 76.9803 54.7432 76.9277C54.7958 76.8751 54.8695 76.8488 54.9642 76.8488C55.0483 76.8488 55.1141 76.8672 55.1614 76.9041C55.214 76.9356 55.2614 76.9909 55.3035 77.0698L57.4654 81.1412H57.2287L59.3828 77.0698C59.4249 76.9909 59.4696 76.9356 59.5169 76.9041C59.5643 76.8672 59.6327 76.8488 59.7221 76.8488C59.8115 76.8488 59.8825 76.8751 59.9351 76.9277C59.9877 76.9803 60.014 77.0592 60.014 77.1644V82.2064C60.014 82.3064 59.9877 82.3853 59.9351 82.4431C59.8878 82.4957 59.8141 82.522 59.7142 82.522C59.6195 82.522 59.5459 82.4957 59.4933 82.4431C59.4407 82.3853 59.4144 82.3064 59.4144 82.2064V77.772H59.6037L57.6311 81.4726C57.5943 81.541 57.5548 81.591 57.5128 81.6225C57.4759 81.6488 57.4207 81.662 57.3471 81.662C57.2734 81.662 57.2156 81.6462 57.1735 81.6146C57.1314 81.5831 57.0946 81.5357 57.063 81.4726L55.0667 77.7641H55.2561V82.2064C55.2561 82.3064 55.2298 82.3853 55.1772 82.4431C55.1299 82.4957 55.0588 82.522 54.9642 82.522ZM61.726 82.5062C61.6208 82.5062 61.5419 82.4773 61.4893 82.4195C61.4367 82.3563 61.4104 82.2695 61.4104 82.1591V78.9319C61.4104 78.8214 61.4367 78.7373 61.4893 78.6794C61.5419 78.6215 61.6208 78.5926 61.726 78.5926C61.8259 78.5926 61.9048 78.6215 61.9627 78.6794C62.0206 78.7373 62.0495 78.8214 62.0495 78.9319V82.1591C62.0495 82.2695 62.0206 82.3563 61.9627 82.4195C61.9101 82.4773 61.8312 82.5062 61.726 82.5062ZM61.726 77.7089C61.5945 77.7089 61.4919 77.6747 61.4183 77.6063C61.3446 77.5327 61.3078 77.4353 61.3078 77.3144C61.3078 77.1881 61.3446 77.0934 61.4183 77.0303C61.4919 76.9619 61.5945 76.9277 61.726 76.9277C61.8628 76.9277 61.9653 76.9619 62.0337 77.0303C62.1074 77.0934 62.1442 77.1881 62.1442 77.3144C62.1442 77.4353 62.1074 77.5327 62.0337 77.6063C61.9653 77.6747 61.8628 77.7089 61.726 77.7089ZM63.6585 82.522C63.5533 82.522 63.4744 82.4931 63.4218 82.4352C63.3692 82.3774 63.3429 82.2958 63.3429 82.1906V78.9003C63.3429 78.7951 63.3692 78.7162 63.4218 78.6636C63.4744 78.6058 63.5507 78.5768 63.6506 78.5768C63.7506 78.5768 63.8269 78.6058 63.8795 78.6636C63.9373 78.7162 63.9663 78.7951 63.9663 78.9003V79.5789L63.8795 79.4842C63.9899 79.1791 64.1688 78.9503 64.416 78.7978C64.6685 78.6399 64.9578 78.561 65.284 78.561C65.5891 78.561 65.8415 78.6163 66.0414 78.7267C66.2466 78.8372 66.3991 79.0055 66.4991 79.2317C66.599 79.4527 66.649 79.7341 66.649 80.076V82.1906C66.649 82.2958 66.6201 82.3774 66.5622 82.4352C66.5096 82.4931 66.4333 82.522 66.3334 82.522C66.2282 82.522 66.1466 82.4931 66.0888 82.4352C66.0362 82.3774 66.0099 82.2958 66.0099 82.1906V80.1155C66.0099 79.7578 65.9389 79.4974 65.7968 79.3343C65.6601 79.166 65.4391 79.0818 65.134 79.0818C64.7816 79.0818 64.5002 79.1923 64.2898 79.4132C64.0846 79.6289 63.982 79.9182 63.982 80.2812V82.1906C63.982 82.4116 63.8742 82.522 63.6585 82.522Z" fill="#606060"/>
<path d="M99.6172 57.6991C99.6172 54.9755 101.825 52.7676 104.549 52.7676H179.508C182.231 52.7676 184.439 54.9755 184.439 57.6991V86.3018C184.439 89.0254 182.231 91.2333 179.508 91.2333H104.549C101.825 91.2333 99.6172 89.0254 99.6172 86.3018V57.6991Z" fill="#F2FBF2"/>
<path d="M104.549 53.0137H179.508C182.095 53.0138 184.192 55.1119 184.192 57.6992V86.3018C184.192 88.8891 182.095 90.9862 179.508 90.9863H104.549C101.961 90.9863 99.8633 88.8892 99.8633 86.3018V57.6992C99.8633 55.1118 101.961 53.0137 104.549 53.0137Z" stroke="#3A643B" stroke-opacity="0.52" stroke-width="0.493151"/>
<path d="M128.088 70.6445L125.771 64.4308H126.73L128.612 69.7214L130.511 64.4308H131.452L129.144 70.6445H128.088ZM132.574 70.6445V65.9754H133.462V70.6445H132.574ZM133.018 65.1942C132.846 65.1942 132.704 65.141 132.592 65.0344C132.485 64.9279 132.432 64.7918 132.432 64.6261C132.432 64.4663 132.485 64.3361 132.592 64.2355C132.704 64.129 132.846 64.0758 133.018 64.0758C133.184 64.0758 133.323 64.129 133.435 64.2355C133.548 64.3361 133.604 64.4663 133.604 64.6261C133.604 64.7918 133.548 64.9279 133.435 65.0344C133.323 65.141 133.184 65.1942 133.018 65.1942ZM136.921 70.7511C136.513 70.7511 136.149 70.6475 135.829 70.4404C135.516 70.2273 135.27 69.9374 135.093 69.5704C134.921 69.2035 134.835 68.7863 134.835 68.3188C134.835 67.8395 134.924 67.4164 135.102 67.0495C135.279 66.6826 135.528 66.3955 135.847 66.1884C136.167 65.9754 136.537 65.8689 136.957 65.8689C137.306 65.8689 137.608 65.9369 137.862 66.073C138.117 66.2091 138.318 66.4015 138.466 66.65V64.2533H139.353V70.6445H138.555L138.475 69.9344C138.386 70.0764 138.27 70.2096 138.128 70.3338C137.986 70.4581 137.815 70.5587 137.614 70.6357C137.418 70.7126 137.188 70.7511 136.921 70.7511ZM137.099 69.9788C137.371 69.9788 137.611 69.9107 137.818 69.7746C138.025 69.6385 138.182 69.4462 138.288 69.1976C138.401 68.9491 138.457 68.6532 138.457 68.31C138.457 67.9667 138.401 67.6708 138.288 67.4223C138.182 67.1678 138.025 66.9755 137.818 66.8453C137.611 66.7092 137.371 66.6411 137.099 66.6411C136.838 66.6411 136.605 66.7092 136.398 66.8453C136.19 66.9814 136.028 67.1737 135.909 67.4223C135.797 67.6708 135.741 67.9667 135.741 68.31C135.741 68.6473 135.797 68.9432 135.909 69.1976C136.028 69.4462 136.19 69.6385 136.398 69.7746C136.605 69.9107 136.838 69.9788 137.099 69.9788ZM142.83 70.7511C142.41 70.7511 142.037 70.6504 141.712 70.4492C141.386 70.248 141.132 69.9669 140.948 69.606C140.765 69.2391 140.673 68.81 140.673 68.3188C140.673 67.8336 140.762 67.4075 140.939 67.0406C141.123 66.6678 141.377 66.3808 141.703 66.1795C142.034 65.9724 142.416 65.8689 142.848 65.8689C143.298 65.8689 143.676 65.9695 143.984 66.1707C144.298 66.3719 144.534 66.6441 144.694 66.9873C144.854 67.3246 144.934 67.7004 144.934 68.1147C144.934 68.1738 144.934 68.236 144.934 68.3011C144.934 68.3662 144.928 68.4372 144.916 68.5141H141.321V67.8928H144.055C144.043 67.4785 143.922 67.1619 143.691 66.9429C143.46 66.7181 143.176 66.6056 142.839 66.6056C142.602 66.6056 142.386 66.6648 142.191 66.7832C141.996 66.8956 141.839 67.0643 141.721 67.2891C141.602 67.514 141.543 67.7981 141.543 68.1413V68.3898C141.543 68.7449 141.599 69.0438 141.712 69.2864C141.83 69.5231 141.984 69.7036 142.173 69.8279C142.369 69.9521 142.587 70.0143 142.83 70.0143C143.132 70.0143 143.369 69.9581 143.54 69.8456C143.712 69.7332 143.839 69.5734 143.922 69.3663H144.81C144.733 69.6267 144.602 69.8634 144.419 70.0764C144.242 70.2835 144.02 70.4492 143.753 70.5735C143.487 70.6919 143.179 70.7511 142.83 70.7511ZM148.253 70.7511C147.821 70.7511 147.436 70.6504 147.099 70.4492C146.762 70.2421 146.501 69.9551 146.318 69.5882C146.135 69.2213 146.043 68.7952 146.043 68.31C146.043 67.8188 146.135 67.3927 146.318 67.0317C146.507 66.6648 146.771 66.3808 147.108 66.1795C147.445 65.9724 147.833 65.8689 148.271 65.8689C148.709 65.8689 149.093 65.9724 149.425 66.1795C149.756 66.3808 150.014 66.6648 150.197 67.0317C150.386 67.3927 150.481 67.8188 150.481 68.31C150.481 68.7952 150.386 69.2213 150.197 69.5882C150.014 69.9551 149.753 70.2421 149.416 70.4492C149.085 70.6504 148.697 70.7511 148.253 70.7511ZM148.253 69.9877C148.508 69.9877 148.732 69.9255 148.928 69.8012C149.129 69.677 149.286 69.4906 149.398 69.242C149.517 68.9875 149.576 68.6769 149.576 68.31C149.576 67.9371 149.52 67.6264 149.407 67.3779C149.295 67.1294 149.141 66.9429 148.946 66.8187C148.75 66.6944 148.525 66.6323 148.271 66.6323C148.022 66.6323 147.797 66.6944 147.596 66.8187C147.401 66.9429 147.244 67.1294 147.126 67.3779C147.007 67.6264 146.948 67.9371 146.948 68.31C146.948 68.6769 147.004 68.9875 147.117 69.242C147.235 69.4906 147.392 69.677 147.587 69.8012C147.783 69.9255 148.005 69.9877 148.253 69.9877Z" fill="#3A643B"/>
<circle cx="160.139" cy="67.3983" r="4.93151" fill="#3A643B"/>
<g clip-path="url(#clip0_60_37047)">
<path d="M162.357 65.7969L158.967 69.1873L157.426 67.6462" stroke="white" stroke-width="0.986301" stroke-linecap="round" stroke-linejoin="round"/>
</g>
<path d="M130.458 82.522C130.389 82.522 130.329 82.5115 130.276 82.4905C130.229 82.4694 130.189 82.4405 130.158 82.4037C130.126 82.3669 130.097 82.3248 130.071 82.2774L129.022 80.6915C128.932 80.5494 128.84 80.4363 128.746 80.3522C128.651 80.2627 128.543 80.1996 128.422 80.1628C128.306 80.126 128.164 80.1076 127.996 80.1076H127.096C127.007 80.1076 126.936 80.0839 126.883 80.0366C126.836 79.9892 126.812 79.9208 126.812 79.8314C126.812 79.7472 126.836 79.6841 126.883 79.642C126.936 79.5947 127.007 79.571 127.096 79.571H128.469C128.932 79.571 129.277 79.479 129.503 79.2949C129.729 79.1055 129.845 78.8267 129.85 78.4585L129.953 78.5926H127.081C126.996 78.5926 126.931 78.5716 126.883 78.5295C126.836 78.4874 126.812 78.4295 126.812 78.3559C126.812 78.2822 126.836 78.2244 126.883 78.1823C126.931 78.1402 126.996 78.1192 127.081 78.1192H129.953L129.834 78.2612C129.792 77.9719 129.661 77.7536 129.44 77.6063C129.224 77.4538 128.922 77.3775 128.532 77.3775H127.081C126.996 77.3775 126.931 77.3564 126.883 77.3144C126.836 77.2723 126.812 77.2144 126.812 77.1408C126.812 77.0671 126.836 77.0093 126.883 76.9672C126.931 76.9251 126.996 76.9041 127.081 76.9041H131.057C131.142 76.9041 131.207 76.9251 131.255 76.9672C131.302 77.0093 131.326 77.0671 131.326 77.1408C131.326 77.2144 131.302 77.2723 131.255 77.3144C131.207 77.3564 131.142 77.3775 131.057 77.3775H129.629L129.763 77.2355C129.969 77.3354 130.129 77.4722 130.245 77.6458C130.366 77.8141 130.439 78.0113 130.466 78.2375L130.332 78.1192H131.057C131.142 78.1192 131.207 78.1402 131.255 78.1823C131.302 78.2244 131.326 78.2822 131.326 78.3559C131.326 78.4295 131.302 78.4874 131.255 78.5295C131.207 78.5716 131.142 78.5926 131.057 78.5926H130.355L130.481 78.4269C130.497 78.7636 130.431 79.0555 130.284 79.3027C130.142 79.55 129.929 79.742 129.645 79.8787C129.366 80.0102 129.024 80.076 128.619 80.076V80.005H128.746C128.945 80.005 129.124 80.0523 129.282 80.147C129.445 80.2417 129.603 80.4074 129.756 80.6441L130.687 82.0486C130.734 82.1222 130.755 82.1959 130.75 82.2695C130.744 82.3432 130.716 82.4037 130.663 82.451C130.616 82.4984 130.547 82.522 130.458 82.522ZM132.755 82.4668C132.66 82.4668 132.586 82.4431 132.534 82.3958C132.481 82.3432 132.455 82.2722 132.455 82.1827C132.455 82.0933 132.481 82.0276 132.534 81.9855C132.586 81.9381 132.66 81.9145 132.755 81.9145H133.78V77.4406H134.12L132.976 78.1981C132.907 78.2349 132.842 78.2507 132.778 78.2454C132.721 78.2402 132.671 78.2191 132.628 78.1823C132.592 78.1402 132.565 78.0929 132.55 78.0403C132.534 77.9824 132.536 77.9246 132.557 77.8667C132.579 77.8036 132.623 77.751 132.692 77.7089L133.78 76.9909C133.849 76.9488 133.915 76.9146 133.978 76.8883C134.041 76.862 134.104 76.8488 134.167 76.8488C134.241 76.8488 134.301 76.8725 134.349 76.9198C134.401 76.9619 134.427 77.0303 134.427 77.125V81.9145H135.374C135.469 81.9145 135.543 81.9381 135.595 81.9855C135.648 82.0276 135.674 82.0933 135.674 82.1827C135.674 82.2774 135.648 82.3484 135.595 82.3958C135.543 82.4431 135.469 82.4668 135.374 82.4668H132.755ZM138.847 82.5378C138.547 82.5378 138.247 82.4931 137.947 82.4037C137.653 82.3142 137.385 82.1749 137.143 81.9855C137.08 81.9434 137.037 81.8934 137.016 81.8356C136.995 81.7777 136.993 81.7198 137.009 81.662C137.024 81.6041 137.053 81.5568 137.095 81.5199C137.137 81.4779 137.187 81.4542 137.245 81.4489C137.308 81.4437 137.374 81.4647 137.442 81.5121C137.658 81.6646 137.882 81.7777 138.113 81.8513C138.345 81.925 138.587 81.9618 138.839 81.9618C139.097 81.9618 139.318 81.9145 139.502 81.8198C139.691 81.7198 139.833 81.5831 139.928 81.4095C140.028 81.2306 140.078 81.0229 140.078 80.7861C140.078 80.4232 139.973 80.126 139.762 79.8945C139.552 79.6631 139.263 79.5473 138.894 79.5473C138.668 79.5473 138.46 79.5894 138.271 79.6736C138.082 79.7578 137.908 79.8919 137.75 80.076C137.713 80.1181 137.669 80.1549 137.616 80.1865C137.569 80.2128 137.514 80.2259 137.45 80.2259C137.361 80.2259 137.29 80.2022 137.237 80.1549C137.19 80.1023 137.166 80.0339 137.166 79.9498V77.2039C137.166 77.1039 137.193 77.0303 137.245 76.983C137.298 76.9304 137.371 76.9041 137.466 76.9041H140.149C140.249 76.9041 140.322 76.9277 140.37 76.9751C140.422 77.0224 140.449 77.0908 140.449 77.1802C140.449 77.2696 140.422 77.338 140.37 77.3854C140.322 77.4327 140.249 77.4564 140.149 77.4564H137.805V79.6736H137.632C137.769 79.4527 137.958 79.2843 138.2 79.1686C138.442 79.0476 138.713 78.9871 139.013 78.9871C139.365 78.9871 139.668 79.0608 139.92 79.2081C140.178 79.3553 140.375 79.5631 140.512 79.8314C140.654 80.0944 140.725 80.4021 140.725 80.7546C140.725 81.1018 140.649 81.4095 140.496 81.6778C140.344 81.946 140.128 82.1564 139.849 82.309C139.57 82.4615 139.236 82.5378 138.847 82.5378ZM141.625 82.7351C141.599 82.8035 141.562 82.8534 141.515 82.885C141.473 82.9166 141.423 82.9323 141.365 82.9323C141.307 82.9323 141.254 82.9166 141.207 82.885C141.165 82.8587 141.133 82.8192 141.112 82.7666C141.091 82.714 141.091 82.6535 141.112 82.5852L142.99 76.762C143.017 76.6936 143.053 76.6437 143.101 76.6121C143.148 76.5806 143.198 76.5648 143.251 76.5648C143.309 76.5648 143.359 76.5806 143.401 76.6121C143.448 76.6384 143.48 76.6779 143.495 76.7305C143.516 76.7831 143.516 76.8436 143.495 76.9119L141.625 82.7351ZM144.527 82.522C144.432 82.522 144.358 82.4957 144.306 82.4431C144.253 82.3853 144.227 82.3064 144.227 82.2064V77.1644C144.227 77.0592 144.253 76.9803 144.306 76.9277C144.358 76.8751 144.432 76.8488 144.527 76.8488C144.611 76.8488 144.677 76.8672 144.724 76.9041C144.776 76.9356 144.824 76.9909 144.866 77.0698L147.028 81.1412H146.791L148.945 77.0698C148.987 76.9909 149.032 76.9356 149.079 76.9041C149.127 76.8672 149.195 76.8488 149.285 76.8488C149.374 76.8488 149.445 76.8751 149.498 76.9277C149.55 76.9803 149.576 77.0592 149.576 77.1644V82.2064C149.576 82.3064 149.55 82.3853 149.498 82.4431C149.45 82.4957 149.377 82.522 149.277 82.522C149.182 82.522 149.108 82.4957 149.056 82.4431C149.003 82.3853 148.977 82.3064 148.977 82.2064V77.772H149.166L147.194 81.4726C147.157 81.541 147.117 81.591 147.075 81.6225C147.038 81.6488 146.983 81.662 146.91 81.662C146.836 81.662 146.778 81.6462 146.736 81.6146C146.694 81.5831 146.657 81.5357 146.625 81.4726L144.629 77.7641H144.819V82.2064C144.819 82.3064 144.792 82.3853 144.74 82.4431C144.692 82.4957 144.621 82.522 144.527 82.522ZM151.288 82.5062C151.183 82.5062 151.104 82.4773 151.052 82.4195C150.999 82.3563 150.973 82.2695 150.973 82.1591V78.9319C150.973 78.8214 150.999 78.7373 151.052 78.6794C151.104 78.6215 151.183 78.5926 151.288 78.5926C151.388 78.5926 151.467 78.6215 151.525 78.6794C151.583 78.7373 151.612 78.8214 151.612 78.9319V82.1591C151.612 82.2695 151.583 82.3563 151.525 82.4195C151.473 82.4773 151.394 82.5062 151.288 82.5062ZM151.288 77.7089C151.157 77.7089 151.054 77.6747 150.981 77.6063C150.907 77.5327 150.87 77.4353 150.87 77.3144C150.87 77.1881 150.907 77.0934 150.981 77.0303C151.054 76.9619 151.157 76.9277 151.288 76.9277C151.425 76.9277 151.528 76.9619 151.596 77.0303C151.67 77.0934 151.707 77.1881 151.707 77.3144C151.707 77.4353 151.67 77.5327 151.596 77.6063C151.528 77.6747 151.425 77.7089 151.288 77.7089ZM153.221 82.522C153.116 82.522 153.037 82.4931 152.984 82.4352C152.932 82.3774 152.905 82.2958 152.905 82.1906V78.9003C152.905 78.7951 152.932 78.7162 152.984 78.6636C153.037 78.6058 153.113 78.5768 153.213 78.5768C153.313 78.5768 153.389 78.6058 153.442 78.6636C153.5 78.7162 153.529 78.7951 153.529 78.9003V79.5789L153.442 79.4842C153.552 79.1791 153.731 78.9503 153.978 78.7978C154.231 78.6399 154.52 78.561 154.846 78.561C155.151 78.561 155.404 78.6163 155.604 78.7267C155.809 78.8372 155.962 79.0055 156.062 79.2317C156.161 79.4527 156.211 79.7341 156.211 80.076V82.1906C156.211 82.2958 156.183 82.3774 156.125 82.4352C156.072 82.4931 155.996 82.522 155.896 82.522C155.791 82.522 155.709 82.4931 155.651 82.4352C155.599 82.3774 155.572 82.2958 155.572 82.1906V80.1155C155.572 79.7578 155.501 79.4974 155.359 79.3343C155.223 79.166 155.002 79.0818 154.696 79.0818C154.344 79.0818 154.063 79.1923 153.852 79.4132C153.647 79.6289 153.544 79.9182 153.544 80.2812V82.1906C153.544 82.4116 153.437 82.522 153.221 82.522Z" fill="#3A643B"/>
<path d="M200.221 53.0137H272.221C274.808 53.0137 276.905 55.1118 276.905 57.6992V86.3018C276.905 88.8891 274.808 90.9863 272.221 90.9863H200.221C197.633 90.9863 195.535 88.8892 195.535 86.3018V57.6992C195.535 55.1118 197.633 53.0137 200.221 53.0137Z" fill="white"/>
<path d="M200.221 53.0137H272.221C274.808 53.0137 276.905 55.1118 276.905 57.6992V86.3018C276.905 88.8891 274.808 90.9863 272.221 90.9863H200.221C197.633 90.9863 195.535 88.8892 195.535 86.3018V57.6992C195.535 55.1118 197.633 53.0137 200.221 53.0137Z" stroke="#E5E5E5" stroke-width="0.493151"/>
<path d="M229.91 70.2314C229.384 70.2314 228.929 70.113 228.545 69.8763C228.161 69.6344 227.863 69.3003 227.653 68.8743C227.448 68.4429 227.345 67.9432 227.345 67.3751C227.345 66.8122 227.448 66.3151 227.653 65.8838C227.863 65.4524 228.161 65.1184 228.545 64.8817C228.929 64.6397 229.384 64.5187 229.91 64.5187C230.546 64.5187 231.064 64.6739 231.464 64.9843C231.864 65.2946 232.116 65.7312 232.221 66.2941H231.369C231.285 65.968 231.122 65.7076 230.88 65.5129C230.638 65.3183 230.312 65.221 229.902 65.221C229.544 65.221 229.234 65.3078 228.971 65.4814C228.708 65.655 228.505 65.9022 228.363 66.2231C228.221 66.544 228.15 66.928 228.15 67.3751C228.15 67.8222 228.221 68.2088 228.363 68.535C228.505 68.8558 228.708 69.1031 228.971 69.2767C229.234 69.445 229.544 69.5292 229.902 69.5292C230.312 69.5292 230.638 69.4371 230.88 69.253C231.122 69.0636 231.285 68.8085 231.369 68.4876H232.221C232.116 69.0347 231.864 69.4634 231.464 69.7738C231.064 70.0789 230.546 70.2314 229.91 70.2314ZM233.406 70.1367V64.4556H234.195V66.6334C234.331 66.4072 234.516 66.2283 234.747 66.0968C234.978 65.9601 235.231 65.8917 235.504 65.8917C235.836 65.8917 236.112 65.9522 236.333 66.0732C236.559 66.1941 236.73 66.3783 236.846 66.6255C236.962 66.8727 237.019 67.1831 237.019 67.5566V70.1367H236.238V67.6355C236.238 67.283 236.154 67.0174 235.986 66.8385C235.817 66.6544 235.586 66.5624 235.291 66.5624C235.092 66.5624 234.907 66.6097 234.739 66.7044C234.576 66.7991 234.445 66.9385 234.345 67.1226C234.245 67.3067 234.195 67.5276 234.195 67.7854V70.1367H233.406ZM239.67 70.2314C239.349 70.2314 239.084 70.1735 238.873 70.0578C238.663 69.9421 238.505 69.7869 238.4 69.5923C238.294 69.3924 238.242 69.1793 238.242 68.9532C238.242 68.6901 238.31 68.464 238.447 68.2746C238.584 68.08 238.776 67.9327 239.023 67.8327C239.276 67.7275 239.575 67.6749 239.923 67.6749H240.933C240.933 67.4224 240.904 67.2146 240.846 67.0516C240.793 66.8832 240.701 66.757 240.57 66.6728C240.438 66.5887 240.259 66.5466 240.033 66.5466C239.812 66.5466 239.625 66.5992 239.473 66.7044C239.32 66.8096 239.223 66.9674 239.181 67.1778H238.392C238.423 66.9043 238.515 66.6728 238.668 66.4835C238.821 66.2888 239.015 66.1415 239.252 66.0416C239.494 65.9416 239.754 65.8917 240.033 65.8917C240.412 65.8917 240.725 65.9574 240.972 66.0889C241.224 66.2204 241.411 66.4072 241.532 66.6492C241.658 66.8859 241.722 67.1699 241.722 67.5013V70.1367H241.035L240.972 69.4581C240.919 69.5633 240.851 69.6633 240.767 69.758C240.688 69.8527 240.593 69.9368 240.483 70.0105C240.378 70.0789 240.257 70.1315 240.12 70.1683C239.983 70.2104 239.833 70.2314 239.67 70.2314ZM239.812 69.5923C239.97 69.5923 240.115 69.5581 240.246 69.4897C240.383 69.4161 240.501 69.3187 240.601 69.1978C240.701 69.0768 240.777 68.94 240.83 68.7875C240.888 68.6297 240.919 68.4666 240.925 68.2983V68.2351H240.001C239.781 68.2351 239.602 68.2641 239.465 68.3219C239.328 68.3745 239.228 68.4534 239.165 68.5586C239.102 68.6586 239.07 68.7743 239.07 68.9058C239.07 69.0426 239.099 69.1636 239.157 69.2688C239.215 69.3687 239.299 69.4476 239.41 69.5055C239.525 69.5633 239.66 69.5923 239.812 69.5923ZM244.672 70.1367C244.42 70.1367 244.201 70.0973 244.017 70.0184C243.833 69.9395 243.691 69.808 243.591 69.6238C243.491 69.4397 243.441 69.1899 243.441 68.8743V66.6492H242.723V65.9864H243.441L243.544 64.9133H244.23V65.9864H245.374V66.6492H244.23V68.8821C244.23 69.1083 244.278 69.2635 244.372 69.3477C244.467 69.4266 244.63 69.466 244.861 69.466H245.374V70.1367H244.672Z" fill="#131313"/>
<path d="M221.435 82.0279C221.367 82.0279 221.306 82.0174 221.254 81.9963C221.206 81.9753 221.167 81.9464 221.135 81.9095C221.104 81.8727 221.075 81.8306 221.048 81.7833L219.999 80.1973C219.91 80.0553 219.817 79.9422 219.723 79.858C219.628 79.7686 219.52 79.7055 219.399 79.6687C219.284 79.6318 219.142 79.6134 218.973 79.6134H218.074C217.984 79.6134 217.913 79.5898 217.861 79.5424C217.813 79.4951 217.79 79.4267 217.79 79.3373C217.79 79.2531 217.813 79.19 217.861 79.1479C217.913 79.1005 217.984 79.0769 218.074 79.0769H219.447C219.91 79.0769 220.254 78.9848 220.48 78.8007C220.706 78.6113 220.822 78.3325 220.827 77.9643L220.93 78.0985H218.058C217.974 78.0985 217.908 78.0774 217.861 78.0353C217.813 77.9933 217.79 77.9354 217.79 77.8618C217.79 77.7881 217.813 77.7302 217.861 77.6882C217.908 77.6461 217.974 77.625 218.058 77.625H220.93L220.812 77.7671C220.77 77.4778 220.638 77.2595 220.417 77.1122C220.201 76.9596 219.899 76.8833 219.51 76.8833H218.058C217.974 76.8833 217.908 76.8623 217.861 76.8202C217.813 76.7781 217.79 76.7203 217.79 76.6466C217.79 76.573 217.813 76.5151 217.861 76.473C217.908 76.431 217.974 76.4099 218.058 76.4099H222.035C222.119 76.4099 222.185 76.431 222.232 76.473C222.279 76.5151 222.303 76.573 222.303 76.6466C222.303 76.7203 222.279 76.7781 222.232 76.8202C222.185 76.8623 222.119 76.8833 222.035 76.8833H220.607L220.741 76.7413C220.946 76.8413 221.106 76.978 221.222 77.1516C221.343 77.3199 221.417 77.5172 221.443 77.7434L221.309 77.625H222.035C222.119 77.625 222.185 77.6461 222.232 77.6882C222.279 77.7302 222.303 77.7881 222.303 77.8618C222.303 77.9354 222.279 77.9933 222.232 78.0353C222.185 78.0774 222.119 78.0985 222.035 78.0985H221.332L221.459 77.9328C221.474 78.2694 221.409 78.5614 221.261 78.8086C221.119 79.0558 220.906 79.2478 220.622 79.3846C220.344 79.5161 220.002 79.5819 219.597 79.5819V79.5108H219.723C219.923 79.5108 220.102 79.5582 220.259 79.6529C220.422 79.7476 220.58 79.9133 220.733 80.15L221.664 81.5545C221.711 81.6281 221.732 81.7018 221.727 81.7754C221.722 81.849 221.693 81.9095 221.64 81.9569C221.593 82.0042 221.524 82.0279 221.435 82.0279ZM223.732 81.9727C223.637 81.9727 223.564 81.949 223.511 81.9016C223.458 81.849 223.432 81.778 223.432 81.6886C223.432 81.5992 223.458 81.5334 223.511 81.4913C223.564 81.444 223.637 81.4203 223.732 81.4203H224.758V76.9465H225.097L223.953 77.7039C223.885 77.7408 223.819 77.7565 223.756 77.7513C223.698 77.746 223.648 77.725 223.606 77.6882C223.569 77.6461 223.543 77.5987 223.527 77.5461C223.511 77.4883 223.514 77.4304 223.535 77.3725C223.556 77.3094 223.6 77.2568 223.669 77.2147L224.758 76.4967C224.826 76.4546 224.892 76.4204 224.955 76.3941C225.018 76.3678 225.081 76.3547 225.144 76.3547C225.218 76.3547 225.279 76.3784 225.326 76.4257C225.378 76.4678 225.405 76.5362 225.405 76.6308V81.4203H226.352C226.446 81.4203 226.52 81.444 226.573 81.4913C226.625 81.5334 226.651 81.5992 226.651 81.6886C226.651 81.7833 226.625 81.8543 226.573 81.9016C226.52 81.949 226.446 81.9727 226.352 81.9727H223.732ZM229.824 82.0437C229.524 82.0437 229.225 81.999 228.925 81.9095C228.63 81.8201 228.362 81.6807 228.12 81.4913C228.057 81.4493 228.015 81.3993 227.994 81.3414C227.973 81.2836 227.97 81.2257 227.986 81.1678C228.002 81.11 228.03 81.0626 228.073 81.0258C228.115 80.9837 228.165 80.9601 228.222 80.9548C228.286 80.9495 228.351 80.9706 228.42 81.0179C228.635 81.1705 228.859 81.2836 229.09 81.3572C229.322 81.4308 229.564 81.4677 229.816 81.4677C230.074 81.4677 230.295 81.4203 230.479 81.3256C230.669 81.2257 230.811 81.0889 230.905 80.9153C231.005 80.7365 231.055 80.5287 231.055 80.292C231.055 79.929 230.95 79.6318 230.74 79.4004C230.529 79.1689 230.24 79.0532 229.872 79.0532C229.645 79.0532 229.438 79.0953 229.248 79.1795C229.059 79.2636 228.885 79.3978 228.727 79.5819C228.691 79.6239 228.646 79.6608 228.593 79.6923C228.546 79.7186 228.491 79.7318 228.428 79.7318C228.338 79.7318 228.267 79.7081 228.215 79.6608C228.167 79.6082 228.144 79.5398 228.144 79.4556V76.7098C228.144 76.6098 228.17 76.5362 228.222 76.4888C228.275 76.4362 228.349 76.4099 228.443 76.4099H231.126C231.226 76.4099 231.3 76.4336 231.347 76.4809C231.4 76.5283 231.426 76.5967 231.426 76.6861C231.426 76.7755 231.4 76.8439 231.347 76.8912C231.3 76.9386 231.226 76.9622 231.126 76.9622H228.783V79.1795H228.609C228.746 78.9585 228.935 78.7902 229.177 78.6745C229.419 78.5535 229.69 78.493 229.99 78.493C230.342 78.493 230.645 78.5666 230.897 78.7139C231.155 78.8612 231.352 79.069 231.489 79.3373C231.631 79.6003 231.702 79.908 231.702 80.2604C231.702 80.6076 231.626 80.9153 231.473 81.1836C231.321 81.4519 231.105 81.6623 230.826 81.8148C230.548 81.9674 230.214 82.0437 229.824 82.0437ZM234.735 82.2409C234.709 82.3093 234.672 82.3593 234.625 82.3908C234.583 82.4224 234.533 82.4382 234.475 82.4382C234.417 82.4382 234.365 82.4224 234.317 82.3908C234.275 82.3645 234.244 82.3251 234.223 82.2725C234.201 82.2199 234.201 82.1594 234.223 82.091L236.1 76.2679C236.127 76.1995 236.164 76.1495 236.211 76.118C236.258 76.0864 236.308 76.0706 236.361 76.0706C236.419 76.0706 236.469 76.0864 236.511 76.118C236.558 76.1443 236.59 76.1837 236.605 76.2363C236.626 76.2889 236.626 76.3494 236.605 76.4178L234.735 82.2409ZM241.143 82.0279C241.043 82.0279 240.964 81.999 240.906 81.9411C240.848 81.878 240.819 81.7938 240.819 81.6886V76.9701H239.044C238.949 76.9701 238.875 76.9438 238.823 76.8912C238.77 76.8386 238.744 76.7702 238.744 76.6861C238.744 76.5967 238.77 76.5283 238.823 76.4809C238.875 76.4336 238.949 76.4099 239.044 76.4099H243.249C243.344 76.4099 243.418 76.4336 243.47 76.4809C243.523 76.5283 243.549 76.5967 243.549 76.6861C243.549 76.7755 243.523 76.8465 243.47 76.8991C243.418 76.9465 243.344 76.9701 243.249 76.9701H241.474V81.6886C241.474 81.7938 241.445 81.878 241.387 81.9411C241.335 81.999 241.253 82.0279 241.143 82.0279ZM245.339 82.0437C244.934 82.0437 244.585 81.9648 244.29 81.807C244.001 81.6439 243.774 81.4151 243.611 81.1205C243.454 80.8259 243.375 80.4735 243.375 80.0632C243.375 79.6634 243.454 79.3162 243.611 79.0216C243.769 78.7218 243.985 78.4877 244.258 78.3194C244.537 78.1511 244.858 78.0669 245.221 78.0669C245.479 78.0669 245.71 78.1116 245.915 78.201C246.121 78.2852 246.294 78.4088 246.436 78.5719C246.583 78.735 246.694 78.9322 246.768 79.1637C246.846 79.3951 246.886 79.6555 246.886 79.9448C246.886 80.029 246.862 80.0921 246.815 80.1342C246.768 80.171 246.699 80.1894 246.61 80.1894H243.864V79.7712H246.46L246.334 79.8738C246.334 79.5898 246.291 79.3504 246.207 79.1558C246.123 78.9559 246 78.8033 245.836 78.6981C245.679 78.5929 245.479 78.5403 245.237 78.5403C244.969 78.5403 244.74 78.6035 244.55 78.7297C244.366 78.8507 244.227 79.0216 244.132 79.2426C244.037 79.4582 243.99 79.7107 243.99 80.0001V80.0474C243.99 80.5313 244.106 80.8996 244.337 81.1521C244.574 81.4045 244.908 81.5308 245.339 81.5308C245.518 81.5308 245.694 81.5071 245.868 81.4598C246.047 81.4124 246.22 81.3335 246.389 81.2231C246.462 81.1757 246.528 81.1547 246.586 81.1599C246.649 81.1599 246.699 81.1784 246.736 81.2152C246.773 81.2467 246.796 81.2888 246.807 81.3414C246.823 81.3888 246.818 81.4414 246.791 81.4992C246.77 81.5571 246.725 81.6071 246.657 81.6491C246.483 81.7754 246.278 81.8727 246.042 81.9411C245.805 82.0095 245.571 82.0437 245.339 82.0437ZM247.894 82.02C247.826 82.02 247.766 81.999 247.713 81.9569C247.66 81.9148 247.631 81.8596 247.626 81.7912C247.626 81.7175 247.66 81.6413 247.729 81.5624L249.11 79.8265V80.1579L247.816 78.5403C247.747 78.4562 247.713 78.3799 247.713 78.3115C247.718 78.2431 247.747 78.1879 247.8 78.1458C247.852 78.1037 247.913 78.0827 247.981 78.0827C248.06 78.0827 248.126 78.0985 248.179 78.13C248.236 78.1563 248.289 78.201 248.336 78.2642L249.465 79.6923H249.244L250.38 78.2642C250.427 78.201 250.477 78.1563 250.53 78.13C250.582 78.0985 250.648 78.0827 250.727 78.0827C250.801 78.0827 250.861 78.1037 250.909 78.1458C250.961 78.1879 250.988 78.2458 250.988 78.3194C250.993 78.3878 250.961 78.4641 250.893 78.5482L249.607 80.1421V79.8501L250.988 81.5624C251.051 81.6413 251.08 81.7175 251.074 81.7912C251.074 81.8596 251.048 81.9148 250.995 81.9569C250.943 81.999 250.88 82.02 250.806 82.02C250.732 82.02 250.667 82.0042 250.609 81.9727C250.556 81.9464 250.504 81.9016 250.451 81.8385L249.236 80.3078H249.465L248.25 81.8385C248.202 81.8964 248.15 81.9411 248.092 81.9727C248.039 82.0042 247.973 82.02 247.894 82.02ZM253.661 82.0437C253.362 82.0437 253.109 81.9911 252.904 81.8859C252.704 81.7754 252.554 81.6176 252.454 81.4124C252.354 81.202 252.304 80.9469 252.304 80.6471V78.635H251.776C251.686 78.635 251.618 78.614 251.571 78.5719C251.523 78.5245 251.5 78.4614 251.5 78.3825C251.5 78.3036 251.523 78.2431 251.571 78.201C251.618 78.159 251.686 78.1379 251.776 78.1379H252.304V77.2305C252.304 77.1253 252.333 77.0464 252.391 76.9938C252.449 76.9359 252.528 76.907 252.628 76.907C252.728 76.907 252.804 76.9359 252.857 76.9938C252.915 77.0464 252.943 77.1253 252.943 77.2305V78.1379H253.938C254.027 78.1379 254.095 78.159 254.143 78.201C254.19 78.2431 254.214 78.3036 254.214 78.3825C254.214 78.4614 254.19 78.5245 254.143 78.5719C254.095 78.614 254.027 78.635 253.938 78.635H252.943V80.5839C252.943 80.8838 253.007 81.1126 253.133 81.2704C253.259 81.423 253.464 81.4992 253.748 81.4992C253.848 81.4992 253.932 81.4887 254.001 81.4677C254.074 81.4466 254.135 81.4361 254.182 81.4361C254.23 81.4308 254.269 81.4466 254.301 81.4835C254.332 81.5203 254.348 81.5834 254.348 81.6728C254.348 81.7359 254.335 81.7938 254.309 81.8464C254.287 81.899 254.248 81.9358 254.19 81.9569C254.127 81.9779 254.043 81.9963 253.938 82.0121C253.838 82.0331 253.746 82.0437 253.661 82.0437Z" fill="#606060"/>
<defs>
<clipPath id="clip0_60_37047">
<rect width="7.39726" height="7.39726" fill="white" transform="translate(156.191 63.9473)"/>
</clipPath>
</defs>
</svg>
