<svg width="32" height="32" viewBox="0 0 32 32" fill="none" xmlns="http://www.w3.org/2000/svg">
<path d="M8 1C8 0.734784 7.89464 0.48043 7.70711 0.292893C7.51957 0.105357 7.26522 0 7 0C6.73478 0 6.48043 0.105357 6.29289 0.292893C6.10536 0.48043 6 0.734784 6 1V2H4C2.93913 2 1.92172 2.42143 1.17157 3.17157C0.421427 3.92172 0 4.93913 0 6L0 8H32V6C32 4.93913 31.5786 3.92172 30.8284 3.17157C30.0783 2.42143 29.0609 2 28 2H26V1C26 0.734784 25.8946 0.48043 25.7071 0.292893C25.5196 0.105357 25.2652 0 25 0C24.7348 0 24.4804 0.105357 24.2929 0.292893C24.1054 0.48043 24 0.734784 24 1V2H8V1ZM32 28V10H0V28C0 29.0609 0.421427 30.0783 1.17157 30.8284C1.92172 31.5786 2.93913 32 4 32H28C29.0609 32 30.0783 31.5786 30.8284 30.8284C31.5786 30.0783 32 29.0609 32 28ZM25 14H27C27.2652 14 27.5196 14.1054 27.7071 14.2929C27.8946 14.4804 28 14.7348 28 15V17C28 17.2652 27.8946 17.5196 27.7071 17.7071C27.5196 17.8946 27.2652 18 27 18H25C24.7348 18 24.4804 17.8946 24.2929 17.7071C24.1054 17.5196 24 17.2652 24 17V15C24 14.7348 24.1054 14.4804 24.2929 14.2929C24.4804 14.1054 24.7348 14 25 14Z" fill="#3A643C"/>
</svg>
