<svg width="42" height="39" viewBox="0 0 42 39" fill="none" xmlns="http://www.w3.org/2000/svg">
<path d="M17.4499 10C17.9888 8.39019 18.1345 6.67652 17.8749 5C16.0671 5.36136 14.3863 6.18592 13 7.39157C13.2465 8.23929 13.3686 9.11778 13.3625 10H17.4499Z" fill="#3A643C"/>
<path d="M4.66977 10H11.9988C12.0148 9.17929 11.8726 8.3617 11.5776 7.57787C10.1914 3.96047 5.48921 2 5.48921 2C5.48921 2 3.03855 5.85771 4.42471 9.4498C4.49499 9.63653 4.57678 9.82017 4.66977 10Z" fill="#3A643C"/>
<path d="M35.5184 10L39.5659 5.34192C39.839 5.58194 40.2019 5.71342 40.5774 5.70842C40.953 5.70343 41.3117 5.56236 41.5773 5.31518C41.8429 5.068 41.9945 4.73419 41.9999 4.38466C42.0052 4.03513 41.8639 3.69742 41.606 3.44328L38.3261 0.390806C38.1936 0.265326 38.0352 0.166039 37.8605 0.0989C37.6858 0.0317607 37.4983 -0.00184788 37.3093 8.9671e-05C37.1193 -0.00197258 36.9308 0.0315551 36.755 0.0986779C36.5792 0.165801 36.4197 0.265147 36.2859 0.390806C36.1513 0.515099 36.0444 0.662978 35.9714 0.825914C35.8985 0.988849 35.8609 1.16361 35.8609 1.34013C35.8609 1.51664 35.8985 1.6914 35.9714 1.85434C36.0444 2.01727 36.1513 2.16515 36.2859 2.28945L26 10H35.5184Z" fill="#3A643C"/>
<path d="M40.2303 11H1.76973C1.2786 11.0601 0.829209 11.2702 0.504101 11.5918C0.178993 11.9135 0 12.325 0 12.7508C0 13.1766 0.178993 13.5881 0.504101 13.9098C0.829209 14.2314 1.2786 14.4415 1.76973 14.5016H33.637C33.8192 14.5016 33.9939 14.5637 34.1227 14.6743C34.2515 14.7848 34.3238 14.9348 34.3238 15.0911C34.3238 15.2474 34.2515 15.3974 34.1227 15.5079C33.9939 15.6185 33.8192 15.6806 33.637 15.6806H2.22989C2.48428 18.6412 3.68327 21.4845 5.69548 23.8989C7.70768 26.3134 10.4554 28.2058 13.6376 29.3687V31.314C13.6376 31.7612 13.8445 32.19 14.2129 32.5062C14.5812 32.8224 15.0808 33 15.6018 33H26.3982C26.9192 33 27.4188 32.8224 27.7871 32.5062C28.1555 32.19 28.3624 31.7612 28.3624 31.314V30.5477H17.6965C17.5144 30.5477 17.3397 30.4856 17.2109 30.375C17.0821 30.2645 17.0097 30.1145 17.0097 29.9582C17.0097 29.8019 17.0821 29.6519 17.2109 29.5414C17.3397 29.4308 17.5144 29.3687 17.6965 29.3687H28.3624C31.7602 28.128 34.6578 26.0571 36.6947 23.4136C38.7316 20.7702 39.8179 17.6709 39.8182 14.5016H40.2303C40.7214 14.4415 41.1708 14.2314 41.4959 13.9098C41.821 13.5881 42 13.1766 42 12.7508C42 12.325 41.821 11.9135 41.4959 11.5918C41.1708 11.2702 40.7214 11.0601 40.2303 11Z" fill="#3A643C"/>
</svg>
