<svg width="42" height="43" viewBox="0 0 42 43" fill="none" xmlns="http://www.w3.org/2000/svg">
<path d="M39.3111 33.2881C34.8569 31.1011 30.2452 32.4308 28.4513 33.1132L27.0075 30.445C26.0536 28.8703 26.0973 26.9457 27.1387 24.7325C27.6638 23.6127 28.4951 22.5191 29.6064 21.4956C30.3065 20.8395 31.0591 20.0347 31.8379 19.0899C34.3756 16.028 34.5681 11.8639 32.3192 8.72325C28.7838 3.80678 21.6432 0.701191 21.3456 0.57C21.2319 0.526217 21.1181 0.5 21.0044 0.5C20.9956 0.5 20.9956 0.5 20.9956 0.5C20.8819 0.5 20.7681 0.526217 20.6544 0.57C20.348 0.701191 13.2162 3.80678 9.68079 8.72325C7.43188 11.8639 7.62437 16.028 10.1534 19.0899C10.9322 20.0347 11.6848 20.8395 12.3936 21.4956C13.5049 22.5279 14.3362 23.6127 14.8613 24.7325C15.9027 26.9457 15.9464 28.8703 14.9663 30.48L13.5487 33.1132C11.7548 32.4308 7.14308 31.1011 2.68889 33.2881C0.641232 34.2854 -0.400117 36.3588 0.142429 38.3359C0.614954 40.068 2.14635 41.3714 4.75413 42.2288C4.85037 42.255 5.90048 42.5 7.65935 42.5C9.84706 42.5 13.1111 42.1238 16.9965 40.4966L20.9956 38.7208L25.021 40.5054C32.0129 43.4361 37.0359 42.2813 37.3159 42.2113C39.8536 41.3714 41.385 40.068 41.8576 38.3359C42.4001 36.3588 41.3588 34.2854 39.3111 33.2881ZM23.3409 17.7252L24.5835 16.4567C24.6097 16.4217 24.636 16.3954 24.6622 16.3604C26.1236 14.3396 26.5961 12.4325 26.0448 10.6829C25.406 8.61828 23.4283 7.28859 20.9956 7.28859C18.5717 7.28859 16.594 8.61828 15.9464 10.6829C15.4039 12.4325 15.8764 14.3396 17.3378 16.3604C17.364 16.3954 17.3903 16.4217 17.4165 16.4567L18.6504 17.7252C15.2901 17.6552 13.4962 14.6721 13.2162 14.1646C12.0698 9.97429 18.0379 4.59414 20.9956 2.45083C23.9621 4.6029 29.9302 9.97429 28.7838 14.1646C28.5038 14.6808 26.7274 17.6727 23.3409 17.7252Z" fill="#3A643C"/>
</svg>
