<svg width="34" height="36" viewBox="0 0 34 36" fill="none" xmlns="http://www.w3.org/2000/svg">
<path fill-rule="evenodd" clip-rule="evenodd" d="M26.831 8.82786C26.8039 8.48254 26.7582 8.16789 26.681 7.87182C26.1688 5.90912 24.6762 4.37608 22.7652 3.85017C22.0567 3.65524 21.239 3.6557 20.1378 3.65632L6.10263 3.65638C3.80876 3.65638 1.94922 5.56615 1.94922 7.92199V19.401C1.94921 20.9723 1.94918 22.3591 1.99707 23.5736C2.01271 23.9704 2.02055 24.1687 2.11569 24.2838C2.13703 24.3096 2.15112 24.3235 2.17702 24.3445C2.29251 24.4376 2.53223 24.4376 3.01172 24.4376C3.22255 24.4397 3.75781 24.4681 4.2701 24.636C4.54597 24.7197 4.83715 24.8339 5.13788 24.9852C5.2584 25.0459 5.31869 25.0762 5.36417 25.0875C5.49801 25.1206 5.61363 25.0951 5.72268 25.0087C5.75974 24.9793 5.79832 24.9317 5.87545 24.8365C6.75798 23.7474 7.82518 22.5468 8.99423 21.4915C10.1269 20.4689 11.5529 19.4004 13.1627 18.8134C15.0065 18.1413 17.0305 19.135 17.6836 21.033C18.3365 22.9309 17.3712 25.0146 15.5274 25.6867C15.1378 25.8289 14.5015 26.2181 13.6646 26.9735C12.865 27.6956 12.0572 28.5913 11.3146 29.5074C10.984 29.9154 10.6814 30.3305 10.4079 30.7228C10.0121 31.2906 9.81417 31.5746 9.92854 31.8105C10.0429 32.0466 10.381 32.0547 11.0573 32.0706C12.0357 32.0937 13.1172 32.0937 14.3075 32.0937H22.8139C24.6887 32.0937 26.2347 32.0939 27.4581 31.9249C28.7428 31.7475 29.8772 31.3608 30.7856 30.4279C31.694 29.495 32.0704 28.3299 32.2431 27.0107C32.4077 25.7541 32.4076 24.1664 32.4076 22.241V19.1967C32.4076 17.2712 32.4077 15.6836 32.2431 14.4269C32.0704 13.1077 31.694 11.9426 30.7856 11.0097C29.8772 10.0768 28.7428 9.69007 27.4581 9.51271C27.2415 9.48278 27.1332 9.46783 27.0594 9.42328C26.9851 9.37839 26.9367 9.32581 26.897 9.24701C26.8578 9.16882 26.8488 9.05517 26.831 8.82786ZM19.9467 6.5001C21.3234 6.5001 21.7401 6.51232 22.0478 6.597C23.0033 6.85995 23.7497 7.62647 24.0057 8.60783C24.06 8.81564 24.087 8.91954 24.0474 9.04374C24.0209 9.12616 23.9471 9.22512 23.8767 9.27269C23.7703 9.34436 23.6347 9.34423 23.3634 9.34399L22.8133 9.34383H6.10201C5.33738 9.34383 4.71753 8.70724 4.71753 7.92197C4.71753 7.13669 5.33738 6.5001 6.10201 6.5001H19.9467ZM24.9701 17.8751C26.5349 17.8751 27.8034 19.1811 27.8034 20.7918C27.8034 22.4027 26.5349 23.7085 24.9701 23.7085C23.4052 23.7085 22.1367 22.4027 22.1367 20.7918C22.1367 19.1811 23.4052 17.8751 24.9701 17.8751Z" fill="#3A643C"/>
<path d="M15.6791 21.7629C15.9403 22.5221 15.5542 23.3555 14.8166 23.6244C14.0607 23.9001 13.1874 24.4934 12.2622 25.3286C11.3517 26.1506 10.4661 27.1378 9.68159 28.1059C8.89981 29.0706 8.23574 29.9947 7.76675 30.6787C7.53276 31.0199 7.34859 31.2995 7.22397 31.4921L7.03952 31.7818C6.76569 32.2252 6.2811 32.4831 5.7713 32.4562C5.2614 32.4293 4.80498 32.122 4.57664 31.652C3.95234 30.3666 3.39229 29.8549 3.11001 29.6611C2.99056 29.5791 2.90985 29.5463 2.87779 29.5351C2.15757 29.4662 1.59375 28.8425 1.59375 28.0831C1.59375 27.2777 2.22802 26.6248 3.01042 26.6248C3.12715 26.626 3.4171 26.6478 3.6431 26.7264C3.93758 26.8131 4.29293 26.9675 4.68166 27.2342C5.07022 27.501 5.47773 27.8695 5.8868 28.3739C6.33331 27.7457 6.88358 27.0054 7.50591 26.2375C8.34642 25.2003 9.33579 24.0911 10.394 23.1357C11.4376 22.1937 12.6268 21.3286 13.8708 20.875C14.6084 20.6063 15.4179 21.0037 15.6791 21.7629Z" fill="#3A643C"/>
</svg>
