<svg width="17" height="10" viewBox="0 0 17 10" fill="none" xmlns="http://www.w3.org/2000/svg">
<path fill-rule="evenodd" clip-rule="evenodd" d="M6.09375 0.708984H6.74999C6.92404 0.708984 7.09099 0.774818 7.21401 0.892068L8.5 2.11673L9.78599 0.892068C9.90901 0.774818 10.076 0.708984 10.25 0.708984H11.3438V5.45957C10.9514 5.67565 10.6875 6.07965 10.6875 6.54232C10.6875 7.23265 11.2752 7.79232 12 7.79232C12.7248 7.79232 13.3125 7.23265 13.3125 6.54232C13.3125 6.07965 13.0486 5.67565 12.6562 5.45957V0.708984H13.75C15.0789 0.709068 16.1562 1.73507 16.1562 3.00065V8.83398C16.1562 9.17915 15.8624 9.45898 15.5 9.45898H1.5C1.13757 9.45898 0.84375 9.17915 0.84375 8.83398V3.00065C0.84375 1.73507 1.92105 0.709068 3.24997 0.708984H4.78125V4.12857C3.77128 4.40065 3.03125 5.28498 3.03125 6.33398V7.16732C3.03125 7.51248 3.32507 7.79232 3.6875 7.79232C4.04993 7.79232 4.34375 7.51248 4.34375 7.16732V6.33398C4.34375 5.75865 4.83344 5.29232 5.4375 5.29232C6.04156 5.29232 6.53125 5.75865 6.53125 6.33398V7.16732C6.53125 7.51248 6.82508 7.79232 7.1875 7.79232C7.54992 7.79232 7.84375 7.51248 7.84375 7.16732V6.33398C7.84375 5.28498 7.10376 4.40065 6.09375 4.12857V0.708984Z" fill="white"/>
</svg>